<?xml version="1.0" encoding="utf-8"?>
<!-- Generator: Adobe Illustrator 24.2.1, SVG Export Plug-In . SVG Version: 6.00 Build 0)  -->
<svg version="1.1" id="katman_1" xmlns="http://www.w3.org/2000/svg" xmlns:xlink="http://www.w3.org/1999/xlink" x="0px" y="0px"
	 viewBox="0 0 368.5 368.5" style="enable-background:new 0 0 368.5 368.5;" xml:space="preserve">
<style type="text/css">
	.st0{opacity:0.5;}
</style>
<g class="st0">
	<path d="M257.9,345.3c-49,0-98.1,0-147.1,0c-0.2-0.1-0.3-0.2-0.5-0.2c-10.5-1.2-20-9.3-21.6-22.3c-1.2-9.3-2.6-18.6-4-27.8
		c-1.5-10-3-20-4.4-30.1c-1.5-10-2.9-19.9-4.3-29.9c-1.4-9.3-2.8-18.6-4.1-28c-1.2-8.3-2.4-16.6-3.6-24.9c-1.5-10-3-20-4.4-30
		c-1.3-8.5-2.5-17-3.7-25.6c-1-6.6-1.9-13.1-2.8-19.8c84.8,0,169.4,0,254.1,0c-0.5,3.4-0.9,6.8-1.4,10.1c-1.5,10-3,20-4.5,30.1
		c-1.5,10.1-2.9,20.3-4.4,30.4c-1.4,9.8-2.9,19.6-4.3,29.4c-1.4,9.3-2.7,18.5-4,27.8c-1.7,11.5-3.4,23-5.1,34.5
		c-1.4,9.3-2.7,18.7-4.1,28c-1.2,8.6-2.4,17.2-3.7,25.7c-1.2,7.4-4.5,13.5-10.6,18C265.9,343.4,262,344.6,257.9,345.3z M130.8,294.2
		c-0.3-2.3-0.7-5.3-1.1-8.2c-1.2-9.3-2.5-18.7-3.7-28c-1-7.3-1.9-14.5-2.9-21.8c-0.9-6.9-1.8-13.7-2.7-20.6
		c-0.9-6.5-1.7-13-2.6-19.6c-0.9-6.5-1.7-13-2.5-19.6c-1-7.6-2-15.1-3.1-22.7c-0.9-6.9-1.8-13.7-2.8-20.6c-0.5-3.4-4.3-5.7-7.7-4.9
		c-3.7,0.9-5.4,3.9-4.8,8.3c1.3,9.4,2.5,18.8,3.7,28.2c1.1,8.2,2.1,16.4,3.2,24.6c1.1,8.3,2.3,16.6,3.4,24.9
		c1.4,10.2,2.6,20.4,4,30.7c1.4,10.3,2.7,20.7,4.1,31c0.9,6.8,1.8,13.5,2.8,20.2c0.5,3.3,3.6,5.6,6.7,5.3
		C128.5,301.1,130.8,298.5,130.8,294.2z M238,294.2c0,4.2,2.4,7,6,7.3c3,0.3,6-2,6.6-5.3c0.4-2.1,0.6-4.1,0.9-6.2
		c1.2-9.2,2.5-18.3,3.7-27.5c1-7.6,2-15.1,3-22.7c1-7.4,2-14.8,3-22.2c1-7.6,2-15.1,3-22.7c1-7.4,2-14.8,3-22.1
		c1.1-8.5,2.2-17,3.3-25.4c0.6-4.3,1.2-8.5,1.5-12.8c0.2-3.3-2.4-6.1-5.7-6.4c-3.3-0.3-6.4,2-6.9,5.3c-1.2,8.5-2.3,17.1-3.5,25.6
		c-1.1,8.4-2.2,16.7-3.3,25.1c-1.1,8.3-2.2,16.6-3.3,24.9c-0.9,6.8-1.8,13.6-2.7,20.4c-1,7.4-2,14.9-3,22.3
		c-1.2,9.2-2.5,18.5-3.7,27.7C239.2,284.7,238.6,289.7,238,294.2z M198,292.2C198,292.2,198,292.2,198,292.2
		c-0.1,0.9-0.1,1.7-0.1,2.6c0,3.8,2.8,6.6,6.4,6.7c3.3,0.1,6-2.6,6.4-6.2c0.1-1.3,0.2-2.7,0.3-4c0.3-6.6,0.5-13.2,0.8-19.8
		c0.5-12.4,1.1-24.8,1.7-37.2c0.4-8.8,0.7-17.6,1.1-26.4c0.5-12.5,1.1-24.9,1.7-37.4c0.3-6.2,0.6-12.5,0.9-18.7
		c0.3-5.7,0.5-11.3,0.7-17c0.1-3.8-2.7-6.7-6.3-6.7c-3.6,0-6.4,2.8-6.5,6.5c-0.1,1.9-0.2,3.7-0.3,5.6c-0.5,10.3-0.9,20.5-1.4,30.8
		c-0.7,15.8-1.4,31.7-2.1,47.5c-0.5,12.2-1,24.4-1.5,36.5C199.2,267.5,198.6,279.8,198,292.2z M171,292.7c-0.1,0-0.2,0-0.4,0
		c0-1.1,0-2.2,0-3.3c-0.5-12.2-1.1-24.5-1.7-36.7c-0.6-12.4-1.1-24.8-1.7-37.2c-0.5-12.4-1-24.7-1.6-37.1c-0.6-14.6-1.3-29.2-2-43.9
		c-0.2-3.8-3.2-6.5-6.9-6.3c-3.6,0.2-6.1,3.4-5.9,7.1c0.2,3.7,0.4,7.5,0.5,11.2c0.4,9.2,0.7,18.4,1.1,27.6
		c0.5,12.1,1.1,24.1,1.7,36.2c0.3,6.7,0.5,13.4,0.8,20.1c0.6,14.5,1.3,29,2,43.5c0.3,7.3,0.6,14.6,1.1,21.8c0.2,2.9,2.4,5.1,5.3,5.7
		c2.5,0.5,5.6-1,6.6-3.5C170.7,296.3,170.7,294.4,171,292.7z"/>
	<path d="M212.4,23.1c3.4,0.8,6.6,1.7,9.4,3.9c5,4,7.6,9.2,7.7,15.5c0.1,2,0,4.1,0,6.4c0.8,0,1.5,0,2.1,0c16.7,0,33.4,0.1,50.1,0
		c8.6,0,14.5,3.9,18.2,11.5c0.5,1.1,1.2,1.5,2.3,1.6c12,1,22.4,11.2,23.6,23.2c0.1,1.4,0.3,2.8,0,4.1c-0.6,2.6-2.9,4.4-5.5,4.6
		c-0.6,0.1-1.3,0-1.9,0c-89.4,0-178.8,0-268.1,0c-1.5,0-3.2-0.3-4.5-0.9c-2.2-1.1-3.3-3.2-3.2-5.6c0.5-11.9,8.7-21.9,20.3-24.9
		c1-0.2,1.9-0.5,2.9-0.5c1.7,0.1,2.5-0.7,3.3-2.2c3.6-7.2,9.4-11,17.6-10.9c16.8,0,33.6,0,50.4,0c0.6,0,1.3,0,2.1,0c0-2,0-4,0-5.9
		c0-10,6.3-17.7,16.2-19.7c0.2,0,0.4-0.2,0.6-0.3C174.8,23.1,193.6,23.1,212.4,23.1z M152.2,48.7c21.6,0,42.9,0,64.4,0
		c0-2.4,0.1-4.7,0-6.9c-0.2-3.2-2.9-5.7-6.2-5.7c-17.3,0-34.7,0-52,0c-3.2,0-6,2.6-6.2,5.8C152.1,44.1,152.2,46.3,152.2,48.7z"/>
</g>
</svg>
