<?xml version="1.0" encoding="utf-8"?>
<!-- Generator: Adobe Illustrator 24.2.1, SVG Export Plug-In . SVG Version: 6.00 Build 0)  -->
<svg version="1.1" id="katman_1" xmlns="http://www.w3.org/2000/svg" xmlns:xlink="http://www.w3.org/1999/xlink" x="0px" y="0px"
	 viewBox="0 0 283.5 283.5" style="enable-background:new 0 0 283.5 283.5;" xml:space="preserve">
<path d="M222.6,23.2c16.5,1.4,27.6,11.6,34.8,26c6.4,12.8,2.9,26.4-8.3,37.7c-48.9,49-97.9,97.9-146.9,146.8c-1.9,1.9-4.5,3.4-7,4.3
	c-21.2,7.1-42.4,14.1-63.7,21c-2.1,0.7-4.7,0-7,0c0.1-2.4-0.4-4.9,0.3-7.1c6.8-21.1,13.7-42.1,20.8-63c0.9-2.7,2.6-5.5,4.6-7.6
	c48.9-49,97.9-97.9,146.8-146.9C203.9,27.3,212.2,23.7,222.6,23.2z M190,53.8c-43.6,43.6-87.4,87.4-130.7,130.6
	c13.2,13.2,26.9,26.8,40,40c43.3-43.3,87.1-87.1,130.6-130.6C216.7,80.6,203,66.9,190,53.8z M194.9,46.9
	C209,61,222.7,74.8,236.6,88.8c9-8.4,19-16.5,15.8-31c-3-13.4-11.9-22.2-24.7-26.1C212.8,27.1,203.8,37.1,194.9,46.9z M92.3,231.3
	c-13.5-13.6-26.7-26.7-40-40c-3.5,10.4-7.2,21.1-10.5,32c-0.4,1.4,0.1,3.8,1.2,5c3.9,4.3,8.1,8.5,12.4,12.4c1.1,1,3.5,1.7,5,1.2
	C71.2,238.5,81.9,234.8,92.3,231.3z M38,235.2c-1.6,4.9-3.2,9.8-5.2,15.8c6.1-2,10.8-3.6,15.7-5.2C44.9,242.2,41.7,239,38,235.2z"/>
<path d="M188.1,83c-1.3,1.6-2.3,3.2-3.6,4.4c-30.6,30.6-61.1,61.2-91.8,91.7c-1.6,1.6-5,1.5-7.5,2.2c0.8-2.4,1-5.5,2.6-7.1
	c30.4-30.7,61-61.3,91.7-91.8c1.5-1.5,3.8-2.2,5.9-2.7C185.9,79.6,187,81.6,188.1,83z"/>
<path d="M104,200.8c-1.1-3-2.5-4.8-2.2-6.4c0.3-1.6,2.1-2.9,3.4-4.3c30.1-30.1,60.2-60.2,90.2-90.3c1-1,1.9-2.5,3.1-2.8
	c1.5-0.4,3.6-0.3,4.9,0.5c0.7,0.4,0.6,3.1,0,4.3c-0.8,1.6-2.4,2.8-3.8,4.1c-29.6,29.6-59.2,59.2-88.8,88.7
	C109.1,196.4,107.1,198,104,200.8z"/>
</svg>
