<?xml version="1.0" encoding="utf-8"?>
<!-- Generator: Adobe Illustrator 24.2.1, SVG Export Plug-In . SVG Version: 6.00 Build 0)  -->
<svg version="1.1" id="katman_1" xmlns="http://www.w3.org/2000/svg" xmlns:xlink="http://www.w3.org/1999/xlink" x="0px" y="0px"
	 viewBox="0 0 283.46 283.46" style="enable-background:new 0 0 283.46 283.46;" xml:space="preserve">
<style type="text/css">
	.st0{fill:#D7B46A;}
</style>
<path class="st0" d="M217.76,25.52c-56.58,0-112.15,0-168.74,0c0,3.31,0,6.32,0,9.33c0,52.01-0.4,104.02,0.18,156.03
	c0.27,23.99-3.67,46.28-19.66,67.24c4.06,0,6.71,0,9.35,0c31.57,0,63.14,0,94.7,0.01c2.07,0,4.47-0.52,6.11,0.35
	c1.69,0.9,3.4,3.12,3.62,4.94c0.14,1.2-2.11,3.19-3.71,3.95c-1.5,0.71-3.55,0.32-5.36,0.32c-36.74,0.01-73.49,0.07-110.23-0.1
	c-3.08-0.01-6.16-1.51-9.24-2.32c1.3-3.08,1.94-6.71,4-9.14c13.58-16.05,20.66-34.41,20.67-55.46c0.01-58.22,0-116.44,0.01-174.66
	c0-10.23,0.14-10.37,10.45-10.37c55.89-0.01,111.78-0.01,167.67,0c9.82,0,9.98,0.16,9.99,10.02c0.02,29.24,0.01,58.48,0,87.72
	c0,1.81,0.39,3.85-0.32,5.36c-0.76,1.63-2.75,3.98-3.91,3.83c-1.84-0.25-4.03-1.99-4.95-3.71c-0.87-1.63-0.36-4.04-0.37-6.1
	c-0.01-27.43-0.01-54.86-0.02-82.28C218.02,28.96,217.87,27.46,217.76,25.52z"/>
<path class="st0" d="M157.53,187.94c2.82,1.62,6.88,2.79,7.01,4.3c0.21,2.5-1.51,5.79-3.44,7.76
	c-13.17,13.42-10.68,13.12-23.31,0.12c-2.05-2.11-2.25-6-3.31-9.07c3.34,0,6.69,0,11.33,0c0.34-1,1.29-3.82,2.26-6.63
	c8.85-25.47,33.5-42.75,60.05-42.13c27.46,0.65,51.29,18.61,59.13,44.57c7.86,26.03-2.12,54.43-24.55,69.84
	c-22.19,15.25-52.15,14.71-73.24-1.7c-3.66-2.85-11.12-5.9-6.45-11.8c4.8-6.06,8.47,1.49,11.84,4.02
	c18.22,13.65,42.89,14.58,61.77,1.9c19.13-12.85,27.77-36.39,21.51-58.59c-6.05-21.43-25.9-37.31-47.69-38.15
	c-24.13-0.93-44.74,12.43-52.8,34.24C157.47,187.08,157.55,187.64,157.53,187.94z"/>
<path class="st0" d="M133.74,119.24c-17.31,0-34.63,0.21-51.93-0.21c-2.84-0.07-7.77-2.59-8.02-4.46c-0.74-5.61,4.3-5.19,8.15-5.2
	c34.62-0.03,69.25-0.13,103.87,0.2c2.72,0.03,5.4,3.13,8.1,4.8c-2.75,1.62-5.46,4.57-8.24,4.64
	C168.37,119.45,151.05,119.24,133.74,119.24z"/>
<path class="st0" d="M133.41,86.2c-17.3,0-34.61,0.03-51.91-0.03c-3.52-0.01-8.41,0.55-7.69-4.71c0.27-1.95,4.99-4.69,7.7-4.71
	c34.86-0.32,69.73-0.2,104.59-0.23c3.87,0,8.13,0.34,7.38,5.23c-0.28,1.82-4.78,4.19-7.4,4.25
	C168.54,86.37,150.97,86.19,133.41,86.2z"/>
<path class="st0" d="M109.96,152.2c-9.82,0-19.65,0.34-29.44-0.24c-2.47-0.14-4.77-3.21-7.14-4.93c2.25-1.57,4.48-4.46,6.77-4.5
	c19.37-0.36,38.75-0.39,58.12,0.02c2.41,0.05,4.75,3.19,7.12,4.89c-2.51,1.59-4.94,4.39-7.54,4.55
	C128.58,152.54,119.26,152.2,109.96,152.2z"/>
<path class="st0" d="M211.96,185.05c0.01,0.78,0.12,1.57-0.01,2.32c-1.92,11.21,1.74,20.07,11.01,26.71
	c1.86,1.33,3.91,3.02,4.74,5.01c0.82,2,0.92,4.97-0.05,6.76c-0.51,0.94-4.95,1.21-5.99,0.16c-9.49-9.55-22.62-16.88-19.46-34.1
	c1.33-7.26-0.09-14.98,0.43-22.44c0.15-2.13,2.74-4.09,4.21-6.14c1.7,2.06,4.55,3.96,4.88,6.23
	C212.47,174.64,211.96,179.88,211.96,185.05z"/>
<path class="st0" d="M97.3,185.01c-5.93,0-11.91,0.48-17.75-0.24c-2.23-0.27-4.12-3.29-6.16-5.05c2.06-1.45,4.08-4.08,6.18-4.15
	c12.1-0.4,24.23-0.4,36.33,0c2.09,0.07,4.09,2.73,6.13,4.19c-2.06,1.75-3.97,4.75-6.2,5.01C109.73,185.47,103.49,185.01,97.3,185.01
	z"/>
</svg>
