<?xml version="1.0" encoding="utf-8"?>
<!-- Generator: Adobe Illustrator 24.2.1, SVG Export Plug-In . SVG Version: 6.00 Build 0)  -->
<svg version="1.1" id="katman_1" xmlns="http://www.w3.org/2000/svg" xmlns:xlink="http://www.w3.org/1999/xlink" x="0px" y="0px"
	 viewBox="0 0 283.46 283.46" style="enable-background:new 0 0 283.46 283.46;" xml:space="preserve">
<style type="text/css">
	.st0{fill:#FFFFFF;}
</style>
<rect class="st0" width="283.46" height="283.46"/>
<path d="M140.4,32.77c28.57,0.27,52.95,9.28,73.51,27.77c22.62,20.35,34.84,45.97,36.17,76.38c1.28,29.39-7.84,55.46-27.58,77.33
	c-22.83,25.29-51.66,37.37-85.7,36.21c-25.93-0.88-48.81-10.16-68.02-27.58c-25.32-22.95-37.5-51.83-36.18-85.95
	c1.12-29,12.48-53.78,33.45-73.87C87.03,42.95,112.3,33.13,140.4,32.77z M214.29,212.83c10.26-10.54,18.02-22.71,22.96-36.59
	c7.56-21.21,8.18-42.71,1.59-64.24c-7.04-23-20.69-41.32-40.57-54.8c-19.08-12.94-40.29-18.68-63.32-17.23
	c-24.16,1.52-45.16,10.67-62.92,27.06C57.75,80.2,47.99,96.24,42.94,115.02c-5.78,21.48-4.66,42.68,3.31,63.47
	c4.98,12.98,12.44,24.39,22.11,34.35c8.88-24.68,25.92-40.17,51.37-46.47c-5.95-3.36-10.86-7.87-14.75-13.47
	c-3.89-5.6-6.31-11.82-7.28-18.54c-0.96-6.73-0.43-13.36,1.65-19.88c2.09-6.52,5.45-12.3,10.23-17.13
	c9.74-9.84,21.61-14.41,35.45-13.3c12.19,0.98,22.3,6.29,30.12,15.66c8.35,10,11.63,21.65,9.78,34.49
	c-2.05,14.22-9.7,24.85-21.92,32.19C188.37,172.66,205.42,188.15,214.29,212.83z M144.22,243.53c0,0.05,0.01,0.09,0.01,0.14
	c1.66-0.12,3.32-0.19,4.97-0.37c3.07-0.33,6.15-0.68,9.21-1.1c4.39-0.61,8.66-1.75,12.88-3.04c7.38-2.26,14.44-5.29,21.05-9.26
	c3.28-1.97,6.45-4.12,9.58-6.32c2.09-1.47,3.99-3.2,6.02-4.76c0.43-0.33,0.51-0.63,0.38-1.1c-1.35-4.87-3.22-9.52-5.67-13.94
	c-2.23-4.03-4.87-7.78-7.97-11.17c-2.43-2.66-5.02-5.16-7.88-7.38c-3.25-2.52-6.68-4.75-10.34-6.6c-3.4-1.72-6.93-3.14-10.61-4.18
	c-5.22-1.48-10.52-2.42-15.95-2.44c-3.32-0.01-6.64-0.02-9.96,0c-3.34,0.02-6.69-0.02-10.02,0.17c-2.56,0.15-5.12,0.54-7.65,0.98
	c-5.63,0.98-10.96,2.9-16.05,5.46c-5.02,2.53-9.61,5.7-13.75,9.49c-3.52,3.23-6.71,6.78-9.42,10.75c-2.4,3.52-4.48,7.23-6.06,11.19
	c-1.01,2.53-1.8,5.15-2.65,7.75c-0.08,0.25,0.03,0.71,0.23,0.87c1.54,1.32,3.08,2.63,4.69,3.86c4.51,3.46,9.27,6.56,14.3,9.22
	c4.32,2.29,8.77,4.3,13.39,5.93c5.67,2,11.44,3.63,17.4,4.53c3.01,0.45,6.04,0.75,9.07,1.1c0.82,0.09,1.66,0.11,2.49,0.15
	c1.9,0.1,3.81,0.22,5.71,0.26C142.46,243.74,143.34,243.6,144.22,243.53z M141.35,90.79c-20.62,0.08-36.88,16.62-37.14,36.58
	c-0.27,21.01,16.64,37.76,37.39,37.67c10.21-0.05,19.05-3.85,26.19-11.2c7.8-8.03,11.36-17.73,10.53-28.91
	C177,107.12,161.98,90.94,141.35,90.79z"/>
</svg>
