<?xml version="1.0" encoding="utf-8"?>
<!-- Generator: Adobe Illustrator 24.2.1, SVG Export Plug-In . SVG Version: 6.00 Build 0)  -->
<svg version="1.1" id="katman_1" xmlns="http://www.w3.org/2000/svg" xmlns:xlink="http://www.w3.org/1999/xlink" x="0px" y="0px"
	 viewBox="0 0 155.91 155.91" style="enable-background:new 0 0 155.91 155.91;" xml:space="preserve">
<style type="text/css">
	.st0{fill:#D7B46A;}
</style>
<path class="st0" d="M148.82,77.95c0,39.14-31.73,70.87-70.87,70.87S7.09,117.09,7.09,77.95S38.81,7.09,77.95,7.09
	S148.82,38.81,148.82,77.95z M126.75,77.95c0-3.39-1.64-6.56-4.4-8.53L64.53,28.21c-3.64-2.59-8.52-2.59-12.15,0l-0.12,0.09
	c-2.76,1.96-4.4,5.14-4.4,8.53c0,3.39,1.64,6.57,4.4,8.53l45.74,32.59l-45.74,32.59c-2.76,1.97-4.4,5.14-4.4,8.53
	c0,3.39,1.64,6.56,4.4,8.53l0.12,0.09c1.82,1.3,3.95,1.94,6.08,1.94c2.13,0,4.26-0.65,6.08-1.94l57.83-41.21
	C125.11,84.52,126.75,81.34,126.75,77.95C126.75,77.95,126.75,77.95,126.75,77.95C126.75,77.95,126.75,77.95,126.75,77.95z"/>
</svg>
