<?xml version="1.0" encoding="utf-8"?>
<!-- Generator: Adobe Illustrator 24.2.1, SVG Export Plug-In . SVG Version: 6.00 Build 0)  -->
<svg version="1.1" id="katman_1" xmlns="http://www.w3.org/2000/svg" xmlns:xlink="http://www.w3.org/1999/xlink" x="0px" y="0px"
	 viewBox="0 0 283.5 283.5" style="enable-background:new 0 0 283.5 283.5;" xml:space="preserve">
<style type="text/css">
	.st0{fill:#D7B46A;}
</style>
<g>
	<path class="st0" d="M0,126.2c0.6-1.3,1.1-2.7,1.7-3.9c2.8-5.6,7.4-8.8,13.5-9.9c5.6-1,11.2-1.9,16.9-2.8c1.5-0.2,2.3-0.9,2.9-2.4
		c2-5.2,4.1-10.4,6.4-15.6c0.6-1.4,0.4-2.3-0.4-3.5c-3.3-4.5-6.6-9.1-9.8-13.7c-6.1-8.6-5.4-17.3,2-24.7
		c5.3-5.3,10.6-10.6,15.9-15.8c7.6-7.5,16.2-8.1,24.9-1.9c4.3,3.1,8.6,6.1,12.8,9.2c1.5,1.1,2.6,1.3,4.4,0.5c4.7-2.2,9.4-4.2,14.2-6
		c2.1-0.8,2.9-1.9,3.3-4c1-6.3,1.9-12.6,3.3-18.7c1.8-7.7,8.6-12.9,16.5-13c8.3-0.1,16.6,0,24.9,0c9.1,0,16.1,5.8,17.7,14.7
		c1,5.6,1.9,11.2,2.8,16.9c0.3,1.8,1,2.8,2.8,3.5c5.3,1.9,10.4,4.1,15.5,6.4c1.6,0.7,2.7,0.6,4-0.4c4.5-3.3,9.1-6.6,13.7-9.8
		c8.1-5.7,16.8-5,23.8,1.8c5.6,5.5,11.1,11,16.6,16.6c6.9,7,7.6,15.7,1.9,23.8c-3.3,4.7-6.6,9.4-10,13.9c-1,1.3-1,2.3-0.3,3.7
		c2.1,4.8,4.2,9.6,6,14.5c0.8,2.2,1.9,3,4.1,3.3c6.2,1,12.4,1.9,18.5,3.3c7.6,1.7,12.8,8.5,12.9,16.3c0.1,8.4,0,16.8,0,25.2
		c0,9-5.9,16.1-14.8,17.7c-5.7,1-11.4,1.9-17.2,2.8c-1.7,0.3-2.7,0.8-3.4,2.6c-1.9,5.1-4,10.1-6.2,15c-0.7,1.6-0.6,2.6,0.4,4
		c3.3,4.5,6.6,9.1,9.8,13.7c5.7,8.2,5.1,16.9-1.9,24.1c-5.4,5.5-10.9,11-16.4,16.4c-7.2,7-15.9,7.6-24.1,1.8
		c-4.6-3.2-9.2-6.5-13.7-9.8c-1.3-0.9-2.3-1-3.8-0.4c-4.7,2.1-9.4,4.2-14.3,5.9c-2.4,0.8-3.3,2-3.6,4.4c-0.8,5.6-1.7,11.1-2.8,16.6
		c-1.4,7.1-5.7,11.8-12.6,14c-0.4,0.1-0.8,0.4-1.1,0.6c-10.7,0-21.4,0-32.1,0c-0.4-0.2-0.7-0.5-1.2-0.6c-7-2.2-11.2-6.9-12.6-14
		c-1.1-5.6-2-11.2-2.8-16.9c-0.3-2.1-1.1-3.3-3.3-4.1c-4.7-1.6-9.3-3.6-13.8-5.7c-1.7-0.8-2.8-0.6-4.2,0.5c-4.4,3.3-9,6.5-13.5,9.7
		c-8.5,6-17.1,5.3-24.5-1.9c-5.4-5.3-10.7-10.7-16.1-16c-7.3-7.4-7.9-16-1.9-24.5c3.2-4.5,6.5-8.9,9.6-13.5c0.6-0.8,0.8-2.4,0.4-3.4
		c-2.1-5.3-4.3-10.5-6.6-15.8c-0.4-0.8-1.4-1.7-2.2-1.8c-6-1.2-12.1-2.1-18.2-3.3c-7.3-1.4-12-5.6-14.3-12.7
		c-0.1-0.4-0.4-0.8-0.6-1.2C0,147.6,0,136.9,0,126.2z M220.7,240.1c0.7-0.6,1.4-1,2-1.5c5.2-5.2,10.4-10.5,15.7-15.6
		c1.6-1.6,1.4-2.8,0.2-4.5c-4.3-5.9-8.4-11.9-12.7-17.8c-2.7-3.7-2.7-7.2-0.7-11.3c3.4-7.3,6.6-14.8,9.3-22.4
		c1.6-4.5,4.2-6.9,8.8-7.5c7.1-1,14.2-2.3,21.3-3.4c2.2-0.3,3.1-1.3,3-3.6c-0.2-7-0.2-14,0-21c0.1-2.6-0.8-3.6-3.3-4
		c-7.1-1.1-14.2-2.3-21.3-3.4c-4.3-0.7-6.9-3-8.4-7.3c-2.8-7.7-5.9-15.2-9.4-22.6c-2-4.2-2-7.6,0.7-11.3c4.3-5.8,8.3-11.7,12.6-17.5
		c1.4-1.9,1.5-3.2-0.3-5c-5.1-4.9-10.1-10-15.1-15.1c-1.6-1.7-2.8-1.8-4.7-0.4c-5.9,4.4-12,8.6-17.9,13c-3.3,2.5-6.7,2.8-10.3,0.8
		c-7.7-4.4-15.9-7.7-24.4-10c-3.6-1-5.8-3.3-6.5-7.1c-1.2-7.4-2.6-14.9-3.7-22.3c-0.3-2.2-1.1-3.2-3.5-3.2c-7.3,0.1-14.6,0.1-21.9,0
		c-1.9,0-2.8,0.6-3.1,2.6c-1.1,7.3-2.6,14.5-3.7,21.8c-0.7,4.6-3,7.6-7.5,8.8c-7.9,2.1-15.3,5.2-22.3,9.4c-3.9,2.4-7.6,2.1-11.3-0.6
		c-5.9-4.3-11.9-8.4-17.8-12.7c-1.7-1.3-2.9-1.3-4.5,0.3c-5,5.2-10.1,10.2-15.3,15.3c-1.6,1.6-1.9,2.8-0.4,4.7
		c4.4,5.9,8.5,12,12.9,18c2.6,3.6,2.8,7,0.9,11c-3.4,7.4-6.5,15-9.3,22.7c-1.6,4.5-4.2,6.8-8.8,7.5c-7,1-14,2.3-21,3.4
		c-2.3,0.4-3.2,1.4-3.1,3.8c0.2,6.8,0.2,13.7,0,20.5c-0.1,3,1,4,3.8,4.4c7.2,1,14.3,2.5,21.5,3.6c4.2,0.7,6.8,3.1,7.9,7.1
		c2.1,8,5.3,15.5,9.5,22.6c2.4,4.1,2,7.8-0.8,11.5c-4.3,5.8-8.3,11.7-12.6,17.5c-1.3,1.8-1.2,3,0.4,4.5c5.2,5,10.3,10.1,15.3,15.3
		c1.7,1.7,2.9,1.6,4.7,0.3c5.9-4.3,11.9-8.4,17.8-12.7c3.7-2.7,7.2-2.8,11.3-0.9c7.2,3.3,14.5,6.4,21.9,9c4.5,1.6,6.8,4.2,7.5,8.8
		c1,7.1,2.3,14.2,3.4,21.3c0.3,2.2,1.3,3,3.7,3c7-0.2,14-0.2,21,0c2.6,0.1,3.6-1,3.9-3.3c1.1-7.1,2.3-14.2,3.4-21.3
		c0.7-4.3,3-6.8,7.3-8.4c7.7-2.8,15.2-5.9,22.6-9.4c4.1-1.9,7.6-2,11.3,0.8c5.8,4.3,11.7,8.4,17.5,12.5
		C219,239,219.8,239.5,220.7,240.1z"/>
	<path class="st0" d="M138.9,202.8c-34.3-1.4-59.2-30.6-58.4-62.2c0.9-36.3,31.1-61,62.6-60c36.5,1.2,60.7,31.4,59.8,62.6
		C201.8,179.9,170.7,204.7,138.9,202.8z M141.6,96.7c-25.1,0.2-45.1,20.4-44.9,45.3c0.3,25,20.3,44.9,45.2,44.7
		c25-0.1,44.9-20.1,44.9-45C186.8,116.7,166.5,96.5,141.6,96.7z"/>
</g>
</svg>
