<?xml version="1.0" encoding="utf-8"?>
<!-- Generator: Adobe Illustrator 24.2.1, SVG Export Plug-In . SVG Version: 6.00 Build 0)  -->
<svg version="1.1" id="katman_1" xmlns="http://www.w3.org/2000/svg" xmlns:xlink="http://www.w3.org/1999/xlink" x="0px" y="0px"
	 viewBox="0 0 56.69 56.69" style="enable-background:new 0 0 56.69 56.69;" xml:space="preserve">
<style type="text/css">
	.st0{fill:#D7B46A;}
</style>
<path class="st0" d="M28.35,43.39c-5.6,0-11.19,0-16.79,0c-2.1,0-3.74-1.64-3.74-3.74c0-7.54,0-15.08,0-22.62
	c0-2.07,1.65-3.72,3.72-3.72c11.2,0,22.41,0,33.61,0c2.06,0,3.69,1.61,3.73,3.67c0,0.22,0,0.44,0,0.66c0,7.31,0,14.63,0,21.94
	c0,1.88-1.22,3.4-3.02,3.75c-0.23,0.04-0.47,0.06-0.71,0.06C39.55,43.39,33.95,43.39,28.35,43.39z M28.34,31.2
	c6.1-5.06,12.19-10.11,18.29-15.17c-0.39-0.52-0.88-0.78-1.52-0.78c-11.18,0-22.36,0-33.54,0c-0.16,0-0.31,0.01-0.46,0.05
	c-0.44,0.11-0.78,0.35-1.05,0.73C16.16,21.09,22.25,26.14,28.34,31.2z M10.63,41.2c0.32,0.19,0.64,0.25,0.98,0.25
	c11.16,0,22.31,0,33.47,0c0.1,0,0.2,0.01,0.29-0.01c0.23-0.05,0.45-0.12,0.67-0.19c0-0.02,0-0.04,0-0.06
	c-4.46-3.67-8.92-7.35-13.38-11.02c-0.04,0.03-0.07,0.05-0.1,0.07c-0.95,0.78-1.89,1.57-2.84,2.35c-0.25,0.2-0.49,0.41-0.74,0.61
	c-0.4,0.33-0.89,0.33-1.29,0c-1.18-0.97-2.35-1.95-3.52-2.92c-0.05-0.04-0.1-0.08-0.15-0.12C19.56,33.84,15.11,37.51,10.63,41.2z
	 M34.18,28.89c4.25,3.5,8.48,6.99,12.74,10.49c0-7.03,0-14.03,0-21.06C42.66,21.85,38.43,25.37,34.18,28.89z M22.51,28.89
	c-4.25-3.53-8.48-7.04-12.74-10.57c0,7.03,0,14.03,0,21.06C14.03,35.88,18.26,32.39,22.51,28.89z"/>
</svg>
