<?xml version="1.0" encoding="utf-8"?>
<!-- Generator: Adobe Illustrator 24.2.1, SVG Export Plug-In . SVG Version: 6.00 Build 0)  -->
<svg version="1.1" id="katman_1" xmlns="http://www.w3.org/2000/svg" xmlns:xlink="http://www.w3.org/1999/xlink" x="0px" y="0px"
	 viewBox="0 0 56.69 56.69" style="enable-background:new 0 0 56.69 56.69;" xml:space="preserve">
<style type="text/css">
	.st0{fill:#D7B46A;}
</style>
<g>
	<path class="st0" d="M37.82,52.5c-1.26-0.03-2.54-0.25-3.81-0.55c-2.79-0.68-5.35-1.85-7.76-3.4c-1.99-1.29-3.97-2.59-5.82-4.07
		c-3.94-3.16-7.47-6.72-10.36-10.88c-2.09-3.01-3.85-6.19-4.96-9.7c-0.58-1.83-1.04-3.71-0.93-5.64c0.18-3.35,1.27-6.33,3.85-8.62
		c0.82-0.73,1.76-1.27,2.77-1.66c0.41-0.16,0.85-0.23,1.29-0.21c0.71,0.04,1.42,0.11,2.13,0.23c0.88,0.15,1.52,0.62,1.96,1.39
		c0.35,0.6,0.54,1.27,0.76,1.92c0.81,2.33,1.63,4.66,2.43,6.99c0.25,0.73,0.37,1.48,0.17,2.25c-0.11,0.43-0.35,0.79-0.67,1.1
		c-0.93,0.91-1.86,1.83-2.77,2.75c-0.34,0.35-0.56,0.78-0.62,1.27c-0.03,0.26-0.01,0.52,0.11,0.76c0.65,1.35,1.37,2.66,2.22,3.89
		c2.06,2.97,4.57,5.5,7.46,7.66c1.42,1.06,2.93,1.99,4.47,2.87c0.89,0.51,1.77,0.3,2.38-0.23c0.41-0.35,0.79-0.73,1.17-1.11
		c0.46-0.46,0.94-0.91,1.37-1.4c0.89-1.01,2-1.33,3.28-0.92c1.49,0.48,2.96,1,4.44,1.5c1.4,0.48,2.8,0.96,4.2,1.43
		c1.22,0.41,1.95,1.23,2.13,2.52c0.08,0.54,0.14,1.08,0.18,1.63c0.07,1.06-0.24,2.02-0.79,2.92c-1.42,2.32-3.47,3.82-6.03,4.65
		C40.7,52.26,39.3,52.46,37.82,52.5z"/>
	<path class="st0" d="M52.58,33.83c0,0.33,0,0.66,0,0.98c-0.01,0.65-0.53,1.14-1.22,1.14c-0.68,0-1.2-0.5-1.2-1.16
		c-0.01-1.99-0.22-3.96-0.66-5.9c-1.14-5.01-3.5-9.37-7.04-13.08c-4.39-4.59-9.73-7.46-15.95-8.7c-1.93-0.39-3.89-0.56-5.86-0.57
		c-0.85,0-1.43-0.74-1.17-1.51c0.17-0.49,0.66-0.8,1.28-0.79c2.15,0.03,4.29,0.21,6.41,0.64c6.32,1.29,11.83,4.13,16.43,8.67
		c3.88,3.82,6.55,8.36,7.99,13.61C52.12,29.12,52.52,31.79,52.58,33.83z"/>
	<path class="st0" d="M44.87,31c0,0.16,0,0.32,0,0.48c-0.01,0.66-0.54,1.15-1.22,1.15c-0.67-0.01-1.19-0.5-1.2-1.14
		c-0.11-5.79-2.55-10.41-7.13-13.89c-2.9-2.21-6.22-3.38-9.85-3.66c-0.45-0.03-0.91-0.04-1.36-0.05c-0.73-0.02-1.25-0.5-1.25-1.15
		c0-0.65,0.53-1.16,1.24-1.15c2.04,0.01,4.04,0.27,5.99,0.85c5.11,1.52,9.14,4.49,11.96,9.04c1.73,2.79,2.64,5.85,2.8,9.13
		c0.01,0.13,0,0.27,0,0.4C44.87,31,44.87,31,44.87,31z"/>
	<path class="st0" d="M37.55,29.25c0,0.15,0,0.3,0,0.45c-0.01,0.69-0.52,1.19-1.2,1.19c-0.7,0-1.22-0.48-1.23-1.17
		c-0.02-4.4-3.37-7.99-7.65-8.72c-0.54-0.09-1.08-0.14-1.63-0.14c-0.65-0.01-1.17-0.48-1.2-1.09c-0.03-0.62,0.44-1.16,1.12-1.19
		c0.91-0.04,1.81,0.06,2.7,0.27c3.31,0.76,5.88,2.56,7.63,5.49C36.98,25.85,37.45,27.49,37.55,29.25z"/>
</g>
</svg>
