<?xml version="1.0" encoding="utf-8"?>
<!-- Generator: Adobe Illustrator 24.2.1, SVG Export Plug-In . SVG Version: 6.00 Build 0)  -->
<svg version="1.1" id="katman_1" xmlns="http://www.w3.org/2000/svg" xmlns:xlink="http://www.w3.org/1999/xlink" x="0px" y="0px"
	 viewBox="0 0 85 85" style="enable-background:new 0 0 85 85;" xml:space="preserve">
<style type="text/css">
	.st0{fill:#D7B46A;}
</style>
<g>
	<path class="st0" d="M15.8,47.8c0-9.5,0-18.9,0-28.4c0-5.4,3-8.5,8.5-8.5c8.5,0,17,0,25.5,0c5.5,0,8.5,3.1,8.5,8.5c0,19,0,38,0,57
		c0,5.2-3,8.5-8.3,8.5c-8.7,0.1-17.3,0.1-26,0c-5.3-0.1-8.2-3.3-8.3-8.5C15.8,66.9,15.8,57.3,15.8,47.8z M53.1,69.8
		c0-14.8,0-29.2,0-43.7c-10.8,0-21.5,0-32.2,0c0,14.6,0,29.1,0,43.7C31.7,69.8,42.3,69.8,53.1,69.8z M37.1,19.3c1.7,0,3.4,0.1,5,0
		c0.5,0,0.9-0.6,1.3-0.9c-0.4-0.3-0.8-0.9-1.2-0.9c-3.5-0.1-7-0.1-10.5,0c-0.4,0-0.7,0.6-1.1,1c0.4,0.3,0.8,0.8,1.2,0.8
		C33.6,19.4,35.3,19.3,37.1,19.3z M39.8,78.1c0-0.4,0-0.7,0-1.1c-0.9-0.6-1.9-1.8-2.7-1.7c-0.9,0.1-1.7,1.4-2.5,2.2
		c0.8,0.8,1.5,2.2,2.4,2.3C37.9,79.8,38.9,78.7,39.8,78.1z"/>
	<path class="st0" d="M69.1,18.5c-1,0-2,0-3,0C63.8,8.3,60.2,4.8,50.6,3.2c0-1,0-2,0-3C59.6-1.4,70.4,9.1,69.1,18.5z"/>
	<path class="st0" d="M50.6,8.9c0-1.2,0-2.3,0-3.3c7.1-0.3,13.2,5.7,13.2,13c-1.1,0-2.2,0-3.2,0C58.7,11.9,56.6,9.9,50.6,8.9z"/>
</g>
</svg>
