<?xml version="1.0" encoding="utf-8"?>
<!-- Generator: Adobe Illustrator 24.2.1, SVG Export Plug-In . SVG Version: 6.00 Build 0)  -->
<svg version="1.1" id="katman_1" xmlns="http://www.w3.org/2000/svg" xmlns:xlink="http://www.w3.org/1999/xlink" x="0px" y="0px"
	 viewBox="0 0 283.46 283.46" style="enable-background:new 0 0 283.46 283.46;" xml:space="preserve">
<style type="text/css">
	.st0{fill:#D7B46A;}
</style>
<g>
	<path class="st0" d="M247.28,97.17H36.18c-12.16,0-22.01-9.86-22.01-22.01l0,0c0-12.16,9.86-22.01,22.01-22.01h211.1
		c12.16,0,22.01,9.86,22.01,22.01l0,0C269.3,87.32,259.44,97.17,247.28,97.17z"/>
	<path class="st0" d="M247.28,163.75H36.18c-12.16,0-22.01-9.86-22.01-22.01l0,0c0-12.16,9.86-22.01,22.01-22.01h211.1
		c12.16,0,22.01,9.86,22.01,22.01l0,0C269.3,153.89,259.44,163.75,247.28,163.75z"/>
	<path class="st0" d="M247.28,230.31H36.18c-12.16,0-22.01-9.86-22.01-22.01l0,0c0-12.16,9.86-22.01,22.01-22.01h211.1
		c12.16,0,22.01,9.86,22.01,22.01l0,0C269.3,220.46,259.44,230.31,247.28,230.31z"/>
</g>
</svg>
