<?xml version="1.0" encoding="utf-8"?>
<!-- Generator: Adobe Illustrator 24.2.1, SVG Export Plug-In . SVG Version: 6.00 Build 0)  -->
<svg version="1.1" id="katman_1" xmlns="http://www.w3.org/2000/svg" xmlns:xlink="http://www.w3.org/1999/xlink" x="0px" y="0px"
	 viewBox="0 0 283.46 283.46" style="enable-background:new 0 0 283.46 283.46;" xml:space="preserve">
<style type="text/css">
	.st0{fill:#D7B46A;}
</style>
<path class="st0" d="M252.71,69.06L69.06,252.71c-10.58,10.58-27.72,10.58-38.3,0l0,0c-10.58-10.58-10.58-27.72,0-38.3L214.41,30.76
	c10.58-10.58,27.72-10.58,38.3,0l0,0C263.29,41.33,263.29,58.48,252.71,69.06z"/>
<path class="st0" d="M214.41,252.71L30.76,69.06c-10.58-10.58-10.58-27.72,0-38.3l0,0c10.58-10.58,27.72-10.58,38.3,0l183.65,183.65
	c10.58,10.58,10.58,27.72,0,38.3l0,0C242.14,263.28,224.99,263.28,214.41,252.71z"/>
</svg>
