<?xml version="1.0" encoding="utf-8"?>
<!-- Generator: Adobe Illustrator 24.2.1, SVG Export Plug-In . SVG Version: 6.00 Build 0)  -->
<svg version="1.1" id="katman_1" xmlns="http://www.w3.org/2000/svg" xmlns:xlink="http://www.w3.org/1999/xlink" x="0px" y="0px"
	 viewBox="0 0 996.37 737.73" style="enable-background:new 0 0 996.37 737.73;" xml:space="preserve">
<style type="text/css">
	.st0{fill:#D7B46A;}
</style>
<g>
	<path class="st0" d="M76.06,218.24c0-36.31,12.34-66.62,37.01-90.95c25.03-24.32,55.34-36.66,90.95-36.66s65.92,12.34,90.59,36.66
		c25.03,24.32,37.37,54.64,37.37,90.95c0,36.31-12.34,66.98-37.37,91.3c-24.68,24.32-54.99,36.31-90.59,36.31
		s-65.92-11.99-90.95-36.31C88.4,285.22,76.06,254.55,76.06,218.24z M103.21,218.24c0,29.26,9.52,53.93,28.55,73.32
		c19.39,19.39,43.36,28.91,72.26,28.91s52.88-9.52,71.91-28.91c19.04-19.39,28.55-44.06,28.55-73.32s-9.52-53.58-28.55-72.97
		c-19.04-19.39-43.01-29.26-71.91-29.26s-52.88,9.87-72.26,29.26C112.72,164.66,103.21,188.98,103.21,218.24z"/>
	<path class="st0" d="M380.98,340.91V95.22h83.9c20.45,0,37.72,7.05,52.17,21.15c14.45,13.75,21.5,31.37,21.5,52.17
		c0,32.43-18.68,58.87-46.88,69.8l59.22,102.58h-31.37l-55.34-97.29h-0.35h-55.34v97.29H380.98z M408.48,218.24h53.58
		c14.1,0,25.73-4.58,34.9-14.1c9.52-9.52,14.1-21.15,14.1-35.6c0-27.14-20.09-47.94-47.24-47.94h-55.34V218.24z"/>
	<path class="st0" d="M594.6,340.91V95.22h128.31v25.38H622.1v79.31h92v25.38h-92v115.62H594.6z"/>
	<path class="st0" d="M772.97,340.91V95.22h138.89v25.38H800.47v77.9h104.69v25.38H800.47v91.65h113.86v25.38H772.97z"/>
</g>
<g>
	<path class="st0" d="M275.19,420.3v28.98c-19-19.64-42.5-29.62-70.52-29.62c-26.4,0-48.3,9.02-65.69,26.72
		c-17.39,17.71-26.08,39.93-26.08,66.65c0,26.73,8.69,49.26,26.08,66.97c17.39,17.71,39.28,26.4,65.69,26.4
		c28.34,0,51.84-9.98,70.52-29.62v28.98c-18.68,15.78-42.18,23.83-70.52,23.83c-32.52,0-60.21-10.95-83.07-33.17
		c-22.54-22.22-33.81-50.23-33.81-83.4s11.27-60.86,33.81-83.07c22.86-22.22,50.55-33.49,83.07-33.49
		C233.01,396.47,256.52,404.52,275.19,420.3z"/>
	<path class="st0" d="M303.21,625.08L404.63,392.6l101.75,232.48h-27.37l-24.15-55.38H353.76l-24.15,55.38H303.21z M363.74,546.52
		h81.14l-40.57-95.31L363.74,546.52z"/>
	<path class="st0" d="M547.27,625.08V400.65h76.63c18.68,0,34.45,6.44,47.66,19.32c13.2,12.56,19.64,28.66,19.64,47.66
		c0,29.62-17.07,53.77-42.82,63.75l54.09,93.7h-28.66l-50.55-88.87h-0.32h-50.55v88.87H547.27z M572.39,513.03h48.94
		c12.88,0,23.51-4.19,31.88-12.88c8.69-8.69,12.88-19.32,12.88-32.52c0-24.79-18.35-43.79-43.15-43.79h-50.55V513.03z"/>
	<path class="st0" d="M742.39,625.08V400.65h72.13c35.74,0,64.08,10.3,84.68,30.91c20.93,20.61,31.23,47.66,31.23,81.46
		c0,33.81-10.3,60.86-30.91,81.46c-20.61,20.29-48.94,30.59-84.68,30.59H742.39z M767.51,601.9h45.4
		c60.53,0,92.41-34.78,92.41-88.87c0-54.42-31.88-89.19-92.73-89.19h-45.08V601.9z"/>
</g>
<g>
	<path class="st0" d="M254.19,213.52c-0.01,25.84-7.56,46.1-22.43,64.43c-2.98,3.68-6.73,4.5-10.49,2.38
		c-3.65-2.06-4.05-5.33-0.99-9.12c14.87-18.43,21.46-38.83,19.74-61.02c-1.34-17.29-8.18-33.1-19.64-47.51
		c-1.28-1.6-2.28-4.23-1.61-5.85c0.73-1.77,3.3-3.49,5.52-4.18c2.83-0.88,5.58,0.57,7.04,2.78c4.76,7.22,9.9,14.32,13.8,21.87
		C251.65,189.92,254.4,203.31,254.19,213.52z"/>
	<path class="st0" d="M227.84,213.57c-0.37,21.9-6.75,38.66-19.62,53.62c-1.88,2.19-4.26,3.27-7.5,2.72
		c-3.1-0.53-5.22-2.24-5.4-4.74c-0.12-1.75,0.73-3.84,1.94-5.31c7.78-9.47,13.09-19.73,15.24-31.17
		c3.71-19.69-1.47-37.56-14.72-53.93c-1.36-1.68-2.54-3.87-2.52-5.81c0.02-2.44,2.1-4.25,5.2-4.89c3.25-0.67,5.73,0.34,7.6,2.5
		c7.89,9.1,13.76,19.06,16.63,30.08C226.43,203.31,227.22,210.15,227.84,213.57z"/>
	<path class="st0" d="M201.11,215.23c-0.16,16.25-5.41,29.26-16.19,40.63c-3.01,3.17-7.13,3.76-10.47,1.5
		c-3.14-2.13-3.54-5.66-0.61-8.74c10.22-10.78,14.37-23.1,12.96-36.73c-0.97-9.38-5.08-17.84-11.83-25.35
		c-0.59-0.65-1.23-1.27-1.76-1.96c-2.23-2.9-1.6-6.25,1.52-8.18c3.13-1.94,7.14-1.53,9.74,1.15c7.99,8.23,13.17,17.62,15.43,28.09
		C200.69,209.35,200.86,213.16,201.11,215.23z"/>
	<path class="st0" d="M174.5,214.77c0,12.82-4.59,22.04-13.26,29.83c-4.47,4.02-10.92,3.05-12.74-1.81
		c-0.99-2.63,0.51-4.53,2.53-6.31c6.52-5.76,9.86-12.64,9.5-20.6c-0.34-7.37-3.85-13.66-10.01-18.9c-2.51-2.13-3.17-4.63-1.29-7.27
		c1.76-2.47,4.55-3.46,7.82-2.63c1.53,0.39,3.06,1.28,4.18,2.27C169.84,197.03,174.38,206.16,174.5,214.77z"/>
</g>
</svg>
