<?xml version="1.0" encoding="utf-8"?>
<!-- Generator: Adobe Illustrator 24.2.1, SVG Export Plug-In . SVG Version: 6.00 Build 0)  -->
<svg version="1.1" id="katman_1" xmlns="http://www.w3.org/2000/svg" xmlns:xlink="http://www.w3.org/1999/xlink" x="0px" y="0px"
	 viewBox="0 0 80 80" style="enable-background:new 0 0 80 80;" xml:space="preserve">
<style type="text/css">
	.st0{fill:#FDFDFD;}
	.st1{fill:#F39A7E;}
	.st2{fill:#1A3866;}
	.st3{fill:#8E2F34;}
	.st4{fill:#BC582C;}
	.st5{fill:#003F2A;}
	.st6{fill-rule:evenodd;clip-rule:evenodd;fill:#E9464C;}
	.st7{fill-rule:evenodd;clip-rule:evenodd;fill:#CA202D;}
	.st8{fill-rule:evenodd;clip-rule:evenodd;fill:#F6B1B3;}
	.st9{fill-rule:evenodd;clip-rule:evenodd;fill:#F09A50;}
	.st10{fill-rule:evenodd;clip-rule:evenodd;fill:#B66D2D;}
	.st11{fill-rule:evenodd;clip-rule:evenodd;fill:#F6D5B3;}
	.st12{fill-rule:evenodd;clip-rule:evenodd;fill:#7BBD48;}
	.st13{fill-rule:evenodd;clip-rule:evenodd;fill:#55B54B;}
	.st14{fill-rule:evenodd;clip-rule:evenodd;fill:#BEDDB3;}
	.st15{fill-rule:evenodd;clip-rule:evenodd;fill:#4A76B6;}
	.st16{fill-rule:evenodd;clip-rule:evenodd;fill:#1E59A2;}
	.st17{fill-rule:evenodd;clip-rule:evenodd;fill:#B0C6E5;}
	.st18{fill:#09478E;}
</style>
<g>
	<circle class="st0" cx="40" cy="40" r="39.5"/>
</g>
<g>
	<g>
		<path class="st1" d="M16.1,40.2c1-0.4,2.1-0.6,3.2-0.7l0,0l0.3,0c0,0-1.1,5-4.1,7.4c-3,2.4-6.1-0.1-4.8-2.9
			C11.6,42.1,13.8,40.9,16.1,40.2z M19.3,38.9L19.3,38.9c-1.2,0-2.2-0.1-3.3-0.3c-2.4-0.4-4.7-1.3-5.8-3c-1.6-2.6,1.2-5.5,4.5-3.5
			c3.3,2,4.9,6.8,4.9,6.8L19.3,38.9L19.3,38.9z M23.9,38.5c-1.1,0.3-2.1,0.4-3.3,0.5l0,0l-0.3,0c0,0,1.4-4.9,4.6-7.1
			c3.2-2.2,6.1,0.6,4.6,3.2C28.6,37,26.2,37.9,23.9,38.5z M22.8,41.7L22.8,41.7c1.2,0.1,2.2,0.3,3.3,0.6c2.3,0.6,4.6,1.6,5.6,3.4
			c1.4,2.7-1.6,5.4-4.7,3.1c-3.1-2.2-4.4-7.1-4.4-7.1L22.8,41.7L22.8,41.7z"/>
		<path class="st2" d="M22.5,41.4L22.5,41.4c1.2,0.1,2.2,0.3,3.3,0.6c2.3,0.6,4.6,1.6,5.6,3.4c1.4,2.7-1.6,5.4-4.7,3.1
			c-3.1-2.2-4.4-7.1-4.4-7.1L22.5,41.4L22.5,41.4z"/>
		<path class="st3" d="M15.8,40.1c1-0.4,2.1-0.6,3.2-0.7l0,0l0.3,0c0,0-1.1,5-4.1,7.4c-3,2.4-6.1-0.1-4.8-2.9
			C11.3,42,13.6,40.8,15.8,40.1z"/>
		<path class="st4" d="M19.1,38.6L19.1,38.6c-1.2,0-2.2-0.1-3.3-0.3c-2.4-0.4-4.7-1.3-5.8-3c-1.6-2.6,1.2-5.5,4.5-3.5
			c3.3,2,4.9,6.8,4.9,6.8L19.1,38.6L19.1,38.6z"/>
		<path class="st5" d="M23.7,38.2c-1.1,0.3-2.1,0.4-3.3,0.5h0l-0.3,0c0,0,1.4-4.9,4.6-7.1c3.2-2.2,6.1,0.6,4.6,3.2
			C28.3,36.7,26,37.7,23.7,38.2z"/>
		<path class="st6" d="M19.4,39c0,0-1.1,5-4.1,7.4c-3,2.4-6.1-0.1-4.8-2.9c1.3-2.8,5.6-4,8.7-4.4L19.4,39z"/>
		<path class="st7" d="M15.5,40c-2.6,0.8-4.4,2.1-5.1,3.9c-1,2.5,2.2,4.5,4.3,2.6c0.7-0.6-3.7-1.1-2.5-3.4
			C12.8,41.9,14.1,40.7,15.5,40z"/>
		<path class="st8" d="M19.3,39l-0.3,0c-1.9,0.3-3.7,0.7-5.5,1.8c1.8-0.8,4-1.3,4.8-1.1c0.3,0.1,0.5,0.4,0.4,1.3
			C19.1,39.8,19.3,39,19.3,39z"/>
		<path class="st9" d="M19.3,38.4c0,0-1.7-4.8-4.9-6.8c-3.3-2-6.1,0.9-4.5,3.5c1.6,2.6,6.1,3.2,9.1,3.4L19.3,38.4z"/>
		<path class="st10" d="M15.4,37.8c-2.7-0.4-4.6-1.6-5.5-3.2c-1.3-2.4,1.6-4.7,4-3.1c0.8,0.5-3.6,1.5-2.1,3.7
			C12.5,36.3,13.9,37.3,15.4,37.8z"/>
		<path class="st11" d="M19.3,38.4l-0.3,0c-2-0.1-3.7-0.2-5.7-1.1c1.8,0.6,4.1,0.8,4.9,0.5c0.3-0.1,0.4-0.5,0.2-1.4
			C19,37.5,19.3,38.4,19.3,38.4z"/>
		<path class="st12" d="M20.1,38.5c0,0,1.4-4.9,4.6-7.1c3.2-2.2,6.1,0.6,4.6,3.2c-1.5,2.7-5.9,3.6-8.9,3.8L20.1,38.5z"/>
		<path class="st13" d="M24,37.8c2.6-0.6,4.5-1.8,5.3-3.5c1.2-2.4-1.8-4.6-4.1-2.9c-0.8,0.6,3.6,1.3,2.3,3.6
			C26.8,36,25.5,37.2,24,37.8z"/>
		<path class="st14" d="M20.1,38.5l0.3,0c2-0.2,3.7-0.4,5.6-1.4c-1.8,0.7-4.1,1-4.8,0.8c-0.3-0.1-0.5-0.5-0.3-1.3
			C20.4,37.7,20.1,38.5,20.1,38.5z"/>
		<path class="st15" d="M22.2,41c0,0,1.3,4.9,4.4,7.1c3.1,2.2,6.1-0.5,4.7-3.1c-1.4-2.7-5.8-3.7-8.9-4L22.2,41z"/>
		<path class="st16" d="M26.2,41.9c2.6,0.6,4.5,1.9,5.3,3.6c1.1,2.4-1.9,4.6-4.2,2.8c-0.7-0.6,3.7-1.3,2.3-3.5
			C28.9,43.6,27.6,42.5,26.2,41.9z"/>
		<path class="st17" d="M22.3,41l0.3,0c2,0.2,3.7,0.5,5.6,1.5c-1.8-0.7-4-1.1-4.8-0.9c-0.3,0.1-0.5,0.5-0.3,1.3
			C22.5,41.9,22.3,41,22.3,41z"/>
	</g>
	<path class="st18" d="M40,32.4c-0.1-0.2-0.3-0.3-0.5-0.4c-0.2-0.1-0.4-0.2-0.6-0.3c-0.2-0.1-0.4-0.1-0.7-0.2c-0.2,0-0.4,0-0.6,0
		c-0.4,0-0.8,0.1-1.1,0.2c-0.3,0.1-0.6,0.3-0.9,0.6c-0.2,0.2-0.4,0.5-0.6,0.9c-0.1,0.3-0.2,0.7-0.2,1.2c0,0.5,0.1,1,0.2,1.3
		c0.1,0.4,0.3,0.7,0.6,1c0.2,0.3,0.5,0.5,0.9,0.6c0.3,0.1,0.7,0.2,1.1,0.2c0.2,0,0.4,0,0.7-0.1c0.2,0,0.4-0.1,0.6-0.2
		c0.2-0.1,0.4-0.2,0.6-0.3c0.2-0.1,0.3-0.2,0.4-0.3H40v0.6c0,0.3-0.1,0.6-0.2,0.8c-0.2,0.2-0.4,0.4-0.6,0.5
		c-0.2,0.1-0.5,0.2-0.8,0.3c-0.3,0.1-0.6,0.1-0.9,0.1c-0.6,0-1.1-0.1-1.6-0.3c-0.5-0.2-1-0.5-1.4-0.9c-0.4-0.4-0.7-0.8-0.9-1.4
		c-0.2-0.5-0.3-1.1-0.3-1.8c0-0.7,0.1-1.3,0.3-1.8c0.2-0.6,0.5-1,0.9-1.4c0.4-0.4,0.9-0.7,1.4-0.9c0.5-0.2,1.2-0.3,1.8-0.3
		c0.4,0,0.7,0,1,0.1c0.3,0.1,0.6,0.2,0.8,0.3c0.2,0.1,0.4,0.3,0.5,0.6c0.1,0.2,0.2,0.5,0.2,0.8L40,32.4L40,32.4z M44.2,37.8
		c0,0.4-0.1,0.6-0.2,0.8c-0.2,0.2-0.4,0.2-0.8,0.2c-0.7,0-1.2-0.2-1.5-0.6c-0.4-0.4-0.5-0.9-0.5-1.6V32h0.5c0.4,0,0.7,0.1,0.9,0.3
		c0.2,0.2,0.3,0.5,0.3,1v3.2c0,0.3,0.1,0.6,0.2,0.7c0.2,0.1,0.4,0.2,0.8,0.2h0.3V37.8z M42.9,30.4c0,0.3-0.1,0.5-0.3,0.7
		c-0.2,0.2-0.4,0.3-0.7,0.3c-0.3,0-0.5-0.1-0.7-0.3C41,30.9,41,30.7,41,30.4c0-0.3,0.1-0.5,0.3-0.7c0.2-0.2,0.4-0.3,0.7-0.3
		c0.3,0,0.5,0.1,0.7,0.3C42.8,29.9,42.9,30.1,42.9,30.4z M50.2,34.1c-0.1-0.2-0.3-0.4-0.6-0.5c-0.3-0.1-0.7-0.2-1.2-0.2
		c-0.2,0-0.5,0-0.7,0.1c-0.2,0.1-0.4,0.2-0.6,0.4c-0.2,0.2-0.3,0.4-0.4,0.6c-0.1,0.2-0.2,0.5-0.2,0.7c0,0.6,0.2,1.1,0.5,1.5
		c0.3,0.4,0.8,0.6,1.4,0.6c0.5,0,0.9-0.1,1.2-0.2c0.3-0.1,0.5-0.3,0.6-0.4h0.1v0.8c0,0.4-0.2,0.8-0.6,1c-0.4,0.3-0.9,0.4-1.5,0.4
		c-0.5,0-0.9-0.1-1.3-0.3c-0.4-0.2-0.8-0.4-1.1-0.7c-0.3-0.3-0.6-0.7-0.8-1.1c-0.2-0.4-0.3-0.9-0.3-1.4c0-0.5,0.1-1,0.2-1.4
		c0.2-0.4,0.4-0.8,0.7-1.2c0.3-0.3,0.7-0.6,1.2-0.8c0.5-0.2,1-0.3,1.6-0.3c0.3,0,0.5,0,0.7,0.1c0.2,0.1,0.4,0.2,0.6,0.3
		c0.2,0.1,0.3,0.3,0.4,0.5c0.1,0.2,0.1,0.4,0.1,0.6L50.2,34.1L50.2,34.1z M57.1,34.4c0,0.6-0.3,1.1-0.8,1.3
		c-0.5,0.2-1.3,0.4-2.5,0.4h-1.1c0.1,0.4,0.3,0.8,0.6,1c0.4,0.3,0.8,0.4,1.3,0.4c0.4,0,0.7,0,1.1-0.1c0.4-0.1,0.7-0.3,1-0.5h0.1v0.5
		c0,0.2,0,0.4-0.1,0.6c-0.1,0.2-0.2,0.3-0.4,0.5c-0.2,0.1-0.5,0.2-0.8,0.3c-0.3,0.1-0.7,0.1-1.2,0.1c-0.4,0-0.8-0.1-1.2-0.2
		c-0.4-0.2-0.8-0.4-1.1-0.7c-0.3-0.3-0.6-0.7-0.8-1.1C51.1,36.5,51,36,51,35.5c0-0.6,0.1-1.1,0.2-1.5c0.2-0.5,0.4-0.9,0.7-1.2
		c0.3-0.3,0.6-0.6,1.1-0.7c0.4-0.2,0.9-0.3,1.4-0.3c0.4,0,0.7,0.1,1,0.2c0.3,0.1,0.6,0.3,0.9,0.5c0.3,0.2,0.5,0.5,0.6,0.8
		C57,33.6,57.1,34,57.1,34.4z M55.5,34.2c0-0.4-0.1-0.6-0.3-0.8c-0.2-0.2-0.5-0.3-0.9-0.3c-0.2,0-0.4,0-0.6,0.1
		c-0.2,0.1-0.3,0.2-0.5,0.3c-0.1,0.1-0.2,0.3-0.3,0.5c-0.1,0.2-0.1,0.4-0.1,0.6l0,0.2h0.8c0.4,0,0.7,0,1,0c0.3,0,0.5-0.1,0.6-0.1
		c0.1-0.1,0.2-0.1,0.3-0.2C55.5,34.4,55.5,34.3,55.5,34.2z M58.9,29.6c0.4,0,0.7,0.1,0.9,0.3c0.2,0.2,0.3,0.5,0.3,0.8v4.1
		c0.3-0.4,0.7-0.9,1-1.3c0.3-0.4,0.7-0.8,1.1-1.2c0.2-0.2,0.4-0.3,0.6-0.4c0.2-0.1,0.5-0.1,0.7-0.1h1V32c-0.1,0.1-0.3,0.3-0.5,0.5
		c-0.2,0.3-0.5,0.5-0.8,0.8c-0.3,0.3-0.5,0.6-0.8,0.9c-0.3,0.3-0.5,0.6-0.7,0.8c0.3,0.3,0.5,0.7,0.8,1c0.3,0.3,0.6,0.7,0.9,1
		c0.2,0.2,0.3,0.3,0.4,0.4c0.1,0.1,0.2,0.2,0.3,0.2c0.1,0.1,0.2,0.1,0.3,0.2c0.1,0,0.2,0.1,0.3,0.1c-0.1,0.3-0.2,0.5-0.4,0.6
		c-0.2,0.1-0.4,0.2-0.8,0.2c-0.2,0-0.4,0-0.6-0.1c-0.2-0.1-0.4-0.2-0.5-0.3c-0.4-0.5-0.9-0.9-1.2-1.4c-0.4-0.5-0.8-1-1.2-1.5v3.3
		l-0.5,0c-0.8,0-1.2-0.4-1.2-1.2v-7.9H58.9z"/>
	<path class="st18" d="M69.3,41.4c0,0.3-0.1,0.5-0.3,0.7c-0.2,0.2-0.4,0.3-0.7,0.3c-0.3,0-0.5-0.1-0.7-0.3c-0.2-0.2-0.3-0.4-0.3-0.7
		c0-0.3,0.1-0.5,0.3-0.7c0.2-0.2,0.4-0.3,0.7-0.3c0.3,0,0.5,0.1,0.7,0.3C69.2,40.9,69.3,41.1,69.3,41.4z M70.5,48.8
		c0,0.4-0.1,0.6-0.2,0.8c-0.2,0.2-0.4,0.2-0.8,0.2c-0.7,0-1.2-0.2-1.5-0.6c-0.4-0.4-0.5-0.9-0.5-1.6V43h0.5c0.4,0,0.7,0.1,0.9,0.3
		c0.2,0.2,0.3,0.5,0.3,1v3.2c0,0.3,0.1,0.6,0.2,0.7c0.2,0.1,0.4,0.2,0.8,0.2h0.3V48.8z M39.2,47c0,0.4-0.1,0.8-0.2,1.2
		c-0.1,0.3-0.4,0.6-0.6,0.9c-0.3,0.3-0.6,0.4-1,0.6c-0.4,0.1-0.9,0.2-1.4,0.2c-0.9,0-1.5-0.2-2-0.5c-0.4-0.3-0.7-0.7-0.7-1.2v-0.8h0
		c0.3,0.3,0.6,0.5,1,0.7c0.4,0.2,0.9,0.3,1.4,0.3c0.7,0,1.1-0.1,1.4-0.3c0.3-0.2,0.4-0.5,0.4-0.8c0-0.2,0-0.3-0.1-0.4
		c0-0.1-0.1-0.2-0.3-0.3c-0.1-0.1-0.4-0.2-0.6-0.3c-0.3-0.1-0.6-0.2-1.1-0.3c-0.7-0.2-1.3-0.4-1.7-0.8c-0.4-0.4-0.6-0.8-0.6-1.4
		c0-0.4,0.1-0.7,0.2-1.1c0.1-0.3,0.4-0.6,0.6-0.9c0.3-0.3,0.6-0.5,1-0.6c0.4-0.2,0.9-0.2,1.4-0.2c0.5,0,0.9,0,1.3,0.1
		c0.3,0.1,0.6,0.2,0.8,0.4c0.2,0.2,0.3,0.3,0.4,0.5c0.1,0.2,0.1,0.4,0.1,0.6v0.8h-0.1c-0.5-0.6-1.3-0.9-2.3-0.9
		c-0.7,0-1.2,0.1-1.4,0.3c-0.3,0.2-0.4,0.5-0.4,0.8c0,0.1,0,0.2,0.1,0.4c0.1,0.1,0.2,0.2,0.3,0.3c0.2,0.1,0.4,0.2,0.6,0.3
		c0.3,0.1,0.6,0.2,1,0.3c0.8,0.2,1.4,0.5,1.8,0.9C39,46,39.2,46.4,39.2,47z M46.3,45.4c0,0.6-0.3,1.1-0.8,1.3
		C45,46.9,44.2,47,43.1,47H42c0.1,0.4,0.3,0.8,0.6,1c0.4,0.3,0.8,0.4,1.3,0.4c0.4,0,0.7,0,1.1-0.1c0.4-0.1,0.7-0.3,1-0.5H46v0.5
		c0,0.2,0,0.4-0.1,0.6c-0.1,0.2-0.2,0.3-0.4,0.5c-0.2,0.1-0.5,0.2-0.8,0.3c-0.3,0.1-0.7,0.1-1.2,0.1c-0.4,0-0.8-0.1-1.2-0.2
		c-0.4-0.2-0.8-0.4-1.1-0.7c-0.3-0.3-0.6-0.7-0.8-1.1c-0.2-0.4-0.3-0.9-0.3-1.4c0-0.6,0.1-1.1,0.2-1.5c0.2-0.5,0.4-0.9,0.7-1.2
		c0.3-0.3,0.6-0.6,1.1-0.7c0.4-0.2,0.9-0.3,1.4-0.3c0.4,0,0.7,0.1,1,0.2c0.3,0.1,0.6,0.3,0.9,0.5c0.3,0.2,0.5,0.5,0.6,0.8
		C46.2,44.6,46.3,45,46.3,45.4z M44.7,45.2c0-0.4-0.1-0.6-0.3-0.8c-0.2-0.2-0.5-0.3-0.9-0.3c-0.2,0-0.4,0-0.6,0.1
		c-0.2,0.1-0.3,0.2-0.5,0.3c-0.1,0.1-0.2,0.3-0.3,0.5C42,45.2,42,45.4,42,45.6l0,0.2h0.8c0.4,0,0.7,0,1,0c0.3,0,0.5-0.1,0.6-0.1
		c0.1-0.1,0.3-0.1,0.3-0.2C44.7,45.4,44.7,45.3,44.7,45.2z M54,46.1c0,0.6-0.1,1.1-0.2,1.5c-0.1,0.5-0.3,0.9-0.6,1.2
		c-0.3,0.3-0.6,0.6-1,0.8c-0.4,0.2-0.8,0.3-1.3,0.3c-0.4,0-0.7-0.1-1-0.3c-0.3-0.2-0.5-0.4-0.7-0.7v3h-0.5c-0.2,0-0.3,0-0.4-0.1
		c-0.1-0.1-0.3-0.1-0.4-0.2c-0.1-0.1-0.2-0.2-0.3-0.4c-0.1-0.1-0.1-0.3-0.1-0.5v-4.1c0-0.6,0.1-1.1,0.2-1.6c0.1-0.5,0.3-0.9,0.6-1.2
		c0.3-0.3,0.6-0.6,1.1-0.8c0.4-0.2,0.9-0.3,1.5-0.3c0.5,0,0.9,0.1,1.3,0.3c0.4,0.2,0.7,0.4,1,0.8c0.3,0.3,0.5,0.7,0.6,1.1
		C53.9,45.2,54,45.7,54,46.1z M52.3,46.5c0-0.8-0.1-1.4-0.4-1.8c-0.3-0.4-0.7-0.5-1.2-0.5c-0.5,0-0.8,0.2-1.1,0.6
		c-0.2,0.4-0.4,0.8-0.4,1.4c0,0.7,0.2,1.2,0.5,1.6c0.3,0.4,0.7,0.6,1.2,0.6c0.4,0,0.7-0.2,1-0.5C52.2,47.5,52.3,47.1,52.3,46.5z
		 M61,45.4c0,0.6-0.3,1.1-0.8,1.3c-0.5,0.2-1.3,0.4-2.5,0.4h-1.1c0.1,0.4,0.3,0.8,0.6,1c0.4,0.3,0.8,0.4,1.3,0.4
		c0.4,0,0.7,0,1.1-0.1c0.4-0.1,0.7-0.3,1-0.5h0.1v0.5c0,0.2,0,0.4-0.1,0.6c-0.1,0.2-0.2,0.3-0.4,0.5c-0.2,0.1-0.5,0.2-0.8,0.3
		c-0.3,0.1-0.7,0.1-1.2,0.1c-0.4,0-0.8-0.1-1.2-0.2c-0.4-0.2-0.8-0.4-1.1-0.7c-0.3-0.3-0.6-0.7-0.8-1.1c-0.2-0.4-0.3-0.9-0.3-1.4
		c0-0.6,0.1-1.1,0.2-1.5c0.2-0.5,0.4-0.9,0.7-1.2c0.3-0.3,0.6-0.6,1.1-0.7c0.4-0.2,0.9-0.3,1.4-0.3c0.4,0,0.7,0.1,1,0.2
		c0.3,0.1,0.6,0.3,0.9,0.5c0.3,0.2,0.5,0.5,0.6,0.8C60.9,44.6,61,45,61,45.4z M59.4,45.2c0-0.4-0.1-0.6-0.3-0.8
		c-0.2-0.2-0.5-0.3-0.9-0.3c-0.2,0-0.4,0-0.6,0.1c-0.2,0.1-0.3,0.2-0.5,0.3c-0.1,0.1-0.2,0.3-0.3,0.5c-0.1,0.2-0.1,0.4-0.1,0.6
		l0,0.2h0.8c0.4,0,0.7,0,1,0c0.3,0,0.5-0.1,0.6-0.1c0.1-0.1,0.2-0.1,0.3-0.2C59.4,45.4,59.4,45.3,59.4,45.2z M62.3,43.1
		c0-0.2,0-0.3,0-0.4c0-0.1,0-0.2,0.1-0.3c0-0.1,0.1-0.2,0.2-0.3c0.1-0.1,0.1-0.2,0.2-0.3c0.1-0.1,0.2-0.2,0.4-0.3
		c0.1-0.1,0.3-0.1,0.4-0.1H64v1.6h2.4v0.7c0,0.2-0.1,0.4-0.2,0.5c-0.2,0.2-0.4,0.3-0.8,0.3H64v2.7c0,0.4,0.1,0.8,0.3,1
		c0.2,0.2,0.5,0.3,0.8,0.3c0.6,0,1-0.1,1.2-0.2h0.1v0.6c0,0.4-0.1,0.6-0.4,0.8c-0.3,0.2-0.6,0.3-1.1,0.3c-0.9,0-1.5-0.2-1.9-0.7
		c-0.4-0.4-0.6-1.1-0.6-1.9V43.1z"/>
</g>
</svg>
