<?xml version="1.0" encoding="utf-8"?>
<!-- Generator: Adobe Illustrator 24.2.1, SVG Export Plug-In . SVG Version: 6.00 Build 0)  -->
<svg version="1.1" id="katman_1" xmlns="http://www.w3.org/2000/svg" xmlns:xlink="http://www.w3.org/1999/xlink" x="0px" y="0px"
	 viewBox="0 0 80 80" style="enable-background:new 0 0 80 80;" xml:space="preserve">
<style type="text/css">
	.st0{fill:#FFFFFF;}
	.st1{fill:#8DC63F;}
</style>
<g>
	<circle class="st0" cx="40" cy="40" r="39.5"/>
</g>
<g>
	<g>
		<g>
			<path class="st1" d="M12.34,36.34c0,0.02,0,0.02,0.02,0.04s0.02,0.02,0.02,0.02s0,0.02,0.02,0.02c0.1,0.19,0.21,0.4,0.29,0.63
				s0.13,0.54,0.13,0.96c0,0.92-0.29,1.63-0.85,2.1c-0.56,0.48-1.19,0.75-1.85,0.85C10.02,40.98,9.91,41,9.81,41s-0.19,0-0.29,0
				c-0.15,0-0.27,0-0.4-0.02c-0.13-0.02-0.25-0.02-0.35-0.06c-0.06,0-0.1,0-0.15-0.02c-0.04,0-0.08-0.02-0.13-0.02
				c-0.13,0.15-0.21,0.25-0.29,0.35s-0.15,0.19-0.17,0.29c-0.02,0.04-0.02,0.06-0.02,0.1s0,0.08,0,0.1c0,0.25,0.15,0.4,0.44,0.48
				c0.29,0.06,0.71,0.13,1.29,0.15l1.58,0.06c0.17,0.02,0.35,0.04,0.6,0.06c0.23,0.02,0.48,0.08,0.75,0.15
				c0.42,0.13,0.81,0.35,1.15,0.65c0.35,0.31,0.52,0.77,0.52,1.38c0,0.21-0.04,0.42-0.1,0.67s-0.19,0.5-0.33,0.75
				c-0.31,0.54-0.85,1.02-1.63,1.48c-0.77,0.46-1.83,0.67-3.23,0.67c-0.08,0-0.19,0-0.27,0c-0.08,0-0.19,0-0.29,0
				c-0.71-0.06-1.35-0.23-1.96-0.54c-0.63-0.29-0.92-0.79-0.92-1.48c0-0.42,0.13-0.77,0.38-1.08s0.52-0.58,0.81-0.81
				c0.08-0.06,0.17-0.1,0.23-0.17c0.08-0.04,0.15-0.08,0.21-0.13c-0.06-0.02-0.15-0.04-0.23-0.08c-0.08-0.02-0.17-0.06-0.25-0.1
				c-0.19-0.08-0.35-0.23-0.52-0.4c-0.17-0.17-0.23-0.42-0.23-0.71c0-0.02,0-0.04,0-0.06s0-0.04,0-0.06
				c0.04-0.27,0.19-0.56,0.4-0.83S6.87,41.23,7.12,41c0.08-0.06,0.17-0.15,0.25-0.21c0.08-0.06,0.17-0.13,0.23-0.19
				c-0.13-0.08-0.25-0.17-0.4-0.25C7.07,40.27,6.93,40.14,6.78,40c-0.06-0.08-0.15-0.17-0.21-0.27c-0.06-0.1-0.13-0.21-0.21-0.33
				c-0.04-0.08-0.06-0.17-0.1-0.25S6.2,38.98,6.18,38.9c-0.06-0.17-0.1-0.35-0.13-0.52s-0.04-0.33-0.04-0.5
				c0-0.85,0.29-1.58,0.88-2.19c0.58-0.58,1.4-0.88,2.46-0.88c0.27,0,0.52,0.02,0.73,0.06s0.38,0.08,0.52,0.13
				c0.06,0.02,0.13,0.04,0.17,0.06s0.08,0.04,0.15,0.04c0.1,0.04,0.21,0.06,0.29,0.1c0.08,0.02,0.17,0.06,0.25,0.08
				s0.17,0.02,0.23,0.04c0.08,0.02,0.17,0.02,0.25,0.02c0.06,0,0.17-0.02,0.33-0.04c0.17-0.02,0.31-0.06,0.48-0.08
				c0.02,0,0.04,0,0.06,0s0.02,0,0.06,0c0.19-0.04,0.35-0.06,0.5-0.1c0.15-0.02,0.23-0.04,0.25-0.04h0.02h0.02
				c0.04,0,0.08,0.02,0.1,0.04s0.04,0.04,0.04,0.06s0,0.04,0.02,0.1c0.02,0.06,0.04,0.1,0.04,0.19v0.04
				c0.02,0.06,0.04,0.15,0.06,0.21c0.02,0.06,0.02,0.1,0.02,0.1c0,0.04-0.02,0.08-0.04,0.1c-0.02,0.02-0.08,0.06-0.13,0.08
				c-0.02,0-0.02,0-0.04,0s-0.04,0-0.04,0L12.34,36.34z M8.26,44.28L8.26,44.28c-0.08,0.06-0.19,0.15-0.27,0.23
				s-0.15,0.17-0.21,0.25c-0.08,0.13-0.17,0.23-0.21,0.38c-0.06,0.13-0.08,0.27-0.08,0.42c0,0.46,0.23,0.79,0.67,1.02
				s0.98,0.33,1.6,0.33c0.04,0,0.1,0,0.15,0c0.06,0,0.1,0,0.17-0.02c0.56-0.04,1.1-0.21,1.56-0.48c0.48-0.27,0.71-0.63,0.71-1.04
				c0-0.25-0.06-0.44-0.21-0.54c-0.15-0.13-0.29-0.21-0.46-0.27c-0.1-0.04-0.21-0.06-0.29-0.06c-0.06-0.04-0.15-0.06-0.21-0.06
				c-0.06-0.02-0.19-0.02-0.33-0.02c-0.15,0-0.31-0.02-0.5-0.02c-0.1-0.02-0.21-0.02-0.31-0.02s-0.21,0-0.31,0
				c-0.31-0.02-0.58-0.02-0.88-0.04C8.57,44.28,8.36,44.28,8.26,44.28L8.26,44.28z M10.28,36.36c-0.27-0.29-0.58-0.44-0.96-0.44
				c-0.33,0-0.65,0.13-0.94,0.38s-0.44,0.67-0.44,1.21c0,0.63,0.17,1.13,0.48,1.54c0.31,0.42,0.69,0.63,1.13,0.63
				s0.77-0.15,0.98-0.46s0.31-0.69,0.31-1.1c0-0.06,0-0.1,0-0.17c0-0.04,0-0.1-0.02-0.17c0-0.04,0-0.1,0-0.15
				c0-0.06-0.02-0.1-0.02-0.15C10.72,37.03,10.55,36.65,10.28,36.36z"/>
			<path class="st1" d="M16.93,43.7c-0.02,0.15-0.04,0.23-0.08,0.29c-0.04,0.06-0.15,0.08-0.29,0.08h-1.44
				c-0.15,0-0.25-0.02-0.31-0.06s-0.08-0.15-0.08-0.29V36.4c0-0.27,0.02-0.48,0.08-0.6c0.06-0.15,0.21-0.27,0.42-0.38
				c0.31-0.17,0.75-0.31,1.31-0.44c0.58-0.13,1.21-0.19,1.88-0.19c0.54,0,1.04,0.08,1.46,0.27s0.65,0.52,0.65,1.04
				c0,0.25-0.08,0.48-0.25,0.67s-0.4,0.27-0.67,0.27c-0.17,0-0.31-0.04-0.42-0.1c-0.1-0.06-0.21-0.17-0.27-0.27
				c-0.04-0.04-0.06-0.08-0.1-0.15c-0.02-0.04-0.06-0.08-0.1-0.15c-0.02-0.02-0.02-0.04-0.04-0.06s-0.04-0.04-0.06-0.06
				c-0.06-0.08-0.17-0.17-0.27-0.23c-0.13-0.08-0.27-0.1-0.48-0.1c-0.35,0-0.58,0.08-0.71,0.23c-0.13,0.15-0.19,0.31-0.21,0.5
				c-0.02,0.06-0.02,0.1-0.02,0.17s0,0.1,0,0.15L16.93,43.7L16.93,43.7z"/>
			<path class="st1" d="M28.39,41.91c0,0.38-0.02,0.71-0.08,0.98s-0.25,0.5-0.6,0.75c-0.04,0.02-0.1,0.04-0.15,0.08
				c-0.06,0.02-0.1,0.06-0.19,0.1c-0.27,0.13-0.65,0.25-1.1,0.33c-0.46,0.1-0.98,0.15-1.58,0.15c-1.23,0-2.1-0.19-2.58-0.58
				c-0.48-0.38-0.79-0.81-0.9-1.27c-0.04-0.17-0.08-0.33-0.08-0.5c-0.02-0.17-0.02-0.33-0.02-0.48v-6.13c0-0.15,0.04-0.23,0.1-0.27
				s0.15-0.06,0.27-0.06h1.44c0.02,0,0.02,0,0.04,0s0.02,0,0.04,0c0.1,0,0.19,0.02,0.23,0.08c0.06,0.06,0.08,0.15,0.08,0.27v5.86
				c0,0.08,0,0.19,0,0.29c0,0.1,0.02,0.21,0.04,0.33c0.04,0.25,0.17,0.48,0.38,0.69s0.56,0.31,1.08,0.31c0.54,0,0.9-0.1,1.08-0.31
				c0.19-0.21,0.29-0.44,0.33-0.67c0.02-0.06,0.02-0.15,0.02-0.21c0-0.08,0-0.15,0-0.21V35.4c0-0.15,0.02-0.23,0.08-0.29
				s0.15-0.08,0.29-0.08H28c0.15,0,0.25,0.02,0.31,0.06s0.1,0.15,0.1,0.31v6.5L28.39,41.91L28.39,41.91z"/>
			<path class="st1" d="M30.06,37.07c0-0.33,0-0.58,0.02-0.75s0.06-0.31,0.17-0.44c0-0.02,0-0.02,0.02-0.04s0.02-0.02,0.04-0.04
				s0.02-0.04,0.04-0.04c0.23-0.25,0.63-0.46,1.25-0.67c0.6-0.21,1.27-0.29,2-0.29c0.17,0,0.42,0.02,0.77,0.06s0.73,0.13,1.1,0.29
				c0.17,0.08,0.35,0.19,0.52,0.29c0.17,0.1,0.33,0.25,0.48,0.4c0.35,0.33,0.63,0.79,0.85,1.38c0.21,0.58,0.33,1.23,0.33,1.96
				c0,0.13,0,0.25,0,0.4c0,0.13-0.02,0.27-0.04,0.4c-0.13,1.08-0.48,2.08-1.13,2.98c-0.63,0.9-1.52,1.35-2.69,1.35
				c-0.25,0-0.48-0.02-0.69-0.06s-0.42-0.1-0.6-0.21c-0.04-0.02-0.1-0.04-0.15-0.08c-0.06-0.02-0.1-0.06-0.15-0.1v3.98
				c0,0.13-0.02,0.21-0.08,0.27s-0.15,0.08-0.27,0.08H30.5c-0.15-0.02-0.25-0.04-0.33-0.06c-0.08-0.04-0.1-0.13-0.1-0.27
				L30.06,37.07L30.06,37.07z M32.21,42.49c0.29,0.17,0.54,0.29,0.75,0.33s0.38,0.06,0.48,0.06c0.65,0,1.15-0.33,1.48-0.98
				c0.33-0.67,0.5-1.46,0.5-2.4c0-1.21-0.23-2.08-0.67-2.63c-0.44-0.54-0.94-0.81-1.48-0.81c-0.4,0-0.67,0.08-0.81,0.27
				c-0.15,0.17-0.23,0.35-0.25,0.56c-0.02,0.06-0.02,0.15-0.02,0.21c0,0.06,0,0.13,0,0.19v5.19h0.02V42.49z"/>
			<path class="st1" d="M45.21,42.22c-0.02,0.38-0.06,0.69-0.15,0.92c-0.08,0.23-0.29,0.44-0.63,0.63
				c-0.15,0.06-0.29,0.13-0.44,0.19c-0.15,0.06-0.31,0.1-0.46,0.13c-0.35,0.08-0.71,0.15-1.02,0.17c-0.33,0.02-0.54,0.02-0.65,0.02
				c-0.13,0-0.35,0-0.65-0.02c-0.31-0.02-0.65-0.08-0.98-0.19c-0.44-0.13-0.85-0.35-1.21-0.71c-0.35-0.33-0.54-0.85-0.54-1.54
				c0-0.17,0.02-0.38,0.08-0.65s0.19-0.54,0.4-0.81c0.04-0.06,0.08-0.1,0.13-0.17c0.06-0.04,0.1-0.1,0.17-0.17
				c0.25-0.25,0.56-0.46,0.92-0.63c0.35-0.17,0.77-0.31,1.25-0.48c0.25-0.06,0.52-0.15,0.81-0.23s0.6-0.17,0.92-0.25v-0.9
				c0-0.08,0-0.17,0-0.25s0-0.17-0.02-0.27c-0.02-0.27-0.1-0.52-0.25-0.75s-0.42-0.33-0.81-0.33c-0.27,0-0.5,0.06-0.65,0.17
				c-0.17,0.13-0.29,0.25-0.38,0.38c-0.04,0.08-0.08,0.15-0.1,0.21c-0.02,0.06-0.06,0.13-0.08,0.19c-0.08,0.23-0.19,0.42-0.29,0.6
				c-0.13,0.19-0.35,0.27-0.69,0.27c-0.25,0-0.48-0.08-0.67-0.25s-0.27-0.4-0.27-0.67c0-0.54,0.31-1.02,0.94-1.46
				s1.48-0.65,2.54-0.65c1.1,0,1.83,0.23,2.19,0.69c0.35,0.46,0.54,0.96,0.6,1.52c0.02,0.15,0.02,0.27,0.02,0.42
				c0,0.15,0,0.27,0,0.42v0.02v4.44L45.21,42.22L45.21,42.22z M43.15,39.49c-0.04,0.02-0.06,0.02-0.1,0.04
				c-0.04,0.02-0.06,0.02-0.1,0.04c-0.65,0.21-1.19,0.44-1.65,0.71c-0.46,0.27-0.69,0.71-0.69,1.33c0,0.44,0.13,0.79,0.38,1.08
				s0.6,0.44,1.08,0.44c0.35,0,0.6-0.06,0.75-0.21c0.15-0.15,0.23-0.29,0.27-0.48c0.02-0.08,0.04-0.17,0.04-0.25s0-0.17,0-0.21v-2.5
				L43.15,39.49L43.15,39.49z"/>
			<path class="st1" d="M54.05,43.7c0,0.15-0.02,0.25-0.08,0.29s-0.17,0.06-0.29,0.06h-1.4c-0.17,0-0.29-0.04-0.33-0.1
				c-0.04-0.06-0.06-0.17-0.06-0.29v-5.9c0-0.08,0-0.19,0-0.29c0-0.1-0.02-0.21-0.04-0.31c-0.04-0.31-0.15-0.58-0.35-0.81
				c-0.21-0.25-0.56-0.38-1.13-0.38c-0.44,0-0.75,0.08-0.94,0.25s-0.31,0.35-0.38,0.54c-0.04,0.13-0.06,0.25-0.08,0.38
				c0,0.13,0,0.21,0,0.29v6.21c0,0.17-0.02,0.29-0.08,0.33c-0.06,0.06-0.17,0.08-0.33,0.08h-1.38c-0.15,0-0.23-0.02-0.29-0.06
				s-0.08-0.15-0.08-0.29v-6.9c0-0.35,0.04-0.63,0.1-0.85c0.08-0.23,0.31-0.42,0.71-0.6c0.46-0.21,0.96-0.35,1.46-0.44
				s1-0.1,1.5-0.1c0.6,0,1.08,0.04,1.44,0.13c0.35,0.08,0.63,0.19,0.83,0.29c0.08,0.04,0.15,0.08,0.21,0.15
				c0.06,0.04,0.13,0.08,0.17,0.13c0.17,0.15,0.31,0.31,0.42,0.46c0.1,0.17,0.19,0.33,0.25,0.5c0.06,0.21,0.1,0.4,0.13,0.58
				c0.02,0.19,0.02,0.38,0.02,0.54v6.13h0V43.7z"/>
			<path class="st1" d="M59.61,45.28c-0.06,0.15-0.13,0.33-0.21,0.52c-0.08,0.19-0.17,0.4-0.27,0.6c-0.25,0.46-0.6,0.9-1.02,1.29
				c-0.44,0.4-1.02,0.58-1.75,0.58c-0.54,0-0.92-0.1-1.17-0.33c-0.23-0.23-0.35-0.48-0.35-0.75c0-0.25,0.08-0.48,0.27-0.67
				c0.17-0.19,0.4-0.27,0.67-0.27c0.06,0,0.15,0,0.23,0.02c0.08,0.02,0.19,0.04,0.29,0.08h0.02c0.08,0.02,0.19,0.04,0.27,0.06
				s0.17,0.02,0.23,0.02c0.25,0,0.46-0.08,0.65-0.23c0.19-0.15,0.35-0.4,0.52-0.75c0.06-0.15,0.15-0.31,0.21-0.5
				c0.06-0.19,0.15-0.4,0.21-0.6l-3.38-8.77c-0.04-0.08-0.06-0.17-0.06-0.21c-0.02-0.04-0.02-0.08-0.02-0.1
				c0-0.08,0.02-0.15,0.06-0.17c0.04-0.04,0.08-0.06,0.13-0.06c0.02-0.02,0.04-0.02,0.06-0.02s0.04,0,0.06,0h1.6
				c0.13,0,0.21,0.02,0.25,0.04c0.06,0.02,0.08,0.06,0.1,0.15c0.02,0.02,0.02,0.06,0.04,0.08c0.02,0.04,0.04,0.08,0.04,0.13
				l2.06,6.04l1.94-6.04c0.02-0.02,0.02-0.04,0.02-0.06s0.02-0.04,0.02-0.06c0.04-0.08,0.08-0.17,0.15-0.19
				c0.06-0.04,0.17-0.06,0.29-0.06h1.04c0.02,0,0.04,0,0.06,0s0.04,0,0.06,0c0.04,0.02,0.08,0.04,0.15,0.06
				c0.04,0.04,0.06,0.08,0.06,0.17c0,0.02,0,0.02,0,0.02v0.02c0,0.04,0,0.06-0.02,0.1c-0.02,0.04-0.04,0.08-0.06,0.17L59.61,45.28z"
				/>
			<path class="st1" d="M70.18,42.22c-0.02,0.38-0.06,0.69-0.15,0.92c-0.08,0.23-0.29,0.44-0.63,0.63
				c-0.15,0.06-0.29,0.13-0.44,0.19c-0.15,0.06-0.31,0.1-0.46,0.13c-0.35,0.08-0.71,0.15-1.02,0.17c-0.33,0.02-0.54,0.02-0.65,0.02
				c-0.13,0-0.35,0-0.65-0.02c-0.31-0.02-0.65-0.08-0.98-0.19c-0.44-0.13-0.85-0.35-1.21-0.71c-0.35-0.33-0.54-0.85-0.54-1.54
				c0-0.17,0.02-0.38,0.08-0.65c0.04-0.27,0.19-0.54,0.4-0.81c0.04-0.06,0.08-0.1,0.13-0.17c0.04-0.04,0.1-0.1,0.17-0.17
				c0.25-0.25,0.56-0.46,0.92-0.63c0.35-0.17,0.77-0.31,1.25-0.48c0.25-0.06,0.52-0.15,0.81-0.23s0.6-0.17,0.92-0.25v-0.9
				c0-0.08,0-0.17,0-0.25s0-0.17-0.02-0.27c-0.02-0.27-0.1-0.52-0.25-0.75s-0.42-0.33-0.81-0.33c-0.27,0-0.5,0.06-0.65,0.17
				c-0.17,0.13-0.29,0.25-0.38,0.38c-0.04,0.08-0.08,0.15-0.1,0.21c-0.02,0.06-0.06,0.13-0.08,0.19c-0.08,0.23-0.19,0.42-0.29,0.6
				c-0.13,0.19-0.35,0.27-0.69,0.27c-0.25,0-0.48-0.08-0.67-0.25s-0.27-0.4-0.27-0.67c0-0.54,0.31-1.02,0.94-1.46
				s1.48-0.65,2.54-0.65c1.1,0,1.83,0.23,2.19,0.69c0.35,0.46,0.54,0.96,0.6,1.52c0.02,0.15,0.02,0.27,0.02,0.42
				c0,0.15,0,0.27,0,0.42v0.02v4.44L70.18,42.22L70.18,42.22z M68.12,39.49c-0.04,0.02-0.06,0.02-0.1,0.04s-0.06,0.02-0.1,0.04
				c-0.65,0.21-1.19,0.44-1.65,0.71s-0.69,0.71-0.69,1.33c0,0.44,0.13,0.79,0.38,1.08s0.6,0.44,1.08,0.44c0.35,0,0.6-0.06,0.75-0.21
				c0.15-0.15,0.23-0.29,0.27-0.48c0.02-0.08,0.04-0.17,0.04-0.25s0-0.17,0-0.21v-2.5L68.12,39.49L68.12,39.49z"/>
			<path class="st1" d="M73.97,43.8c-0.25,0.23-0.56,0.35-0.94,0.35s-0.69-0.13-0.92-0.35c-0.23-0.23-0.38-0.5-0.4-0.79
				c0-0.02,0-0.04,0-0.06s0-0.04,0-0.06c0-0.38,0.13-0.69,0.4-0.94c0.27-0.25,0.58-0.38,0.94-0.38s0.67,0.13,0.94,0.38
				c0.27,0.25,0.4,0.56,0.4,0.94c0,0.02,0,0.02,0,0.02v0.02C74.35,43.26,74.22,43.55,73.97,43.8z M73.64,39.55
				c-0.02,0.17-0.04,0.27-0.1,0.31s-0.17,0.06-0.29,0.06c-0.04,0-0.06,0-0.1,0s-0.08,0-0.13,0c-0.08,0-0.15,0-0.21,0s-0.1,0-0.13,0
				c-0.06-0.02-0.13-0.04-0.15-0.08s-0.04-0.1-0.06-0.21c-0.02-0.02-0.02-0.02-0.02-0.04s0-0.02,0-0.04l-0.65-7.46
				c0-0.02,0-0.04,0-0.06s0-0.04,0-0.06c0-0.1,0.02-0.17,0.08-0.21c0.06-0.02,0.15-0.04,0.27-0.04h1.79c0.13,0,0.23,0.02,0.29,0.06
				s0.1,0.13,0.1,0.29c0,0.02,0,0.02,0,0.02v0.02L73.64,39.55z"/>
		</g>
	</g>
</g>
</svg>
