<?xml version="1.0" encoding="utf-8"?>
<!-- Generator: Adobe Illustrator 24.2.1, SVG Export Plug-In . SVG Version: 6.00 Build 0)  -->
<svg version="1.1" id="katman_1" xmlns="http://www.w3.org/2000/svg" xmlns:xlink="http://www.w3.org/1999/xlink" x="0px" y="0px"
	 viewBox="0 0 80 80" style="enable-background:new 0 0 80 80;" xml:space="preserve">
<style type="text/css">
	.st0{fill:#FFFFFF;}
	.st1{fill:#F36223;}
	.st2{fill:#47C7EE;}
	.st3{fill:#6C53A4;}
	.st4{fill:#6AC6B7;}
	.st5{fill:#5D186B;}
	.st6{fill:#FAA41D;}
</style>
<g>
	<circle class="st0" cx="40" cy="40" r="39.5"/>
</g>
<g>
	<g>
		<g>
			<path class="st1" d="M15.89,25.45v4.62c0.78-0.9,1.7-1.36,2.8-1.36c0.56,0,1.05,0.1,1.51,0.32c0.44,0.19,0.78,0.46,1.02,0.8
				c0.22,0.32,0.39,0.68,0.46,1.07c0.07,0.39,0.12,1,0.12,1.82v5.35H19.4v-4.86c0-0.95-0.05-1.56-0.15-1.82
				c-0.1-0.27-0.24-0.46-0.49-0.61c-0.24-0.15-0.51-0.22-0.88-0.22c-0.39,0-0.75,0.1-1.07,0.29s-0.53,0.49-0.68,0.88
				c-0.15,0.39-0.22,0.97-0.22,1.75v4.57h-2.41V25.45H15.89z"/>
			<path class="st1" d="M28.79,35.13l2.41,0.41c-0.32,0.88-0.8,1.56-1.46,2.02s-1.51,0.68-2.5,0.68c-1.58,0-2.77-0.51-3.53-1.56
				c-0.61-0.83-0.9-1.87-0.9-3.14c0-1.51,0.39-2.7,1.19-3.55c0.78-0.85,1.8-1.29,2.99-1.29c1.36,0,2.43,0.44,3.21,1.34
				c0.78,0.9,1.17,2.26,1.12,4.11h-6.03c0.02,0.71,0.22,1.26,0.58,1.68c0.36,0.39,0.83,0.61,1.39,0.61c0.39,0,0.71-0.1,0.95-0.32
				C28.45,35.91,28.67,35.59,28.79,35.13z M28.94,32.7c-0.02-0.71-0.19-1.24-0.53-1.6c-0.34-0.36-0.75-0.53-1.26-0.53
				c-0.53,0-0.97,0.19-1.31,0.58c-0.34,0.39-0.51,0.9-0.51,1.56C25.32,32.7,28.94,32.7,28.94,32.7z"/>
			<path class="st1" d="M32.44,28.9h2.26v1.34c0.29-0.46,0.68-0.83,1.19-1.12c0.49-0.29,1.05-0.44,1.65-0.44
				c1.07,0,1.97,0.41,2.7,1.24c0.73,0.83,1.12,1.99,1.12,3.48c0,1.53-0.36,2.7-1.12,3.55c-0.75,0.85-1.65,1.26-2.7,1.26
				c-0.51,0-0.97-0.1-1.36-0.29c-0.41-0.19-0.85-0.53-1.29-1.02v4.6h-2.41V28.9H32.44z M34.82,33.33c0,1.02,0.19,1.77,0.61,2.26
				c0.41,0.49,0.9,0.73,1.48,0.73c0.56,0,1.02-0.22,1.41-0.68c0.36-0.44,0.56-1.19,0.56-2.21c0-0.95-0.19-1.68-0.58-2.14
				c-0.39-0.46-0.85-0.71-1.43-0.71c-0.58,0-1.07,0.22-1.46,0.68C35.02,31.75,34.82,32.43,34.82,33.33z"/>
			<path class="st1" d="M41.95,35.42l2.43-0.36c0.1,0.46,0.32,0.83,0.63,1.07c0.32,0.24,0.75,0.36,1.31,0.36
				c0.63,0,1.09-0.12,1.41-0.34c0.22-0.17,0.32-0.36,0.32-0.66c0-0.19-0.05-0.34-0.17-0.46c-0.12-0.12-0.39-0.22-0.8-0.32
				c-1.95-0.44-3.18-0.83-3.7-1.17c-0.73-0.49-1.09-1.17-1.09-2.04c0-0.8,0.32-1.46,0.95-1.99c0.63-0.53,1.58-0.8,2.89-0.8
				c1.24,0,2.16,0.19,2.77,0.61s1.02,1,1.26,1.8l-2.29,0.41c-0.1-0.36-0.29-0.63-0.56-0.83c-0.27-0.19-0.66-0.29-1.17-0.29
				c-0.63,0-1.09,0.1-1.36,0.27c-0.19,0.12-0.27,0.29-0.27,0.49c0,0.17,0.07,0.32,0.24,0.44c0.22,0.17,0.97,0.39,2.26,0.68
				c1.29,0.29,2.19,0.66,2.7,1.07c0.51,0.44,0.75,1.02,0.75,1.8c0,0.83-0.34,1.56-1.05,2.16c-0.71,0.61-1.73,0.9-3.11,0.9
				c-1.24,0-2.24-0.24-2.94-0.75C42.63,36.97,42.17,36.29,41.95,35.42z"/>
			<path class="st1" d="M51.39,26.57L51.39,26.57c0-0.62,0.5-1.12,1.12-1.12h0.17c0.62,0,1.12,0.5,1.12,1.12v0
				c0,0.62-0.5,1.12-1.12,1.12h-0.17C51.89,27.69,51.39,27.19,51.39,26.57z M51.39,38.04V28.9h2.41v9.12h-2.41V38.04z"/>
		</g>
		<g>
			<path class="st1" d="M13.51,54.19V41.61h2.4v4.54c0.75-0.85,1.63-1.26,2.65-1.26c1.12,0,2.02,0.41,2.74,1.21
				c0.73,0.8,1.09,1.97,1.09,3.47c0,1.55-0.36,2.74-1.12,3.59c-0.73,0.85-1.65,1.26-2.7,1.26c-0.51,0-1.04-0.12-1.53-0.39
				c-0.51-0.27-0.95-0.66-1.31-1.17v1.34h-2.23V54.19z M15.89,49.43c0,0.95,0.15,1.65,0.44,2.09c0.41,0.63,0.97,0.97,1.68,0.97
				c0.53,0,1-0.22,1.36-0.68c0.36-0.46,0.56-1.17,0.56-2.14c0-1.04-0.19-1.8-0.56-2.26c-0.39-0.46-0.85-0.68-1.46-0.68
				c-0.58,0-1.07,0.22-1.43,0.68C16.09,47.83,15.89,48.51,15.89,49.43z"/>
			<path class="st1" d="M29.22,54.19v-1.36c-0.34,0.49-0.78,0.87-1.31,1.14c-0.53,0.29-1.12,0.41-1.7,0.41
				c-0.61,0-1.17-0.15-1.65-0.41c-0.49-0.27-0.85-0.66-1.04-1.14c-0.22-0.49-0.32-1.17-0.32-2.02v-5.76h2.4v4.2
				c0,1.29,0.05,2.06,0.12,2.36c0.1,0.29,0.24,0.51,0.49,0.68c0.24,0.17,0.53,0.24,0.9,0.24c0.41,0,0.78-0.12,1.12-0.34
				c0.32-0.22,0.56-0.51,0.68-0.85c0.12-0.34,0.17-1.17,0.17-2.45v-3.84h2.4v9.11h-2.26V54.19z"/>
			<path class="st1" d="M35.52,54.19h-2.4v-9.13h2.23v1.29c0.39-0.61,0.73-1.02,1.04-1.21c0.32-0.19,0.66-0.29,1.04-0.29
				c0.56,0,1.07,0.15,1.58,0.46l-0.75,2.11c-0.41-0.27-0.78-0.39-1.14-0.39c-0.34,0-0.63,0.1-0.85,0.27
				c-0.24,0.19-0.41,0.51-0.56,1.02c-0.15,0.49-0.19,1.51-0.19,3.06V54.19z"/>
			<path class="st1" d="M47.52,54.19h-2.38c-0.07-0.17-0.15-0.92-0.15-0.92s-0.11,0-0.19-0.08c-0.41,0.39-0.85,0.7-1.31,0.9
				c-0.46,0.19-0.97,0.29-1.51,0.29c-0.95,0-1.68-0.24-2.21-0.75s-0.8-1.14-0.8-1.92c0-0.51,0.12-0.97,0.36-1.38s0.58-0.7,1.04-0.92
				c0.44-0.22,1.09-0.41,1.92-0.56c1.12-0.22,1.92-0.41,2.33-0.58v-0.24c0-0.46-0.12-0.8-0.34-1c-0.22-0.19-0.66-0.29-1.29-0.29
				c-0.44,0-0.75,0.07-1,0.24c-0.24,0.17-0.46,0.44-0.61,0.87l-2.19-0.39c0.24-0.87,0.68-1.53,1.26-1.97
				c0.61-0.41,1.48-0.63,2.67-0.63c1.07,0,1.87,0.12,2.4,0.39c0.53,0.24,1.07,0.71,1.33,1.08c0.22,0.31,0.63,1.01,0.63,2.06
				 M44.6,49.79c-0.32,0.1-0.8,0.22-1.46,0.36c-0.66,0.15-1.12,0.29-1.31,0.41c-0.32,0.22-0.46,0.51-0.46,0.85
				c0,0.34,0.12,0.63,0.39,0.87c0.24,0.24,0.58,0.36,0.97,0.36c0.44,0,0.85-0.15,1.24-0.44c0.29-0.22,0.49-0.49,0.58-0.8
				c0.07-0.19,0.1-0.61,0.1-1.17v-0.46H44.6z"/>
			<path class="st1" d="M57.2,54.19h-2.23v-1.34c-0.36,0.51-0.8,0.9-1.31,1.17c-0.51,0.24-1.02,0.39-1.53,0.39
				c-1.04,0-1.94-0.41-2.7-1.26c-0.75-0.85-1.12-2.02-1.12-3.52c0-1.55,0.36-2.72,1.09-3.52c0.73-0.8,1.65-1.21,2.74-1.21
				c1.02,0,1.89,0.41,2.65,1.26v-4.54h2.4L57.2,54.19L57.2,54.19z M50.77,49.43c0,0.97,0.15,1.68,0.41,2.11
				c0.39,0.63,0.92,0.95,1.63,0.95c0.56,0,1.02-0.24,1.41-0.7c0.39-0.46,0.58-1.17,0.58-2.11c0-1.04-0.19-1.8-0.56-2.26
				c-0.39-0.46-0.85-0.68-1.46-0.68c-0.58,0-1.04,0.22-1.43,0.68C50.96,47.85,50.77,48.53,50.77,49.43z"/>
			<path class="st1" d="M66.54,54.19h-2.38c-0.07-0.17-0.15-0.92-0.15-0.92s-0.11,0-0.19-0.08c-0.41,0.39-0.85,0.7-1.31,0.9
				c-0.46,0.19-0.97,0.29-1.51,0.29c-0.95,0-1.68-0.24-2.21-0.75S58,52.49,58,51.71c0-0.51,0.12-0.97,0.36-1.38s0.58-0.7,1.04-0.92
				c0.44-0.22,1.09-0.41,1.92-0.56c1.12-0.22,1.92-0.41,2.33-0.58v-0.24c0-0.46-0.12-0.8-0.34-1c-0.22-0.19-0.66-0.29-1.29-0.29
				c-0.44,0-0.75,0.07-1,0.24c-0.24,0.17-0.46,0.44-0.61,0.87l-2.19-0.39c0.24-0.87,0.68-1.53,1.26-1.97
				c0.61-0.41,1.48-0.63,2.67-0.63c1.07,0,1.87,0.12,2.4,0.39c0.53,0.24,1.07,0.71,1.33,1.08c0.22,0.31,0.63,1.01,0.63,2.06
				 M63.63,49.79c-0.32,0.1-0.8,0.22-1.46,0.36c-0.66,0.15-1.12,0.29-1.31,0.41c-0.32,0.22-0.46,0.51-0.46,0.85
				c0,0.34,0.12,0.63,0.39,0.87c0.24,0.24,0.58,0.36,0.97,0.36c0.44,0,0.85-0.15,1.24-0.44c0.29-0.22,0.49-0.49,0.58-0.8
				c0.07-0.19,0.1-0.61,0.1-1.17v-0.46H63.63z"/>
		</g>
	</g>
	<g>
		<path class="st1" d="M12.7,11.45l3.73,3.58C22.58,9.22,30.87,5.66,40,5.66c11.34,0,21.39,5.49,27.64,13.97l3.95-3.34
			C64.39,6.7,52.92,0.5,40,0.5C29.41,0.5,19.8,4.67,12.7,11.45z"/>
		<path class="st2" d="M71.86,63.35c4.8-6.54,7.64-14.61,7.64-23.35c0-8.91-2.95-17.14-7.93-23.75l-3.96,3.32
			c4.23,5.71,6.74,12.78,6.74,20.43c0,7.61-2.48,14.64-6.67,20.33L71.86,63.35z"/>
		<path class="st3" d="M71.88,63.32l-4.18-3.04C61.46,68.81,51.38,74.34,40,74.34c-1.25,0-2.49-0.07-3.71-0.2l-0.12,5.18
			c1.26,0.12,2.54,0.18,3.84,0.18C53.09,79.5,64.7,73.13,71.88,63.32z"/>
		<path class="st4" d="M36.22,79.32l0.08-5.18c-9.38-1-17.63-5.79-23.2-12.8l-3.91,3.38C15.69,72.81,25.31,78.28,36.22,79.32z"/>
		<path class="st5" d="M9.24,64.78l3.91-3.38c-4.2-5.26-6.88-11.77-7.4-18.89L0.63,43.2C1.28,51.34,4.4,58.78,9.24,64.78z"/>
		<path class="st6" d="M5.66,40c0-9.86,4.15-18.74,10.8-25l-3.7-3.61C5.21,18.58,0.5,28.74,0.5,40c0,1.11,0.05,2.21,0.14,3.29
			l5.12-0.71C5.69,41.73,5.66,40.87,5.66,40z"/>
	</g>
</g>
</svg>
