<?xml version="1.0" encoding="utf-8"?>
<!-- Generator: Adobe Illustrator 24.2.1, SVG Export Plug-In . SVG Version: 6.00 Build 0)  -->
<svg version="1.1" id="katman_1" xmlns="http://www.w3.org/2000/svg" xmlns:xlink="http://www.w3.org/1999/xlink" x="0px" y="0px"
	 viewBox="0 0 80 80" style="enable-background:new 0 0 80 80;" xml:space="preserve">
<style type="text/css">
	.st0{fill:#E53E51;}
	.st1{fill:#FFFFFF;}
</style>
<g>
	<circle class="st0" cx="40" cy="40" r="39.5"/>
</g>
<path class="st1" d="M65.16,28.64c-4.98,0-8.45,6.23-8.45,11.22c0,0.48,0.04,0.95,0.11,1.4c-0.98,0.82-2.25,1.62-3.57,2.36
	c0.09-0.43,0.17-0.89,0.26-1.35l2.44-13.06c-0.35-0.26-0.84-0.43-1.36-0.43c-0.72,0-1.51,0.3-2,0.96c-0.72-0.73-1.65-1.09-2.96-1.09
	c-4.03,0-7.3,5.74-7.3,11.51c0,0.31,0.01,0.66,0.05,1.01c-0.84,0.73-2.1,1.4-3.19,1.4c-0.86,0-1.39-0.59-0.99-2.44l1.95-9.27h1.45
	c1.02,0,1.55-0.86,1.38-1.91h-2.41l0.92-4.35c-0.4-0.26-0.96-0.43-1.55-0.43c-1.19,0-2.44,0.56-2.77,2.08l-0.59,2.7h-0.66
	c-1.02,0-1.55,0.86-1.39,1.91h1.65l-1.78,8.42c-1.42,1.88-4.45,3.56-6.83,3.56c-1.52,0-2.74-0.66-3.07-2.44
	c6.37-3.53,7.85-5.77,7.85-8.58c0-1.48-0.76-3.17-3.76-3.17c-5.44,0-8.28,6.86-8.28,11.15c0,0.47,0.04,0.91,0.1,1.32
	c-1.86,0.81-3.7,1.39-4.72,1.39c-1.15,0-2.01-0.66-1.78-2.38c0.03-0.4,0.1-0.82,0.17-1.22c4.26-6.5,6.4-11.78,6.4-14.35
	c0-1.72-1.09-2.67-2.64-2.67c-4.32,0-6.53,6.99-8.05,18.94c-0.43,3.46,1.32,4.88,3.63,4.88c2.02,0,4.87-1.4,7.47-2.97
	c0.91,2.02,2.82,2.97,5.04,2.97c2.64,0,5.69-1.34,7.96-3.68c-0.25,2.71,0.99,3.68,2.76,3.68c2.09,0,4.44-1.36,6-2.98
	c0.43,1.57,1.37,2.98,3.3,2.98c1.57,0,3.04-1.25,4.23-3.07c-0.23,0.92-0.43,1.75-0.64,2.57c-3.91,1.65-8.43,4.78-8.43,8.87
	c0,2.74,1.65,4.06,3.42,4.06c5.01,0,7.04-6.5,8.35-12.63c1.81-0.96,3.54-2.22,4.3-2.87c0.66,1.79,2.07,3.06,4.39,3.06
	c5.18,0,8.71-6.24,8.71-11.15C70.27,31.31,68.76,28.64,65.16,28.64z M18.07,24.05c0.36,0,0.56,0.16,0.56,0.73
	c0,1.12-1.22,5.81-4.12,11.18C15.63,29,16.98,24.05,18.07,24.05z M28.83,31.21c0.56,0,0.96,0.53,0.96,1.29
	c0,2.14-2.18,4.45-5.38,6.47C24.5,36.65,25.56,31.21,28.83,31.21z M44.27,55.19c-0.38,0-1.19-0.4-1.19-1.55
	c0-2.21,2.67-4.68,5.85-6.14C47.46,52.92,46.27,55.19,44.27,55.19z M50.42,40.21c-0.78,1.22-2,2.08-2.93,2.08
	c-0.9,0-1.57-0.73-1.57-2.38c0-3.6,1.25-8.81,4.75-8.81c0.43,0,0.87,0.07,1.36,0.26L50.42,40.21z M63.08,42.82
	c-1.15,0-2.14-1.12-2.14-4.02c0-3.23,1.95-7.65,4.95-7.65c1.35,0,1.91,1.35,1.91,3.13C67.8,37.74,65.69,42.82,63.08,42.82z"/>
</svg>
