<?xml version="1.0" encoding="utf-8"?>
<!-- Generator: Adobe Illustrator 24.2.1, SVG Export Plug-In . SVG Version: 6.00 Build 0)  -->
<svg version="1.1" id="katman_1" xmlns="http://www.w3.org/2000/svg" xmlns:xlink="http://www.w3.org/1999/xlink" x="0px" y="0px"
	 viewBox="0 0 80 80" style="enable-background:new 0 0 80 80;" xml:space="preserve">
<style type="text/css">
	.st0{fill:#F8F40B;}
	.st1{fill:#070606;}
</style>
<g>
	<circle class="st0" cx="40" cy="40" r="39.5"/>
</g>
<path class="st1" d="M29.33,49.25c0.1,6.32,5.41,8.87,11.13,8.87c4.19,0,9.49-1.63,9.49-6.74c0-4.39-6.02-5.92-16.44-8.16
	c-8.37-1.84-16.75-4.8-16.75-14.09c0-13.48,11.66-16.95,22.99-16.95c11.53,0,22.15,3.88,23.28,16.85H49.24
	c-0.41-5.62-4.7-7.15-9.91-7.15c-3.27,0-8.07,0.61-8.07,4.9c0,5.21,8.17,5.92,16.44,7.87c8.47,1.94,16.75,5.01,16.75,14.81
	c0,13.88-12.05,18.38-24.11,18.38c-12.25,0-24.19-4.6-24.82-18.58L29.33,49.25L29.33,49.25z"/>
</svg>
