<?xml version="1.0" encoding="utf-8"?>
<!-- Generator: Adobe Illustrator 24.2.1, SVG Export Plug-In . SVG Version: 6.00 Build 0)  -->
<svg version="1.1" id="katman_1" xmlns="http://www.w3.org/2000/svg" xmlns:xlink="http://www.w3.org/1999/xlink" x="0px" y="0px"
	 viewBox="0 0 80 80" style="enable-background:new 0 0 80 80;" xml:space="preserve">
<style type="text/css">
	.st0{fill:#50E3C2;}
	.st1{fill:#FFFFFF;}
</style>
<g>
	<g>
		<circle class="st0" cx="40" cy="40" r="39.5"/>
	</g>
</g>
<path class="st1" d="M42.01,36.86c-0.02-0.18-0.04-0.24-0.03-0.3c0.02-1.5,0.11-1.32-1.33-1.33c-0.82,0-0.83,0.01-0.83,0.83
	c0,4.01,0,8.02,0,12.03c0,0.13,0,0.27,0.01,0.4c0,0.28,0.14,0.43,0.43,0.43c0.36,0,0.73-0.01,1.09,0.01
	c0.47,0.03,0.65-0.17,0.65-0.64c-0.02-1.31-0.01-2.62,0-3.93c0-0.18-0.06-0.39,0.12-0.56c0.07,0.06,0.12,0.09,0.16,0.14
	c1.59,1.94,5.04,1.77,6.6,0.07c1.55-1.69,1.73-3.69,1.04-5.76c-1.09-3.27-4.74-3.63-6.7-2.5C42.76,36.02,42.42,36.4,42.01,36.86z
	 M17.64,37c-0.15-0.25-0.11-0.44-0.11-0.62c0-1.26,0-2.52,0-3.78c-0.01-1.5,0.19-1.33-1.36-1.34c-0.78,0-0.8,0.03-0.8,0.82
	c0,3.9-0.01,7.79,0,11.69c0,1.72-0.24,1.48,1.51,1.5c0.6,0,0.66-0.06,0.66-0.66c0.01-1.39,0.01-2.78,0-4.18
	c0-0.44,0.06-0.86,0.19-1.27c0.44-1.38,1.72-2.16,3.19-1.92c1.3,0.21,1.91,1.04,1.91,2.64c0,1.59,0.01,3.18,0,4.77
	c0,0.44,0.15,0.65,0.61,0.62c0.35-0.02,0.7-0.01,1.04,0c0.35,0.01,0.52-0.13,0.52-0.5c-0.01-2.06,0.05-4.11-0.03-6.16
	c-0.09-2.14-1.48-3.36-3.63-3.4C19.8,35.17,18.53,35.61,17.64,37z M62.91,41.08C62.91,41.08,62.91,41.08,62.91,41.08
	c1.09,0,2.19-0.01,3.28,0c0.4,0,0.57-0.17,0.57-0.56c0.01-0.79-0.06-1.56-0.28-2.31c-0.49-1.71-1.77-2.79-3.54-2.97
	c-0.39-0.04-0.8-0.04-1.19-0.03c-2.34,0.04-4.18,1.51-4.65,3.8c-0.42,2.06-0.03,3.92,1.69,5.29c1.71,1.36,4.46,1.43,6.42,0.18
	c1.27-0.81,1.02-0.75,0.21-1.68c-0.24-0.28-0.44-0.26-0.71-0.03c-0.49,0.42-1.07,0.66-1.7,0.77c-1.66,0.3-3.1-0.41-3.69-1.83
	c-0.21-0.51-0.15-0.62,0.4-0.62C60.79,41.07,61.85,41.08,62.91,41.08z M32.61,35.2c-2.38-0.01-4.03,0.69-5.02,2.5
	c-1.5,2.75-0.5,7.43,4.39,7.63c2.04,0.08,3.78-0.64,4.8-2.51C38.48,39.73,36.88,35.13,32.61,35.2z M9.19,45.35
	c0.88-0.03,1.72-0.15,2.49-0.6c0.9-0.52,1.37-1.3,1.39-2.36c0.02-1.07-0.45-1.84-1.35-2.37c-0.43-0.25-0.89-0.43-1.37-0.58
	c-0.55-0.18-1.11-0.33-1.65-0.54c-0.72-0.28-0.99-0.68-0.9-1.2c0.09-0.5,0.53-0.77,1.27-0.8c0.73-0.03,1.42,0.12,2.09,0.38
	c1.06,0.42,1.05,0.41,1.54-0.65c0.16-0.34,0.12-0.56-0.22-0.73c-1.67-0.81-3.39-1.06-5.14-0.33C6.32,36,5.76,36.82,5.72,37.94
	c-0.05,1.1,0.42,1.92,1.39,2.45c0.57,0.32,1.19,0.49,1.81,0.68c0.44,0.13,0.89,0.27,1.3,0.48c0.57,0.3,0.81,0.67,0.73,1.17
	c-0.07,0.45-0.41,0.75-1.02,0.88c-0.33,0.07-0.66,0.08-0.99,0.04c-0.73-0.08-1.43-0.29-2.08-0.63c-0.97-0.5-0.95-0.49-1.44,0.48
	c-0.2,0.39-0.1,0.6,0.23,0.82C6.74,45,7.93,45.3,9.19,45.35z M71.29,36.99c-0.15-0.17-0.13-0.29-0.13-0.41
	c-0.05-1.37-0.05-1.37-1.4-1.36c-0.72,0.01-0.77,0.04-0.77,0.76c0,2.37,0,4.74,0,7.11c0,0.56,0.01,1.13,0,1.69
	c0,0.33,0.15,0.49,0.48,0.48c0.33-0.01,0.66,0,0.99,0c0.63-0.01,0.69-0.05,0.69-0.68c0-1.46-0.01-2.92,0.01-4.37
	c0.02-1.43,0.93-2.55,2.29-2.88c1.29-0.31,1.29-0.31,1.18-1.64c0-0.02,0-0.03,0-0.05c0-0.32-0.18-0.44-0.48-0.43
	c-0.47,0.01-0.91,0.16-1.33,0.36C72.17,35.88,71.69,36.37,71.29,36.99z M54.65,40.29c0-1.49-0.01-2.98,0-4.47
	c0-0.42-0.16-0.61-0.59-0.59c-0.31,0.02-0.63,0.02-0.94,0c-0.44-0.02-0.59,0.18-0.58,0.6c0.02,0.45,0,0.89,0,1.34
	c0,2.48,0.01,4.97-0.01,7.45c0,0.46,0.15,0.68,0.63,0.65c0.28-0.02,0.56-0.02,0.84,0c0.48,0.04,0.64-0.19,0.63-0.65
	C54.64,43.17,54.65,41.73,54.65,40.29z M54.84,32.35c-0.01-0.74-0.54-1.29-1.23-1.29c-0.72,0.01-1.25,0.58-1.24,1.33
	c0.01,0.74,0.53,1.25,1.26,1.24C54.37,33.61,54.85,33.1,54.84,32.35z M41.99,40.2c0.01-2.4,2.07-3.86,4.24-3
	c1.17,0.46,1.88,1.65,1.86,3.12c-0.02,1.4-0.76,2.55-1.92,2.98c-1.25,0.47-2.59,0.14-3.44-0.84C42.22,41.88,41.98,41.16,41.99,40.2z
	 M61.95,39.5c-0.78,0-1.55,0-2.33,0c-0.33,0-0.5-0.1-0.42-0.47c0.26-1.22,1.4-2.1,2.77-2.13c1.44-0.03,2.45,0.68,2.77,1.92
	c0.15,0.58,0.08,0.68-0.51,0.68C63.48,39.5,62.72,39.5,61.95,39.5C61.95,39.5,61.95,39.5,61.95,39.5z M29.15,40.29
	c0-2.4,2.03-3.88,4.2-3.06c1.41,0.53,2.16,2.05,1.85,3.77c-0.28,1.62-1.62,2.69-3.21,2.55C30.24,43.4,29.15,42.15,29.15,40.29z"/>
</svg>
