<?xml version="1.0" encoding="utf-8"?>
<!-- Generator: Adobe Illustrator 24.2.1, SVG Export Plug-In . SVG Version: 6.00 Build 0)  -->
<svg version="1.1" id="katman_1" xmlns="http://www.w3.org/2000/svg" xmlns:xlink="http://www.w3.org/1999/xlink" x="0px" y="0px"
	 viewBox="0 0 80 80" style="enable-background:new 0 0 80 80;" xml:space="preserve">
<style type="text/css">
	.st0{fill:#00B0E2;}
	.st1{fill:#FFFFFF;}
	.st2{fill-rule:evenodd;clip-rule:evenodd;fill:#FFFFFF;}
</style>
<g>
	<g>
		<path class="st0" d="M40,79.5C18.22,79.5,0.5,61.78,0.5,40C0.5,18.22,18.22,0.5,40,0.5c21.78,0,39.5,17.72,39.5,39.5
			C79.5,61.78,61.78,79.5,40,79.5z"/>
	</g>
	<g>
		<g>
			<path class="st1" d="M62.7,25.58c-1.46,0.66-3.07,1.06-4.65,1.33c0.75-0.13,1.85-1.48,2.3-2.03c0.67-0.84,1.23-1.79,1.55-2.82
				c0.04-0.08,0.07-0.18-0.01-0.24c-0.1-0.04-0.17-0.02-0.25,0.02c-1.76,0.94-3.58,1.63-5.52,2.11c-0.16,0.04-0.28,0-0.38-0.1
				c-0.16-0.18-0.31-0.35-0.48-0.49c-0.82-0.69-1.69-1.24-2.68-1.64c-1.29-0.53-2.71-0.75-4.1-0.66c-1.36,0.09-2.69,0.47-3.89,1.1
				c-1.21,0.63-2.28,1.51-3.14,2.57c-0.89,1.09-1.54,2.39-1.88,3.76c-0.32,1.32-0.3,2.63-0.1,3.97c0.03,0.22,0.01,0.25-0.19,0.22
				c-7.59-1.13-13.88-3.84-18.98-9.66c-0.22-0.25-0.34-0.25-0.52,0.02c-2.23,3.35-1.15,8.73,1.64,11.37
				c0.37,0.35,0.75,0.7,1.17,1.03c-0.15,0.03-2.01-0.17-3.66-1.03c-0.22-0.14-0.33-0.06-0.35,0.19c-0.02,0.36,0.01,0.69,0.06,1.09
				c0.43,3.39,2.78,6.53,6,7.76c0.38,0.16,0.8,0.3,1.22,0.37c-0.73,0.16-1.49,0.28-3.59,0.11c-0.26-0.05-0.36,0.08-0.26,0.33
				c1.58,4.31,4.99,5.59,7.55,6.32c0.34,0.06,0.68,0.06,1.03,0.14c-0.02,0.03-0.04,0.03-0.06,0.06c-0.85,1.29-3.79,2.25-5.15,2.73
				c-2.49,0.87-5.2,1.26-7.83,1c-0.42-0.06-0.51-0.06-0.62,0c-0.12,0.07-0.01,0.17,0.12,0.28c0.53,0.35,1.08,0.66,1.63,0.97
				c1.67,0.89,3.41,1.59,5.23,2.09c9.41,2.6,20,0.69,27.06-6.33c5.55-5.51,7.49-13.11,7.49-20.72c0-0.3,0.35-0.46,0.56-0.62
				c1.44-1.08,2.59-2.38,3.67-3.83c0.24-0.33,0.23-0.61,0.23-0.73c0-0.02,0-0.04,0-0.04C62.87,25.46,62.89,25.5,62.7,25.58z"/>
		</g>
		<g>
			<path class="st2" d="M30.51,58.8C30.45,58.8,29.75,58.8,30.51,58.8C30.51,58.8,30.39,58.8,30.51,58.8z"/>
		</g>
		<g>
			<path class="st2" d="M32.06,58.84C32.06,58.76,32.87,58.84,32.06,58.84C32.06,58.8,32.16,58.84,32.06,58.84z"/>
		</g>
		<g>
			<path class="st2" d="M48.34,21.09c-0.05,0.04-0.12,0.04-0.19,0C48.22,21.09,48.29,21.09,48.34,21.09z"/>
		</g>
	</g>
</g>
</svg>
