<?xml version="1.0" encoding="utf-8"?>
<!-- Generator: Adobe Illustrator 24.2.1, SVG Export Plug-In . SVG Version: 6.00 Build 0)  -->
<svg version="1.1" id="katman_1" xmlns="http://www.w3.org/2000/svg" xmlns:xlink="http://www.w3.org/1999/xlink" x="0px" y="0px"
	 viewBox="0 0 80 80" style="enable-background:new 0 0 80 80;" xml:space="preserve">
<style type="text/css">
	.st0{fill:#FA0050;}
	.st1{fill-rule:evenodd;clip-rule:evenodd;fill:#FFFFFF;}
</style>
<g>
	<circle class="st0" cx="40" cy="40" r="39.5"/>
</g>
<path class="st1" d="M55.86,22.06c0.67-0.97,0.75-2.32,0.07-3.37c-0.9-1.65-2.32-3.07-3.97-3.97c-2.17-1.2-3.9-1.05-5.17,1.35
	c-1.57,2.85-3.3,5.7-4.95,8.54l-4.65,8.02c-0.3-0.82-2.02-8.69-2.92-12.44c-0.22-0.97-0.67-1.87-1.35-2.62
	c-1.57-1.65-3.67-2.62-5.99-2.7c-2.77,0-3.52,0.82-3.3,3.15c0.07,0.82,0.22,1.72,0.37,2.55c0.97,4.95,2.47,9.82,4.5,14.46
	c0.82,1.87,1.8,3.67,3,5.4c0.45,0.45,0.52,1.2,0.15,1.72c-1.5,3.22-3.15,6.44-4.5,9.74c-1.35,3-1.95,6.22-1.87,9.52
	c0.07,1.27,0.67,2.47,1.72,3.22c1.5,1.2,3.45,1.65,5.32,1.27c1.72-0.15,3.22-1.35,3.67-3.07c2.32-10.27,6.37-20.16,11.91-29.07
	C50.76,29.7,53.31,25.95,55.86,22.06z"/>
</svg>
