<?xml version="1.0" encoding="utf-8"?>
<!-- Generator: Adobe Illustrator 24.2.1, SVG Export Plug-In . SVG Version: 6.00 Build 0)  -->
<svg version="1.1" id="katman_1" xmlns="http://www.w3.org/2000/svg" xmlns:xlink="http://www.w3.org/1999/xlink" x="0px" y="0px"
	 viewBox="0 0 480.9 401.7" style="enable-background:new 0 0 480.9 401.7;" xml:space="preserve">
<style type="text/css">
	.st0{fill:#FFFFFF;}
	.st1{fill:#1D71B8;}
	.st2{fill:#D7B46A;}
	.st3{fill:#FFFFFF;fill-opacity:0.9921;}
	.st4{fill:#020203;fill-opacity:0.9921;}
</style>
<rect y="0" class="st0" width="480.9" height="401.7"/>
<g>
	
		<image style="overflow:visible;opacity:0.75;enable-background:new    ;" width="767" height="1142" xlink:href="59048244.png"  transform="matrix(0.2389 0 0 0.2389 70.7353 71.3701)">
	</image>
	<g>
		<path class="st1" d="M78.8,305.7V95.9c0-9.1,7.4-16.4,16.4-16.4h120.2c9.1,0,16.4,7.4,16.4,16.4v209.8c0,9.1-7.4,16.4-16.4,16.4
			H95.3C86.2,322.2,78.8,314.8,78.8,305.7z"/>
	</g>
</g>
<path class="st2" d="M198.3,103.6c0-2.8,1-5.2,2.9-7.1c1.9-1.9,4.3-2.8,7.1-2.8c2.8,0,5.1,1,7,2.8c1.9,1.9,2.9,4.2,2.9,7.1
	c0,2.8-1,5.2-2.9,7.1c-1.9,1.9-4.3,2.8-7,2.8c-2.8,0-5.1-0.9-7.1-2.8C199.3,108.8,198.3,106.4,198.3,103.6z M200.4,103.6
	c0,2.3,0.7,4.2,2.2,5.7c1.5,1.5,3.4,2.2,5.6,2.2s4.1-0.7,5.6-2.2s2.2-3.4,2.2-5.7c0-2.3-0.7-4.2-2.2-5.7c-1.5-1.5-3.3-2.3-5.6-2.3
	c-2.2,0-4.1,0.8-5.6,2.3C201.1,99.4,200.4,101.3,200.4,103.6z"/>
<path class="st2" d="M212.1,103.2c0,2-0.6,3.6-1.7,5c-0.2,0.3-0.5,0.3-0.8,0.2c-0.3-0.2-0.3-0.4-0.1-0.7c1.1-1.4,1.7-3,1.5-4.7
	c-0.1-1.3-0.6-2.6-1.5-3.7c-0.1-0.1-0.2-0.3-0.1-0.4c0.1-0.1,0.3-0.3,0.4-0.3c0.2-0.1,0.4,0,0.6,0.2c0.4,0.6,0.8,1.1,1.1,1.7
	C211.9,101.4,212.1,102.4,212.1,103.2z"/>
<path class="st2" d="M210.1,103.2c0,1.7-0.5,3-1.5,4.2c-0.1,0.2-0.3,0.3-0.6,0.2c-0.2,0-0.4-0.2-0.4-0.4c0-0.1,0.1-0.3,0.1-0.4
	c0.6-0.7,1-1.5,1.2-2.4c0.3-1.5-0.1-2.9-1.1-4.2c-0.1-0.1-0.2-0.3-0.2-0.4c0-0.2,0.2-0.3,0.4-0.4c0.3-0.1,0.4,0,0.6,0.2
	c0.6,0.7,1.1,1.5,1.3,2.3C210,102.4,210,103,210.1,103.2z"/>
<path class="st2" d="M208,103.3c0,1.3-0.4,2.3-1.3,3.2c-0.2,0.3-0.6,0.3-0.8,0.1c-0.2-0.2-0.3-0.4-0.1-0.7c0.8-0.8,1.1-1.8,1-2.8
	c-0.1-0.7-0.4-1.4-0.9-2c-0.1-0.1-0.1-0.1-0.1-0.2c-0.2-0.2-0.1-0.5,0.1-0.6c0.2-0.2,0.6-0.1,0.8,0.1c0.6,0.6,1,1.4,1.2,2.2
	C208,102.9,208,103.2,208,103.3z"/>
<path class="st2" d="M205.9,103.3c0,1-0.4,1.7-1,2.3c-0.4,0.3-0.9,0.2-1-0.1c-0.1-0.2,0-0.3,0.2-0.5c0.5-0.4,0.8-1,0.7-1.6
	c0-0.6-0.3-1.1-0.8-1.5c-0.2-0.2-0.3-0.4-0.1-0.6c0.1-0.2,0.4-0.3,0.6-0.2c0.1,0,0.2,0.1,0.3,0.2
	C205.6,101.9,205.9,102.7,205.9,103.3z"/>
<g>
	
		<image style="overflow:visible;opacity:0.75;enable-background:new    ;" width="767" height="1142" xlink:href="59048245.png"  transform="matrix(0.2389 0 0 0.2389 240.8953 71.3701)">
	</image>
	<g>
		<path class="st1" d="M248.9,305.7V95.9c0-9.1,7.4-16.4,16.4-16.4h120.2c9.1,0,16.4,7.4,16.4,16.4v209.8c0,9.1-7.4,16.4-16.4,16.4
			H265.4C256.3,322.2,248.9,314.8,248.9,305.7z"/>
	</g>
</g>
<path class="st2" d="M261.7,102.9c0-2.8,1-5.2,2.9-7.1c1.9-1.9,4.3-2.8,7-2.8s5.1,1,7,2.8c1.9,1.9,2.9,4.2,2.9,7.1
	c0,2.8-1,5.2-2.9,7.1c-1.9,1.9-4.3,2.8-7,2.8s-5.1-0.9-7-2.8C262.7,108.1,261.7,105.7,261.7,102.9z M263.8,102.9
	c0,2.3,0.7,4.2,2.2,5.7c1.5,1.5,3.4,2.2,5.6,2.2c2.2,0,4.1-0.7,5.6-2.2c1.5-1.5,2.2-3.4,2.2-5.7c0-2.3-0.7-4.2-2.2-5.7
	c-1.5-1.5-3.3-2.3-5.6-2.3c-2.2,0-4.1,0.8-5.6,2.3C264.5,98.8,263.8,100.7,263.8,102.9z"/>
<path class="st2" d="M275.5,102.6c0,2-0.6,3.6-1.7,5c-0.2,0.3-0.5,0.3-0.8,0.2c-0.3-0.2-0.3-0.4-0.1-0.7c1.1-1.4,1.7-3,1.5-4.7
	c-0.1-1.3-0.6-2.6-1.5-3.7c-0.1-0.1-0.2-0.3-0.1-0.4c0.1-0.1,0.3-0.3,0.4-0.3c0.2-0.1,0.4,0,0.5,0.2c0.4,0.6,0.8,1.1,1.1,1.7
	C275.3,100.7,275.5,101.8,275.5,102.6z"/>
<path class="st2" d="M273.5,102.6c0,1.7-0.5,3-1.5,4.2c-0.1,0.2-0.3,0.3-0.6,0.2c-0.2,0-0.4-0.2-0.4-0.4c0-0.1,0.1-0.3,0.1-0.4
	c0.6-0.7,1-1.5,1.2-2.4c0.3-1.5-0.1-2.9-1.1-4.2c-0.1-0.1-0.2-0.3-0.2-0.4c0-0.2,0.2-0.3,0.4-0.4c0.3-0.1,0.4,0,0.6,0.2
	c0.6,0.7,1.1,1.5,1.3,2.3C273.4,101.8,273.4,102.3,273.5,102.6z"/>
<path class="st2" d="M271.4,102.7c0,1.3-0.4,2.3-1.3,3.2c-0.2,0.3-0.5,0.3-0.8,0.1c-0.2-0.2-0.3-0.4,0-0.7c0.8-0.8,1.1-1.8,1-2.8
	c-0.1-0.7-0.4-1.4-0.9-2c0-0.1-0.1-0.1-0.1-0.2c-0.2-0.2-0.1-0.5,0.1-0.6c0.2-0.2,0.5-0.1,0.8,0.1c0.6,0.6,1,1.4,1.2,2.2
	C271.4,102.2,271.4,102.5,271.4,102.7z"/>
<path class="st2" d="M269.3,102.7c0,1-0.4,1.7-1,2.3c-0.4,0.3-0.9,0.2-1-0.1c-0.1-0.2,0-0.3,0.2-0.5c0.5-0.4,0.8-1,0.7-1.6
	c0-0.6-0.3-1.1-0.8-1.5c-0.2-0.2-0.3-0.4-0.1-0.6c0.1-0.2,0.4-0.3,0.6-0.2c0.1,0,0.2,0.1,0.3,0.2C269,101.3,269.3,102,269.3,102.7z"
	/>
<rect x="283" y="158.3" class="st3" width="85" height="85"/>
<g>
	<rect x="313.6" y="163.6" class="st4" width="0.9" height="0.9"/>
	<rect x="328.5" y="163.6" class="st4" width="0.9" height="0.9"/>
	<polygon class="st4" points="340.8,164.5 341.7,164.5 341.7,163.6 340.8,163.6 339.9,163.6 339,163.6 339,164.5 339.9,164.5 	"/>
	<rect x="342.5" y="163.6" class="st4" width="0.9" height="0.9"/>
	<rect x="348.7" y="163.6" class="st4" width="0.9" height="0.9"/>
	<rect x="354.8" y="163.6" class="st4" width="0.9" height="0.9"/>
	<path class="st4" d="M361.8,163.6h-0.9H360h-0.9h-0.9h-0.9h-0.9v0.9v0.9v0.9v0.9v0.9v0.9v0.9h0.9h0.9h0.9h0.9h0.9h0.9h0.9v-0.9V168
		v-0.9v-0.9v-0.9v-0.9v-0.9H361.8z M361.8,165.4v0.9v0.9v0.9v0.9h-0.9H360h-0.9h-0.9h-0.9V168v-0.9v-0.9v-0.9v-0.9h0.9h0.9h0.9h0.9
		h0.9V165.4z"/>
	<polygon class="st4" points="297,165.4 297,164.5 296.1,164.5 295.3,164.5 295.3,165.4 296.1,165.4 	"/>
	<polygon class="st4" points="307.5,165.4 308.4,165.4 309.3,165.4 309.3,164.5 310.1,164.5 310.1,163.6 309.3,163.6 308.4,163.6 
		307.5,163.6 306.6,163.6 306.6,164.5 305.8,164.5 305.8,165.4 306.6,165.4 	"/>
	<polygon class="st4" points="313.6,165.4 313.6,164.5 312.8,164.5 312.8,163.6 311.9,163.6 311.9,164.5 311.9,165.4 312.8,165.4 	
		"/>
	<polygon class="st4" points="327.6,164.5 327.6,163.6 326.8,163.6 326.8,164.5 326.8,165.4 327.6,165.4 	"/>
	<polygon class="st4" points="337.3,164.5 337.3,163.6 336.4,163.6 335.5,163.6 335.5,164.5 336.4,164.5 336.4,165.4 337.3,165.4 	
		"/>
	<rect x="297" y="165.4" class="st4" width="0.9" height="0.9"/>
	<polygon class="st4" points="299.6,165.4 298.8,165.4 298.8,166.3 298.8,167.1 299.6,167.1 299.6,166.3 	"/>
	<polygon class="st4" points="300.5,166.3 301.4,166.3 301.4,165.4 301.4,164.5 302.3,164.5 302.3,163.6 301.4,163.6 300.5,163.6 
		300.5,164.5 299.6,164.5 299.6,165.4 300.5,165.4 	"/>
	<polygon class="st4" points="328.5,166.3 329.4,166.3 329.4,165.4 328.5,165.4 327.6,165.4 327.6,166.3 	"/>
	<polygon class="st4" points="330.3,166.3 331.1,166.3 332,166.3 332.9,166.3 332.9,165.4 333.8,165.4 334.7,165.4 334.7,164.5 
		333.8,164.5 333.8,163.6 332.9,163.6 332.9,164.5 332,164.5 332,163.6 331.1,163.6 330.3,163.6 330.3,164.5 329.4,164.5 
		329.4,165.4 330.3,165.4 	"/>
	<polygon class="st4" points="339,165.4 339,164.5 338.2,164.5 338.2,165.4 338.2,166.3 339,166.3 	"/>
	<rect x="339.9" y="165.4" class="st4" width="0.9" height="0.9"/>
	<rect x="342.5" y="165.4" class="st4" width="0.9" height="0.9"/>
	<polygon class="st4" points="359.2,165.4 358.3,165.4 358.3,166.3 358.3,167.1 358.3,168 359.2,168 360,168 360.9,168 360.9,167.1 
		360.9,166.3 360.9,165.4 360,165.4 	"/>
	<rect x="305.8" y="166.3" class="st4" width="0.9" height="0.9"/>
	<path class="st4" d="M308.4,166.3h-0.9v0.9h-0.9v0.9h0.9v0.9v0.9h-0.9v0.9h0.9v0.9h-0.9v-0.9h-0.9h-0.9v0.9v0.9h0.9h0.9h0.9h0.9
		v-0.9v-0.9h0.9v0.9h0.9h0.9h0.9v0.9H311v0.9h-0.9v0.9v0.9h-0.9h-0.9h-0.9v0.9h0.9v0.9h0.9v-0.9h0.9h0.9h0.9v-0.9v-0.9h0.9v-0.9
		v-0.9v-0.9h0.9v0.9h0.9v-0.9h0.9v0.9v0.9v0.9h-0.9v0.9v0.9h0.9h0.9v-0.9v-0.9h0.9v0.9h0.9v-0.9v-0.9h0.9v0.9v0.9h-0.9v0.9v0.9v0.9
		v0.9h0.9v0.9h-0.9v0.9h0.9h0.9v-0.9v-0.9h0.9h0.9v-0.9h-0.9v-0.9v-0.9h-0.9v0.9H319v-0.9h0.9v-0.9h0.9v-0.9v-0.9h-0.9v-0.9H319
		v-0.9v-0.9h-0.9h-0.9v-0.9v-0.9h0.9v0.9h0.9v-0.9h0.9V168H319h-0.9v-0.9h0.9v-0.9h-0.9v-0.9h-0.9v-0.9h0.9h0.9h0.9v0.9v0.9v0.9v0.9
		h0.9v-0.9v-0.9h0.9h0.9v-0.9h0.9v0.9h-0.9v0.9h0.9h0.9h0.9v-0.9v-0.9v-0.9v-0.9h-0.9v0.9h-0.9v-0.9h-0.9h-0.9h-0.9h-0.9H319h-0.9
		h-0.9h-0.9h-0.9v0.9h0.9v0.9v0.9h0.9v0.9h-0.9h-0.9v-0.9h-0.9v-0.9h-0.9v0.9v0.9h-0.9v-0.9h-0.9v-0.9H311v0.9v0.9h-0.9v-0.9v-0.9
		h-0.9v0.9H308.4z M321.5,164.5v0.9h-0.9v-0.9H321.5z M317.1,172.4v0.9h-0.9v-0.9v-0.9h0.9V172.4z M314.5,168h0.9h0.9v0.9v0.9v0.9
		h-0.9h-0.9h-0.9v-0.9v-0.9V168H314.5z M311,168.9V168h0.9v0.9h0.9v0.9v0.9h-0.9H311h-0.9v-0.9v-0.9h-0.9v0.9h-0.9v-0.9V168h0.9h0.9
		v0.9H311z"/>
	<path class="st4" d="M333.8,166.3v0.9v0.9v0.9v0.9h-0.9v-0.9V168v-0.9H332h-0.9h-0.9v0.9h0.9h0.9v0.9v0.9h-0.9v0.9v0.9h0.9v-0.9
		h0.9v0.9h0.9h0.9h0.9h0.9v0.9h-0.9v0.9v0.9h0.9h0.9v0.9h0.9v-0.9h0.9v-0.9v-0.9h-0.9v0.9h-0.9v-0.9v-0.9h0.9h0.9h0.9h0.9h0.9h0.9
		v-0.9h-0.9v-0.9v-0.9h-0.9v0.9h-0.9v0.9h-0.9v-0.9h-0.9v-0.9V168h0.9v-0.9h-0.9h-0.9h-0.9h-0.9v-0.9h0.9v-0.9h-0.9h-0.9v0.9H333.8z
		 M336.4,168h0.9v0.9v0.9v0.9h-0.9h-0.9h-0.9v-0.9v-0.9V168h0.9H336.4z"/>
	<rect x="340.8" y="166.3" class="st4" width="0.9" height="0.9"/>
	<rect x="344.3" y="166.3" class="st4" width="0.9" height="0.9"/>
	<rect x="353.9" y="166.3" class="st4" width="0.9" height="0.9"/>
	<polygon class="st4" points="291.8,168 292.6,168 292.6,167.1 292.6,166.3 292.6,165.4 291.8,165.4 290.9,165.4 290,165.4 
		290,166.3 290,167.1 290,168 290.9,168 	"/>
	<rect x="297" y="167.1" class="st4" width="0.9" height="0.9"/>
	<rect x="299.6" y="167.1" class="st4" width="0.9" height="0.9"/>
	<polygon class="st4" points="301.4,168 302.3,168 302.3,167.1 302.3,166.3 301.4,166.3 301.4,167.1 	"/>
	<rect x="339.9" y="167.1" class="st4" width="0.9" height="0.9"/>
	<polygon class="st4" points="343.4,167.1 342.5,167.1 342.5,168 342.5,168.9 342.5,169.8 343.4,169.8 343.4,168.9 343.4,168 
		344.3,168 344.3,167.1 	"/>
	<rect x="297.9" y="168" class="st4" width="0.9" height="0.9"/>
	<polygon class="st4" points="301.4,168 300.5,168 300.5,168.9 300.5,169.8 301.4,169.8 301.4,168.9 	"/>
	<rect x="320.6" y="168" class="st4" width="0.9" height="0.9"/>
	<polygon class="st4" points="325,168.9 325,169.8 324.1,169.8 324.1,170.6 325,170.6 325.9,170.6 325.9,169.8 325.9,168.9 
		325.9,168 326.8,168 326.8,167.1 326.8,166.3 326.8,165.4 325.9,165.4 325.9,166.3 325.9,167.1 325,167.1 325,168 	"/>
	<rect x="346.9" y="168" class="st4" width="0.9" height="0.9"/>
	<rect x="353.9" y="168" class="st4" width="0.9" height="0.9"/>
	<path class="st4" d="M290,169.8h0.9h0.9h0.9h0.9h0.9v-0.9V168v-0.9v-0.9v-0.9v-0.9v-0.9h-0.9h-0.9h-0.9h-0.9H290h-0.9h-0.9v0.9v0.9
		v0.9v0.9v0.9v0.9v0.9h0.9H290z M289.1,168v-0.9v-0.9v-0.9v-0.9h0.9h0.9h0.9h0.9h0.9v0.9v0.9v0.9v0.9v0.9h-0.9h-0.9h-0.9H290h-0.9
		V168z"/>
	<rect x="297" y="168.9" class="st4" width="0.9" height="0.9"/>
	<rect x="302.3" y="168.9" class="st4" width="0.9" height="0.9"/>
	<polygon class="st4" points="304.9,168.9 304.9,168 304.9,167.1 304.9,166.3 305.8,166.3 305.8,165.4 304.9,165.4 304.9,164.5 
		304,164.5 304,163.6 303.1,163.6 303.1,164.5 303.1,165.4 304,165.4 304,166.3 303.1,166.3 303.1,167.1 304,167.1 304,168 
		304,168.9 304,169.8 304.9,169.8 	"/>
	<rect x="305.8" y="168.9" class="st4" width="0.9" height="0.9"/>
	<rect x="311" y="168.9" class="st4" width="0.9" height="0.9"/>
	<rect x="314.5" y="168.9" class="st4" width="0.9" height="0.9"/>
	<rect x="321.5" y="168.9" class="st4" width="0.9" height="0.9"/>
	<rect x="323.3" y="168.9" class="st4" width="0.9" height="0.9"/>
	<rect x="330.3" y="168.9" class="st4" width="0.9" height="0.9"/>
	<rect x="335.5" y="168.9" class="st4" width="0.9" height="0.9"/>
	<rect x="339" y="168.9" class="st4" width="0.9" height="0.9"/>
	<rect x="346" y="168.9" class="st4" width="0.9" height="0.9"/>
	<rect x="347.8" y="168.9" class="st4" width="0.9" height="0.9"/>
	<rect x="353" y="168.9" class="st4" width="0.9" height="0.9"/>
	<rect x="354.8" y="168.9" class="st4" width="0.9" height="0.9"/>
	<polygon class="st4" points="297,170.6 297,169.8 296.1,169.8 296.1,168.9 296.1,168 295.3,168 295.3,168.9 295.3,169.8 
		295.3,170.6 296.1,170.6 	"/>
	<polygon class="st4" points="297.9,169.8 297.9,170.6 297,170.6 297,171.5 297,172.4 297.9,172.4 298.8,172.4 298.8,173.3 
		298.8,174.1 299.6,174.1 299.6,173.3 299.6,172.4 300.5,172.4 300.5,173.3 300.5,174.1 299.6,174.1 299.6,175 299.6,175.9 
		300.5,175.9 301.4,175.9 301.4,175 301.4,174.1 301.4,173.3 302.3,173.3 302.3,172.4 301.4,172.4 301.4,171.5 301.4,170.6 
		300.5,170.6 299.6,170.6 299.6,171.5 298.8,171.5 298.8,170.6 299.6,170.6 299.6,169.8 299.6,168.9 298.8,168.9 298.8,169.8 	"/>
	<rect x="301.4" y="169.8" class="st4" width="0.9" height="0.9"/>
	<rect x="303.1" y="169.8" class="st4" width="0.9" height="0.9"/>
	<polygon class="st4" points="327.6,169.8 327.6,168.9 326.8,168.9 326.8,169.8 326.8,170.6 327.6,170.6 	"/>
	<polygon class="st4" points="294.4,170.6 293.5,170.6 292.6,170.6 291.8,170.6 291.8,171.5 292.6,171.5 293.5,171.5 294.4,171.5 
		295.3,171.5 295.3,170.6 	"/>
	<polygon class="st4" points="357.4,170.6 356.5,170.6 356.5,171.5 356.5,172.4 357.4,172.4 357.4,171.5 358.3,171.5 358.3,170.6 	
		"/>
	<rect x="360.9" y="170.6" class="st4" width="0.9" height="0.9"/>
	<rect x="288.3" y="171.5" class="st4" width="0.9" height="0.9"/>
	<rect x="290" y="171.5" class="st4" width="0.9" height="0.9"/>
	<polygon class="st4" points="296.1,171.5 295.3,171.5 295.3,172.4 295.3,173.3 296.1,173.3 296.1,172.4 	"/>
	<polygon class="st4" points="304,172.4 304,171.5 303.1,171.5 303.1,170.6 302.3,170.6 302.3,171.5 302.3,172.4 303.1,172.4 	"/>
	<polygon class="st4" points="321.5,172.4 322.4,172.4 322.4,171.5 323.3,171.5 324.1,171.5 324.1,170.6 323.3,170.6 322.4,170.6 
		321.5,170.6 320.6,170.6 320.6,169.8 320.6,168.9 319.8,168.9 319.8,169.8 318.9,169.8 318.9,170.6 319.8,170.6 319.8,171.5 
		319.8,172.4 320.6,172.4 	"/>
	<polygon class="st4" points="325.9,172.4 326.8,172.4 327.6,172.4 328.5,172.4 329.4,172.4 329.4,171.5 329.4,170.6 329.4,169.8 
		329.4,168.9 329.4,168 328.5,168 327.6,168 327.6,168.9 328.5,168.9 328.5,169.8 328.5,170.6 328.5,171.5 327.6,171.5 326.8,171.5 
		326.8,170.6 325.9,170.6 325.9,171.5 	"/>
	<polygon class="st4" points="355.7,171.5 354.8,171.5 354.8,170.6 354.8,169.8 353.9,169.8 353.9,170.6 353.9,171.5 353,171.5 
		353,170.6 352.2,170.6 352.2,169.8 352.2,168.9 352.2,168 353,168 353.9,168 353.9,167.1 353,167.1 352.2,167.1 352.2,166.3 
		353,166.3 353.9,166.3 353.9,165.4 354.8,165.4 354.8,164.5 353.9,164.5 353.9,163.6 353,163.6 352.2,163.6 352.2,164.5 353,164.5 
		353,165.4 352.2,165.4 351.3,165.4 351.3,166.3 350.4,166.3 350.4,165.4 350.4,164.5 349.5,164.5 349.5,165.4 348.7,165.4 
		348.7,164.5 347.8,164.5 347.8,163.6 346.9,163.6 346,163.6 345.2,163.6 344.3,163.6 344.3,164.5 345.2,164.5 345.2,165.4 
		346,165.4 346,164.5 346.9,164.5 346.9,165.4 346.9,166.3 346,166.3 346,167.1 345.2,167.1 345.2,168 346,168 346.9,168 
		346.9,167.1 347.8,167.1 347.8,166.3 348.7,166.3 349.5,166.3 349.5,167.1 348.7,167.1 347.8,167.1 347.8,168 348.7,168 
		348.7,168.9 349.5,168.9 349.5,168 350.4,168 351.3,168 351.3,168.9 351.3,169.8 350.4,169.8 350.4,168.9 349.5,168.9 349.5,169.8 
		348.7,169.8 348.7,170.6 347.8,170.6 346.9,170.6 346,170.6 346,169.8 345.2,169.8 345.2,168.9 345.2,168 344.3,168 344.3,168.9 
		344.3,169.8 344.3,170.6 345.2,170.6 345.2,171.5 344.3,171.5 344.3,172.4 343.4,172.4 343.4,171.5 342.5,171.5 342.5,172.4 
		342.5,173.3 343.4,173.3 343.4,174.1 343.4,175 343.4,175.9 344.3,175.9 344.3,176.8 344.3,177.6 343.4,177.6 343.4,176.8 
		342.5,176.8 342.5,177.6 342.5,178.5 343.4,178.5 343.4,179.4 343.4,180.3 344.3,180.3 344.3,181.1 344.3,182 343.4,182 342.5,182 
		341.7,182 341.7,181.1 340.8,181.1 339.9,181.1 339.9,182 340.8,182 340.8,182.9 341.7,182.9 342.5,182.9 343.4,182.9 343.4,183.8 
		342.5,183.8 342.5,184.6 343.4,184.6 344.3,184.6 344.3,183.8 345.2,183.8 345.2,182.9 345.2,182 345.2,181.1 346,181.1 346,180.3 
		345.2,180.3 345.2,179.4 344.3,179.4 344.3,178.5 345.2,178.5 345.2,177.6 346,177.6 346,176.8 345.2,176.8 345.2,175.9 346,175.9 
		346,175 346.9,175 346.9,174.1 346,174.1 346,173.3 345.2,173.3 345.2,174.1 345.2,175 344.3,175 344.3,174.1 344.3,173.3 
		345.2,173.3 345.2,172.4 346,172.4 346,171.5 346.9,171.5 347.8,171.5 348.7,171.5 349.5,171.5 350.4,171.5 351.3,171.5 
		352.2,171.5 352.2,172.4 352.2,173.3 353,173.3 353,172.4 353.9,172.4 354.8,172.4 354.8,173.3 353.9,173.3 353,173.3 353,174.1 
		353,175 353.9,175 353.9,174.1 354.8,174.1 354.8,175 354.8,175.9 354.8,176.8 355.7,176.8 355.7,177.6 356.5,177.6 356.5,178.5 
		357.4,178.5 358.3,178.5 358.3,179.4 359.2,179.4 359.2,178.5 359.2,177.6 358.3,177.6 358.3,176.8 358.3,175.9 357.4,175.9 
		357.4,176.8 356.5,176.8 356.5,175.9 357.4,175.9 357.4,175 357.4,174.1 356.5,174.1 356.5,173.3 356.5,172.4 355.7,172.4 	"/>
	<polygon class="st4" points="359.2,171.5 358.3,171.5 358.3,172.4 358.3,173.3 359.2,173.3 360,173.3 360,172.4 359.2,172.4 	"/>
	<rect x="360" y="171.5" class="st4" width="0.9" height="0.9"/>
	<rect x="361.8" y="171.5" class="st4" width="0.9" height="0.9"/>
	<rect x="304" y="172.4" class="st4" width="0.9" height="0.9"/>
	<rect x="309.3" y="172.4" class="st4" width="0.9" height="0.9"/>
	<polygon class="st4" points="324.1,172.4 323.3,172.4 323.3,173.3 323.3,174.1 324.1,174.1 324.1,173.3 	"/>
	<rect x="329.4" y="172.4" class="st4" width="0.9" height="0.9"/>
	<rect x="350.4" y="172.4" class="st4" width="0.9" height="0.9"/>
	<rect x="288.3" y="173.3" class="st4" width="0.9" height="0.9"/>
	<polygon class="st4" points="303.1,174.1 303.1,175 304,175 304,174.1 304,173.3 303.1,173.3 302.3,173.3 302.3,174.1 	"/>
	<polygon class="st4" points="305.8,174.1 306.6,174.1 306.6,173.3 305.8,173.3 304.9,173.3 304.9,174.1 	"/>
	<rect x="321.5" y="173.3" class="st4" width="0.9" height="0.9"/>
	<rect x="325" y="173.3" class="st4" width="0.9" height="0.9"/>
	<rect x="346.9" y="173.3" class="st4" width="0.9" height="0.9"/>
	<rect x="351.3" y="173.3" class="st4" width="0.9" height="0.9"/>
	<polygon class="st4" points="360.9,174.1 360.9,175 361.8,175 362.7,175 362.7,174.1 361.8,174.1 361.8,173.3 360.9,173.3 
		360,173.3 360,174.1 	"/>
	<rect x="306.6" y="174.1" class="st4" width="0.9" height="0.9"/>
	<rect x="326.8" y="174.1" class="st4" width="0.9" height="0.9"/>
	<polygon class="st4" points="328.5,175 329.4,175 329.4,174.1 329.4,173.3 328.5,173.3 327.6,173.3 327.6,174.1 328.5,174.1 	"/>
	<polygon class="st4" points="330.3,175 331.1,175 332,175 332.9,175 332.9,174.1 333.8,174.1 333.8,175 333.8,175.9 332.9,175.9 
		332.9,176.8 332,176.8 331.1,176.8 330.3,176.8 330.3,177.6 329.4,177.6 329.4,178.5 330.3,178.5 330.3,179.4 330.3,180.3 
		331.1,180.3 331.1,179.4 331.1,178.5 332,178.5 332.9,178.5 333.8,178.5 333.8,177.6 333.8,176.8 334.7,176.8 334.7,175.9 
		335.5,175.9 336.4,175.9 337.3,175.9 337.3,175 336.4,175 335.5,175 335.5,174.1 334.7,174.1 334.7,173.3 333.8,173.3 332.9,173.3 
		332.9,172.4 332.9,171.5 332,171.5 332,172.4 331.1,172.4 331.1,173.3 332,173.3 332,174.1 331.1,174.1 331.1,173.3 330.3,173.3 
		330.3,174.1 	"/>
	<polygon class="st4" points="339.9,175 340.8,175 341.7,175 341.7,174.1 340.8,174.1 340.8,173.3 341.7,173.3 341.7,172.4 
		340.8,172.4 339.9,172.4 339.9,173.3 339.9,174.1 339,174.1 339,175 	"/>
	<rect x="290" y="175" class="st4" width="0.9" height="0.9"/>
	<rect x="302.3" y="175" class="st4" width="0.9" height="0.9"/>
	<polygon class="st4" points="312.8,175.9 312.8,176.8 313.6,176.8 313.6,175.9 313.6,175 313.6,174.1 312.8,174.1 312.8,175 	"/>
	<polygon class="st4" points="342.5,175 341.7,175 341.7,175.9 340.8,175.9 339.9,175.9 339,175.9 339,176.8 339.9,176.8 
		339.9,177.6 340.8,177.6 340.8,176.8 341.7,176.8 342.5,176.8 342.5,175.9 	"/>
	<polygon class="st4" points="359.2,175 359.2,174.1 358.3,174.1 358.3,175 358.3,175.9 359.2,175.9 	"/>
	<rect x="296.1" y="175.9" class="st4" width="0.9" height="0.9"/>
	<rect x="303.1" y="175.9" class="st4" width="0.9" height="0.9"/>
	<polygon class="st4" points="328.5,175.9 328.5,175 327.6,175 327.6,175.9 327.6,176.8 328.5,176.8 328.5,177.6 329.4,177.6 
		329.4,176.8 330.3,176.8 330.3,175.9 330.3,175 329.4,175 329.4,175.9 	"/>
	<polygon class="st4" points="338.2,175.9 337.3,175.9 337.3,176.8 337.3,177.6 338.2,177.6 338.2,178.5 339,178.5 339,177.6 
		339,176.8 338.2,176.8 	"/>
	<polygon class="st4" points="295.3,176.8 295.3,175.9 296.1,175.9 296.1,175 297,175 297.9,175 298.8,175 298.8,174.1 297.9,174.1 
		297,174.1 297,173.3 296.1,173.3 296.1,174.1 295.3,174.1 295.3,175 294.4,175 294.4,175.9 293.5,175.9 293.5,175 294.4,175 
		294.4,174.1 293.5,174.1 293.5,173.3 294.4,173.3 294.4,172.4 293.5,172.4 292.6,172.4 291.8,172.4 290.9,172.4 290.9,173.3 
		290,173.3 290,174.1 290.9,174.1 291.8,174.1 291.8,173.3 292.6,173.3 292.6,174.1 291.8,174.1 291.8,175 292.6,175 292.6,175.9 
		292.6,176.8 293.5,176.8 294.4,176.8 294.4,177.6 295.3,177.6 	"/>
	<polygon class="st4" points="298.8,177.6 298.8,176.8 298.8,175.9 297.9,175.9 297.9,176.8 297,176.8 297,177.6 297,178.5 
		297.9,178.5 297.9,177.6 	"/>
	<polygon class="st4" points="300.5,176.8 300.5,177.6 301.4,177.6 301.4,178.5 301.4,179.4 302.3,179.4 303.1,179.4 303.1,180.3 
		303.1,181.1 303.1,182 302.3,182 301.4,182 300.5,182 300.5,182.9 299.6,182.9 299.6,183.8 300.5,183.8 301.4,183.8 301.4,182.9 
		302.3,182.9 302.3,183.8 301.4,183.8 301.4,184.6 302.3,184.6 303.1,184.6 303.1,183.8 303.1,182.9 304,182.9 304,182 304,181.1 
		304,180.3 304,179.4 304.9,179.4 304.9,178.5 304,178.5 303.1,178.5 303.1,177.6 302.3,177.6 302.3,176.8 302.3,175.9 301.4,175.9 
		301.4,176.8 	"/>
	<polygon class="st4" points="307.5,177.6 306.6,177.6 306.6,176.8 306.6,175.9 305.8,175.9 305.8,175 304.9,175 304,175 304,175.9 
		304.9,175.9 304.9,176.8 305.8,176.8 305.8,177.6 304.9,177.6 304.9,178.5 305.8,178.5 306.6,178.5 307.5,178.5 308.4,178.5 
		309.3,178.5 309.3,177.6 308.4,177.6 308.4,176.8 307.5,176.8 	"/>
	<rect x="309.3" y="176.8" class="st4" width="0.9" height="0.9"/>
	<polygon class="st4" points="316.3,177.6 317.1,177.6 317.1,176.8 317.1,175.9 316.3,175.9 316.3,176.8 	"/>
	<polygon class="st4" points="322.4,176.8 322.4,175.9 323.3,175.9 324.1,175.9 325,175.9 325,176.8 324.1,176.8 323.3,176.8 
		323.3,177.6 323.3,178.5 322.4,178.5 322.4,179.4 323.3,179.4 324.1,179.4 324.1,178.5 324.1,177.6 325,177.6 325,178.5 325,179.4 
		325.9,179.4 326.8,179.4 326.8,178.5 326.8,177.6 325.9,177.6 325.9,176.8 325.9,175.9 326.8,175.9 326.8,175 325.9,175 325,175 
		325,174.1 324.1,174.1 324.1,175 323.3,175 323.3,174.1 322.4,174.1 322.4,175 321.5,175 321.5,175.9 321.5,176.8 321.5,177.6 
		322.4,177.6 	"/>
	<rect x="326.8" y="176.8" class="st4" width="0.9" height="0.9"/>
	<polygon class="st4" points="352.2,176.8 352.2,175.9 353,175.9 353,175 352.2,175 351.3,175 350.4,175 350.4,174.1 349.5,174.1 
		349.5,173.3 349.5,172.4 348.7,172.4 348.7,173.3 348.7,174.1 348.7,175 349.5,175 349.5,175.9 350.4,175.9 350.4,176.8 
		351.3,176.8 351.3,177.6 350.4,177.6 350.4,178.5 351.3,178.5 352.2,178.5 352.2,179.4 353,179.4 353.9,179.4 353.9,178.5 
		353,178.5 353,177.6 352.2,177.6 	"/>
	<polygon class="st4" points="353,176.8 353,177.6 353.9,177.6 354.8,177.6 354.8,176.8 353.9,176.8 	"/>
	<polygon class="st4" points="359.2,177.6 360,177.6 360,176.8 360.9,176.8 361.8,176.8 361.8,175.9 360.9,175.9 360,175.9 
		359.2,175.9 359.2,176.8 	"/>
	<polygon class="st4" points="289.1,177.6 290,177.6 290.9,177.6 291.8,177.6 291.8,176.8 290.9,176.8 290,176.8 290,175.9 
		289.1,175.9 289.1,175 288.3,175 288.3,175.9 288.3,176.8 288.3,177.6 288.3,178.5 289.1,178.5 	"/>
	<rect x="299.6" y="177.6" class="st4" width="0.9" height="0.9"/>
	<rect x="310.1" y="177.6" class="st4" width="0.9" height="0.9"/>
	<polygon class="st4" points="316.3,178.5 316.3,177.6 315.4,177.6 315.4,176.8 314.5,176.8 314.5,177.6 314.5,178.5 315.4,178.5 	
		"/>
	<rect x="327.6" y="177.6" class="st4" width="0.9" height="0.9"/>
	<polygon class="st4" points="336.4,178.5 336.4,179.4 337.3,179.4 337.3,178.5 337.3,177.6 336.4,177.6 	"/>
	<rect x="340.8" y="177.6" class="st4" width="0.9" height="0.9"/>
	<polygon class="st4" points="360.9,177.6 360,177.6 360,178.5 360.9,178.5 361.8,178.5 362.7,178.5 362.7,177.6 362.7,176.8 
		361.8,176.8 361.8,177.6 	"/>
	<rect x="309.3" y="178.5" class="st4" width="0.9" height="0.9"/>
	<polygon class="st4" points="328.5,179.4 328.5,180.3 329.4,180.3 329.4,179.4 329.4,178.5 328.5,178.5 	"/>
	<rect x="333.8" y="178.5" class="st4" width="0.9" height="0.9"/>
	<polygon class="st4" points="339,178.5 339,179.4 339.9,179.4 339.9,180.3 340.8,180.3 340.8,179.4 340.8,178.5 339.9,178.5 	"/>
	<rect x="348.7" y="178.5" class="st4" width="0.9" height="0.9"/>
	<rect x="288.3" y="179.4" class="st4" width="0.9" height="0.9"/>
	<rect x="306.6" y="179.4" class="st4" width="0.9" height="0.9"/>
	<rect x="308.4" y="179.4" class="st4" width="0.9" height="0.9"/>
	<polygon class="st4" points="311,180.3 311,181.1 311.9,181.1 311.9,182 311.9,182.9 311.9,183.8 312.8,183.8 312.8,182.9 
		313.6,182.9 313.6,182 313.6,181.1 313.6,180.3 312.8,180.3 312.8,179.4 311.9,179.4 311,179.4 310.1,179.4 310.1,180.3 	"/>
	<polygon class="st4" points="313.6,180.3 314.5,180.3 314.5,179.4 314.5,178.5 313.6,178.5 312.8,178.5 312.8,179.4 313.6,179.4 	
		"/>
	<rect x="315.4" y="179.4" class="st4" width="0.9" height="0.9"/>
	<polygon class="st4" points="332.9,180.3 332,180.3 332,181.1 332.9,181.1 333.8,181.1 333.8,180.3 333.8,179.4 332.9,179.4 	"/>
	<polygon class="st4" points="337.3,179.4 337.3,180.3 336.4,180.3 336.4,181.1 336.4,182 337.3,182 337.3,182.9 336.4,182.9 
		336.4,182 335.5,182 335.5,182.9 335.5,183.8 335.5,184.6 336.4,184.6 337.3,184.6 338.2,184.6 339,184.6 339,185.5 339.9,185.5 
		339.9,184.6 339.9,183.8 339,183.8 339,182.9 338.2,182.9 338.2,182 339,182 339,181.1 339,180.3 339,179.4 338.2,179.4 	"/>
	<polygon class="st4" points="346.9,179.4 347.8,179.4 347.8,178.5 347.8,177.6 348.7,177.6 349.5,177.6 349.5,176.8 348.7,176.8 
		348.7,175.9 347.8,175.9 347.8,176.8 346.9,176.8 346.9,177.6 346.9,178.5 346,178.5 345.2,178.5 345.2,179.4 346,179.4 346,180.3 
		346.9,180.3 	"/>
	<polygon class="st4" points="350.4,179.4 349.5,179.4 349.5,180.3 349.5,181.1 348.7,181.1 348.7,182 348.7,182.9 348.7,183.8 
		348.7,184.6 349.5,184.6 349.5,185.5 350.4,185.5 350.4,184.6 350.4,183.8 349.5,183.8 349.5,182.9 349.5,182 350.4,182 
		350.4,181.1 351.3,181.1 351.3,180.3 352.2,180.3 352.2,179.4 351.3,179.4 	"/>
	<polygon class="st4" points="356.5,180.3 355.7,180.3 355.7,181.1 355.7,182 356.5,182 356.5,181.1 357.4,181.1 357.4,180.3 
		357.4,179.4 356.5,179.4 	"/>
	<polygon class="st4" points="304.9,181.1 305.8,181.1 305.8,182 306.6,182 306.6,181.1 306.6,180.3 305.8,180.3 305.8,179.4 
		304.9,179.4 304.9,180.3 	"/>
	<polygon class="st4" points="308.4,180.3 307.5,180.3 307.5,181.1 307.5,182 308.4,182 308.4,181.1 	"/>
	<rect x="309.3" y="180.3" class="st4" width="0.9" height="0.9"/>
	<rect x="327.6" y="180.3" class="st4" width="0.9" height="0.9"/>
	<polygon class="st4" points="335.5,180.3 335.5,179.4 334.7,179.4 334.7,180.3 334.7,181.1 334.7,182 335.5,182 335.5,181.1 	"/>
	<rect x="342.5" y="180.3" class="st4" width="0.9" height="0.9"/>
	<rect x="347.8" y="180.3" class="st4" width="0.9" height="0.9"/>
	<polygon class="st4" points="359.2,180.3 358.3,180.3 358.3,181.1 359.2,181.1 360,181.1 360,180.3 	"/>
	<polygon class="st4" points="361.8,180.3 362.7,180.3 362.7,179.4 361.8,179.4 360.9,179.4 360.9,180.3 360.9,181.1 361.8,181.1 	
		"/>
	<polygon class="st4" points="290,181.1 290.9,181.1 290.9,180.3 290.9,179.4 291.8,179.4 292.6,179.4 292.6,180.3 292.6,181.1 
		292.6,182 293.5,182 294.4,182 295.3,182 295.3,181.1 294.4,181.1 293.5,181.1 293.5,180.3 294.4,180.3 294.4,179.4 293.5,179.4 
		293.5,178.5 294.4,178.5 294.4,177.6 293.5,177.6 292.6,177.6 292.6,178.5 291.8,178.5 290.9,178.5 290,178.5 290,179.4 290,180.3 
		289.1,180.3 289.1,181.1 288.3,181.1 288.3,182 288.3,182.9 288.3,183.8 289.1,183.8 289.1,182.9 290,182.9 290,182 	"/>
	<rect x="299.6" y="181.1" class="st4" width="0.9" height="0.9"/>
	<rect x="328.5" y="181.1" class="st4" width="0.9" height="0.9"/>
	<rect x="360" y="181.1" class="st4" width="0.9" height="0.9"/>
	<rect x="291.8" y="182" class="st4" width="0.9" height="0.9"/>
	<polygon class="st4" points="305.8,182 304.9,182 304.9,182.9 304.9,183.8 305.8,183.8 305.8,182.9 	"/>
	<rect x="314.5" y="182" class="st4" width="0.9" height="0.9"/>
	<rect x="339" y="182" class="st4" width="0.9" height="0.9"/>
	<polygon class="st4" points="293.5,182.9 292.6,182.9 292.6,183.8 293.5,183.8 294.4,183.8 294.4,182.9 	"/>
	<rect x="325" y="182.9" class="st4" width="0.9" height="0.9"/>
	<path class="st4" d="M331.1,183.8v-0.9V182v-0.9h-0.9v0.9h-0.9v0.9h-0.9h-0.9V182h-0.9v-0.9v-0.9h-0.9H325v-0.9h-0.9v0.9v0.9h-0.9
		v-0.9h-0.9v-0.9h-0.9h-0.9v0.9v0.9h0.9v0.9v0.9h-0.9V182v-0.9h-0.9v0.9h-0.9v0.9h0.9v0.9h0.9h0.9h0.9v0.9h0.9h0.9h0.9v-0.9h-0.9
		h-0.9v-0.9h0.9V182h0.9v-0.9h0.9v0.9v0.9h0.9v0.9h-0.9v0.9v0.9h0.9v0.9v0.9h-0.9v0.9v0.9H325v-0.9v-0.9h-0.9v-0.9h0.9h0.9v-0.9H325
		h-0.9h-0.9v0.9h-0.9v-0.9v-0.9h-0.9v0.9h-0.9v-0.9h-0.9h-0.9v0.9v0.9v0.9h-0.9v0.9h-0.9h-0.9v-0.9h-0.9v-0.9v-0.9v-0.9h-0.9h-0.9
		v0.9v0.9h0.9v0.9h-0.9v-0.9h-0.9v0.9v0.9v0.9h-0.9v-0.9h-0.9H310h-0.9h-0.9v-0.9h0.9h0.9h0.9h0.9v-0.9h-0.9H310h-0.9h-0.9v-0.9
		v-0.9h0.9v0.9h0.9v-0.9h0.9v0.9h0.9v0.9h0.9v-0.9v-0.9h-0.9v-0.9h-0.9H310v-0.9h-0.9V182h-0.9v0.9h-0.9h-0.9v0.9h0.9v0.9h-0.9v0.9
		h-0.9h-0.9h-0.9v0.9H303v-0.9h-0.9v0.9h-0.9v0.9h0.9v0.9v0.9v0.9h0.9v0.9h0.9v0.9h0.9v0.9h0.9v-0.9h0.9v-0.9h-0.9v-0.9h-0.9h-0.9
		v-0.9H303v-0.9v-0.9h0.9v0.9v0.9h0.9v-0.9v-0.9v-0.9h0.9v0.9v0.9v0.9v0.9h0.9v-0.9v-0.9v-0.9v-0.9h0.9v0.9v0.9v0.9v0.9h-0.9v0.9
		h0.9v0.9h0.9h0.9v-0.9h0.9v-0.9h-0.9h-0.9v-0.9h0.9h0.9h0.9v0.9h0.9v0.9h-0.9v0.9v0.9v0.9v0.9h0.9v-0.9h0.9v-0.9h-0.9v-0.9h0.9v0.9
		h0.9v0.9h0.9h0.9h0.9h0.9v-0.9v-0.9h0.9h0.9v0.9h-0.9v0.9h0.9h0.9v0.9h0.9h0.9h0.9h0.9h0.9v-0.9h-0.9h-0.9v-0.9h-0.9v0.9h-0.9v-0.9
		h-0.9v-0.9v-0.9h-0.9h-0.9h-0.9v-0.9v-0.9h0.9h0.9v-0.9h0.9v-0.9h0.9v-0.9h0.9v0.9h0.9h0.9v0.9v0.9h-0.9v0.9v0.9h0.9v-0.9h0.9v0.9
		h-0.9v0.9h0.9h0.9v-0.9h0.9v0.9H325v0.9h0.9v0.9h0.9v0.9h-0.9H325v0.9h0.9v0.9h0.9v-0.9h0.9h0.9v0.9h0.9h0.9v0.9h-0.9h-0.9v0.9h0.9
		v0.9h0.9h0.9v0.9h-0.9v0.9v0.9h0.9v-0.9h0.9v-0.9v-0.9v-0.9V197h-0.9v-0.9v-0.9h0.9v-0.9h-0.9v-0.9h0.9v-0.9h-0.9h-0.9v-0.9v-0.9
		h-0.9h-0.9v0.9v0.9h0.9v0.9h0.9v0.9v0.9h-0.9v-0.9v-0.9h-0.9v0.9h-0.9v-0.9h0.9v-0.9h-0.9h-0.9v-0.9v-0.9h0.9h0.9v-0.9h-0.9v-0.9
		h-0.9v-0.9h0.9h0.9v0.9v0.9h0.9v-0.9v-0.9v-0.9v-0.9h-0.9h-0.9v-0.9v-0.9h0.9v-0.9h0.9v0.9h0.9v-0.9H331.1z M316.3,189.9v0.9v0.9
		h-0.9h-0.9h-0.9v-0.9v-0.9V189h0.9h0.9h0.9V189.9z"/>
	<rect x="339.9" y="182.9" class="st4" width="0.9" height="0.9"/>
	<path class="st4" d="M350.4,183.8h0.9v-0.9h0.9h0.9v0.9v0.9h0.9v0.9v0.9h0.9v0.9h-0.9v0.9h-0.9v0.9h0.9h0.9v0.9h-0.9v0.9h0.9v0.9
		v0.9h0.9v0.9h-0.9v0.9h-0.9v-0.9h0.9v-0.9h-0.9h-0.9v0.9h-0.9h-0.9h-0.9h-0.9v0.9h-0.9v0.9h0.9v0.9h0.9v-0.9h0.9v0.9h0.9v-0.9h0.9
		h0.9h0.9v0.9h0.9v0.9h0.9v0.9h0.9v0.9v0.9h0.9v-0.9h0.9v0.9v0.9h0.9v-0.9v-0.9v-0.9h0.9V197h-0.9v-0.9v-0.9v-0.9v-0.9v-0.9h-0.9
		v0.9v0.9v0.9h-0.9v0.9h-0.9v-0.9h-0.9h-0.9v-0.9h0.9v-0.9h0.9v-0.9h0.9h0.9v-0.9v-0.9h0.9v0.9h0.9v-0.9h0.9v0.9v0.9h0.9v-0.9v-0.9
		v-0.9h-0.9H361h-0.9v-0.9v-0.9h-0.9v-0.9h-0.9v0.9h-0.9h-0.9h-0.9v-0.9h0.9h0.9h0.9v-0.9h-0.9v-0.9h0.9v0.9h0.9v0.9h0.9v0.9h0.9
		v-0.9v-0.9h-0.9v-0.9v-0.9h0.9v0.9h0.9v0.9h0.9v-0.9v-0.9v-0.9h-0.9v-0.9h0.9V182v-0.9h-0.9v0.9H361v0.9h-0.9V182h-0.9h-0.9h-0.9
		v0.9h0.9h0.9v0.9h-0.9h-0.9v0.9h-0.9v0.9v0.9h-0.9v-0.9h-0.9v-0.9v-0.9h-0.9v-0.9h0.9V182v-0.9v-0.9h-0.9h-0.9v0.9h0.9v0.9h-0.9
		v-0.9h-0.9v0.9h-0.9h-0.9v0.9V183.8z M359.2,196.9v0.9h-0.9v-0.9H359.2z M356.5,189h0.9h0.9v0.9v0.9v0.9h-0.9h-0.9h-0.9v-0.9v-0.9
		V189H356.5z"/>
	<rect x="356.5" y="182.9" class="st4" width="0.9" height="0.9"/>
	<polygon class="st4" points="296.1,184.6 296.1,185.5 297,185.5 297,184.6 297,183.8 297,182.9 297.9,182.9 297.9,182 297,182 
		297,181.1 297,180.3 297.9,180.3 297.9,181.1 298.8,181.1 298.8,180.3 299.6,180.3 299.6,179.4 299.6,178.5 298.8,178.5 
		297.9,178.5 297.9,179.4 297,179.4 297,178.5 296.1,178.5 296.1,177.6 295.3,177.6 295.3,178.5 294.4,178.5 294.4,179.4 
		295.3,179.4 296.1,179.4 296.1,180.3 296.1,181.1 296.1,182 296.1,182.9 295.3,182.9 295.3,183.8 296.1,183.8 	"/>
	<rect x="305.8" y="183.8" class="st4" width="0.9" height="0.9"/>
	<rect x="312.8" y="183.8" class="st4" width="0.9" height="0.9"/>
	<polygon class="st4" points="318,184.6 318.9,184.6 318.9,183.8 318,183.8 318,182.9 318,182 317.1,182 317.1,181.1 317.1,180.3 
		316.3,180.3 316.3,181.1 315.4,181.1 315.4,182 316.3,182 316.3,182.9 317.1,182.9 317.1,183.8 316.3,183.8 316.3,184.6 
		316.3,185.5 317.1,185.5 317.1,184.6 	"/>
	<rect x="331.1" y="183.8" class="st4" width="0.9" height="0.9"/>
	<polygon class="st4" points="334.7,183.8 334.7,182.9 334.7,182 333.8,182 332.9,182 332,182 332,182.9 332,183.8 332.9,183.8 
		332.9,184.6 333.8,184.6 333.8,185.5 333.8,186.4 334.7,186.4 334.7,185.5 335.5,185.5 335.5,184.6 334.7,184.6 	"/>
	<polygon class="st4" points="346,184.6 346.9,184.6 347.8,184.6 347.8,183.8 346.9,183.8 346.9,182.9 347.8,182.9 347.8,182 
		347.8,181.1 346.9,181.1 346.9,182 346,182 346,182.9 346,183.8 345.2,183.8 345.2,184.6 	"/>
	<rect x="355.7" y="183.8" class="st4" width="0.9" height="0.9"/>
	<rect x="303.1" y="184.6" class="st4" width="0.9" height="0.9"/>
	<rect x="330.3" y="184.6" class="st4" width="0.9" height="0.9"/>
	<rect x="332" y="184.6" class="st4" width="0.9" height="0.9"/>
	<rect x="351.3" y="184.6" class="st4" width="0.9" height="0.9"/>
	<polygon class="st4" points="300.5,186.4 301.4,186.4 301.4,185.5 300.5,185.5 299.6,185.5 299.6,186.4 	"/>
	<rect x="317.1" y="185.5" class="st4" width="0.9" height="0.9"/>
	<polygon class="st4" points="347.8,185.5 347.8,186.4 348.7,186.4 348.7,187.3 348.7,188.1 349.5,188.1 349.5,187.3 350.4,187.3 
		350.4,188.1 351.3,188.1 351.3,187.3 351.3,186.4 351.3,185.5 350.4,185.5 350.4,186.4 349.5,186.4 349.5,185.5 348.7,185.5 	"/>
	<rect x="295.3" y="186.4" class="st4" width="0.9" height="0.9"/>
	<rect x="316.3" y="186.4" class="st4" width="0.9" height="0.9"/>
	<rect x="332.9" y="186.4" class="st4" width="0.9" height="0.9"/>
	<polygon class="st4" points="342.5,186.4 342.5,185.5 341.7,185.5 341.7,186.4 341.7,187.3 342.5,187.3 	"/>
	<polygon class="st4" points="352.2,187.3 353,187.3 353,186.4 353,185.5 352.2,185.5 352.2,186.4 	"/>
	<rect x="320.6" y="187.3" class="st4" width="0.9" height="0.9"/>
	<rect x="332" y="187.3" class="st4" width="0.9" height="0.9"/>
	<rect x="288.3" y="188.1" class="st4" width="0.9" height="0.9"/>
	<polygon class="st4" points="299.6,188.1 300.5,188.1 300.5,187.3 299.6,187.3 298.8,187.3 298.8,186.4 298.8,185.5 299.6,185.5 
		299.6,184.6 298.8,184.6 298.8,183.8 298.8,182.9 297.9,182.9 297.9,183.8 297.9,184.6 297.9,185.5 297.9,186.4 297.9,187.3 
		297.9,188.1 298.8,188.1 298.8,189 299.6,189 	"/>
	<rect x="321.5" y="188.1" class="st4" width="0.9" height="0.9"/>
	<polygon class="st4" points="346,188.1 346.9,188.1 346.9,187.3 346.9,186.4 346.9,185.5 346,185.5 346,186.4 345.2,186.4 
		345.2,185.5 344.3,185.5 343.4,185.5 343.4,186.4 343.4,187.3 344.3,187.3 345.2,187.3 345.2,188.1 345.2,189 346,189 	"/>
	<rect x="346.9" y="188.1" class="st4" width="0.9" height="0.9"/>
	<rect x="349.5" y="188.1" class="st4" width="0.9" height="0.9"/>
	<polygon class="st4" points="361.8,189 362.7,189 362.7,188.1 361.8,188.1 360.9,188.1 360.9,189 	"/>
	<polygon class="st4" points="331.1,189 331.1,189.9 331.1,190.8 332,190.8 332,189.9 332.9,189.9 332.9,189 332,189 	"/>
	<polygon class="st4" points="350.4,189 350.4,189.9 350.4,190.8 351.3,190.8 352.2,190.8 353,190.8 353,189.9 352.2,189.9 
		352.2,189 352.2,188.1 351.3,188.1 351.3,189 	"/>
	<rect x="288.3" y="189.9" class="st4" width="0.9" height="0.9"/>
	<rect x="293.5" y="189.9" class="st4" width="0.9" height="0.9"/>
	<polygon class="st4" points="299.6,190.8 299.6,191.6 298.8,191.6 298.8,192.5 299.6,192.5 299.6,193.4 298.8,193.4 298.8,194.3 
		299.6,194.3 300.5,194.3 301.4,194.3 301.4,193.4 300.5,193.4 300.5,192.5 301.4,192.5 301.4,193.4 302.3,193.4 302.3,192.5 
		302.3,191.6 302.3,190.8 301.4,190.8 301.4,191.6 300.5,191.6 300.5,190.8 300.5,189.9 301.4,189.9 301.4,189 301.4,188.1 
		300.5,188.1 300.5,189 299.6,189 299.6,189.9 298.8,189.9 298.8,190.8 	"/>
	<rect x="314.5" y="189.9" class="st4" width="0.9" height="0.9"/>
	<polygon class="st4" points="320.6,189.9 321.5,189.9 321.5,189 320.6,189 319.8,189 318.9,189 318.9,189.9 319.8,189.9 
		319.8,190.8 320.6,190.8 	"/>
	<rect x="335.5" y="189.9" class="st4" width="0.9" height="0.9"/>
	<polygon class="st4" points="341.7,189.9 340.8,189.9 340.8,190.8 341.7,190.8 342.5,190.8 342.5,191.6 342.5,192.5 343.4,192.5 
		343.4,191.6 343.4,190.8 344.3,190.8 344.3,191.6 344.3,192.5 344.3,193.4 343.4,193.4 343.4,194.3 342.5,194.3 342.5,195.1 
		342.5,196 343.4,196 344.3,196 344.3,195.1 344.3,194.3 345.2,194.3 345.2,193.4 346,193.4 346,192.5 346.9,192.5 346.9,191.6 
		346,191.6 346,190.8 346.9,190.8 346.9,189.9 346,189.9 345.2,189.9 345.2,189 344.3,189 344.3,188.1 343.4,188.1 343.4,189 
		342.5,189 342.5,189.9 	"/>
	<polygon class="st4" points="347.8,190.8 348.7,190.8 348.7,189.9 349.5,189.9 349.5,189 348.7,189 347.8,189 347.8,189.9 	"/>
	<rect x="356.5" y="189.9" class="st4" width="0.9" height="0.9"/>
	<polygon class="st4" points="297.9,191.6 298.8,191.6 298.8,190.8 297.9,190.8 297,190.8 297,191.6 	"/>
	<rect x="346.9" y="190.8" class="st4" width="0.9" height="0.9"/>
	<rect x="348.7" y="190.8" class="st4" width="0.9" height="0.9"/>
	<polygon class="st4" points="290.9,191.6 290.9,190.8 290,190.8 290,191.6 289.1,191.6 289.1,192.5 290,192.5 290,193.4 
		290.9,193.4 290.9,192.5 	"/>
	<rect x="309.3" y="191.6" class="st4" width="0.9" height="0.9"/>
	<rect x="320.6" y="191.6" class="st4" width="0.9" height="0.9"/>
	<rect x="340.8" y="191.6" class="st4" width="0.9" height="0.9"/>
	<rect x="347.8" y="191.6" class="st4" width="0.9" height="0.9"/>
	<polygon class="st4" points="350.4,191.6 350.4,192.5 351.3,192.5 352.2,192.5 352.2,191.6 351.3,191.6 	"/>
	<rect x="288.3" y="192.5" class="st4" width="0.9" height="0.9"/>
	<rect x="324.1" y="192.5" class="st4" width="0.9" height="0.9"/>
	<rect x="332.9" y="192.5" class="st4" width="0.9" height="0.9"/>
	<rect x="346.9" y="192.5" class="st4" width="0.9" height="0.9"/>
	<rect x="348.7" y="192.5" class="st4" width="0.9" height="0.9"/>
	<polygon class="st4" points="308.4,193.4 309.3,193.4 309.3,192.5 308.4,192.5 307.5,192.5 306.6,192.5 306.6,193.4 307.5,193.4 
		307.5,194.3 308.4,194.3 	"/>
	<rect x="312.8" y="193.4" class="st4" width="0.9" height="0.9"/>
	<rect x="347.8" y="193.4" class="st4" width="0.9" height="0.9"/>
	<polygon class="st4" points="290,195.1 290,194.3 289.1,194.3 288.3,194.3 288.3,195.1 288.3,196 289.1,196 289.1,195.1 	"/>
	<rect x="308.4" y="194.3" class="st4" width="0.9" height="0.9"/>
	<rect x="311.9" y="194.3" class="st4" width="0.9" height="0.9"/>
	<polygon class="st4" points="315.4,194.3 314.5,194.3 314.5,195.1 315.4,195.1 316.3,195.1 316.3,194.3 	"/>
	<polygon class="st4" points="317.1,195.1 318,195.1 318,194.3 318,193.4 317.1,193.4 317.1,194.3 	"/>
	<rect x="318.9" y="194.3" class="st4" width="0.9" height="0.9"/>
	<polygon class="st4" points="346,194.3 345.2,194.3 345.2,195.1 345.2,196 344.3,196 344.3,196.9 345.2,196.9 346,196.9 346,196 
		346.9,196 346.9,195.1 346,195.1 	"/>
	<rect x="346.9" y="194.3" class="st4" width="0.9" height="0.9"/>
	<rect x="357.4" y="194.3" class="st4" width="0.9" height="0.9"/>
	<polygon class="st4" points="361.8,195.1 361.8,196 361.8,196.9 362.7,196.9 362.7,196 362.7,195.1 362.7,194.3 361.8,194.3 	"/>
	<rect x="290" y="195.1" class="st4" width="0.9" height="0.9"/>
	<rect x="298.8" y="195.1" class="st4" width="0.9" height="0.9"/>
	<polygon class="st4" points="302.3,196 302.3,196.9 301.4,196.9 301.4,197.8 301.4,198.6 302.3,198.6 302.3,197.8 303.1,197.8 
		303.1,196.9 304,196.9 304,196 304,195.1 304,194.3 304,193.4 303.1,193.4 302.3,193.4 302.3,194.3 303.1,194.3 303.1,195.1 
		302.3,195.1 301.4,195.1 300.5,195.1 300.5,196 301.4,196 	"/>
	<rect x="307.5" y="195.1" class="st4" width="0.9" height="0.9"/>
	<path class="st4" d="M316.3,196h-0.9h-0.9h-0.9h-0.9h-0.9v-0.9H311v0.9v0.9h-0.9v0.9h0.9h0.9v-0.9h0.9v0.9h-0.9v0.9v0.9h0.9v-0.9
		h0.9v0.9h0.9v-0.9h0.9v-0.9h0.9v-0.9h0.9h0.9h0.9v0.9h0.9h0.9v-0.9h-0.9V196h-0.9H318h-0.9v-0.9h-0.9V196z M313.6,197.8v-0.9h0.9
		v0.9H313.6z"/>
	<polygon class="st4" points="320.6,196 321.5,196 322.4,196 322.4,196.9 323.3,196.9 323.3,197.8 323.3,198.6 324.1,198.6 
		325,198.6 325.9,198.6 326.8,198.6 327.6,198.6 327.6,197.8 326.8,197.8 325.9,197.8 325.9,196.9 325,196.9 324.1,196.9 324.1,196 
		323.3,196 323.3,195.1 322.4,195.1 321.5,195.1 320.6,195.1 319.8,195.1 319.8,196 	"/>
	<rect x="299.6" y="196" class="st4" width="0.9" height="0.9"/>
	<rect x="306.6" y="196" class="st4" width="0.9" height="0.9"/>
	<rect x="326.8" y="196" class="st4" width="0.9" height="0.9"/>
	<polygon class="st4" points="333.8,196 333.8,195.1 332.9,195.1 332.9,196 332.9,196.9 332.9,197.8 333.8,197.8 333.8,196.9 	"/>
	<rect x="341.7" y="196" class="st4" width="0.9" height="0.9"/>
	<polygon class="st4" points="347.8,196 347.8,196.9 348.7,196.9 349.5,196.9 349.5,196 348.7,196 	"/>
	<polygon class="st4" points="353,196 353,196.9 353,197.8 353.9,197.8 354.8,197.8 355.7,197.8 355.7,196.9 354.8,196.9 354.8,196 
		353.9,196 	"/>
	<rect x="297" y="196.9" class="st4" width="0.9" height="0.9"/>
	<polygon class="st4" points="339.9,197.8 340.8,197.8 341.7,197.8 341.7,196.9 340.8,196.9 340.8,196 339.9,196 339.9,196.9 	"/>
	<polygon class="st4" points="343.4,197.8 343.4,198.6 342.5,198.6 342.5,199.5 343.4,199.5 343.4,200.4 343.4,201.3 344.3,201.3 
		344.3,202.1 344.3,203 345.2,203 345.2,203.9 346,203.9 346,203 346.9,203 346.9,202.1 346,202.1 346,201.3 346.9,201.3 
		346.9,200.4 346,200.4 345.2,200.4 344.3,200.4 344.3,199.5 345.2,199.5 345.2,198.6 346,198.6 346.9,198.6 346.9,197.8 346,197.8 
		345.2,197.8 344.3,197.8 344.3,196.9 343.4,196.9 	"/>
	<rect x="350.4" y="196.9" class="st4" width="0.9" height="0.9"/>
	<polygon class="st4" points="305.8,198.6 306.6,198.6 306.6,197.8 306.6,196.9 305.8,196.9 305.8,196 306.6,196 306.6,195.1 
		307.5,195.1 307.5,194.3 306.6,194.3 305.8,194.3 305.8,193.4 304.9,193.4 304.9,194.3 304.9,195.1 304.9,196 304.9,196.9 
		304.9,197.8 304,197.8 304,198.6 304,199.5 304.9,199.5 304.9,198.6 	"/>
	<rect x="318" y="197.8" class="st4" width="0.9" height="0.9"/>
	<rect x="333.8" y="197.8" class="st4" width="0.9" height="0.9"/>
	<polygon class="st4" points="347.8,198.6 347.8,199.5 348.7,199.5 349.5,199.5 349.5,198.6 349.5,197.8 348.7,197.8 347.8,197.8 	
		"/>
	<rect x="306.6" y="198.6" class="st4" width="0.9" height="0.9"/>
	<polygon class="st4" points="316.3,199.5 316.3,200.4 317.1,200.4 318,200.4 318,199.5 317.1,199.5 317.1,198.6 316.3,198.6 
		315.4,198.6 315.4,199.5 	"/>
	<rect x="328.5" y="198.6" class="st4" width="0.9" height="0.9"/>
	<rect x="340.8" y="198.6" class="st4" width="0.9" height="0.9"/>
	<polygon class="st4" points="356.5,198.6 356.5,197.8 355.7,197.8 355.7,198.6 354.8,198.6 354.8,199.5 355.7,199.5 355.7,200.4 
		355.7,201.3 356.5,201.3 356.5,202.1 356.5,203 355.7,203 355.7,203.9 355.7,204.8 356.5,204.8 356.5,203.9 357.4,203.9 357.4,203 
		358.3,203 359.2,203 359.2,203.9 360,203.9 360,203 360,202.1 360,201.3 359.2,201.3 358.3,201.3 357.4,201.3 357.4,200.4 
		357.4,199.5 356.5,199.5 	"/>
	<polygon class="st4" points="360.9,198.6 360.9,199.5 361.8,199.5 362.7,199.5 362.7,198.6 361.8,198.6 	"/>
	<polygon class="st4" points="299.6,199.5 300.5,199.5 300.5,198.6 300.5,197.8 299.6,197.8 299.6,196.9 298.8,196.9 298.8,197.8 
		297.9,197.8 297.9,198.6 297.9,199.5 298.8,199.5 298.8,200.4 299.6,200.4 	"/>
	<rect x="314.5" y="199.5" class="st4" width="0.9" height="0.9"/>
	<rect x="326.8" y="199.5" class="st4" width="0.9" height="0.9"/>
	<polygon class="st4" points="353,199.5 353,198.6 352.2,198.6 351.3,198.6 350.4,198.6 350.4,199.5 351.3,199.5 351.3,200.4 
		352.2,200.4 353,200.4 353,201.3 353,202.1 353.9,202.1 353.9,203 353.9,203.9 353.9,204.8 353,204.8 353,205.6 353.9,205.6 
		354.8,205.6 355.7,205.6 355.7,204.8 354.8,204.8 354.8,203.9 354.8,203 354.8,202.1 355.7,202.1 355.7,201.3 354.8,201.3 
		354.8,200.4 354.8,199.5 353.9,199.5 	"/>
	<rect x="295.3" y="200.4" class="st4" width="0.9" height="0.9"/>
	<polygon class="st4" points="298.8,201.3 298.8,200.4 297.9,200.4 297,200.4 297,201.3 296.1,201.3 296.1,202.1 297,202.1 
		297.9,202.1 297.9,201.3 	"/>
	<polygon class="st4" points="314.5,200.4 313.6,200.4 313.6,201.3 313.6,202.1 314.5,202.1 315.4,202.1 315.4,201.3 314.5,201.3 	
		"/>
	<rect x="315.4" y="200.4" class="st4" width="0.9" height="0.9"/>
	<polygon class="st4" points="318.9,201.3 319.8,201.3 319.8,200.4 320.6,200.4 320.6,199.5 319.8,199.5 318.9,199.5 318.9,200.4 
		318,200.4 318,201.3 	"/>
	<polygon class="st4" points="360.9,200.4 360.9,201.3 361.8,201.3 361.8,202.1 361.8,203 362.7,203 362.7,202.1 362.7,201.3 
		362.7,200.4 361.8,200.4 	"/>
	<rect x="294.4" y="201.3" class="st4" width="0.9" height="0.9"/>
	<rect x="311.9" y="201.3" class="st4" width="0.9" height="0.9"/>
	<rect x="328.5" y="201.3" class="st4" width="0.9" height="0.9"/>
	<polygon class="st4" points="332.9,201.3 332.9,202.1 333.8,202.1 334.7,202.1 334.7,201.3 333.8,201.3 	"/>
	<polygon class="st4" points="339.9,202.1 340.8,202.1 340.8,201.3 341.7,201.3 342.5,201.3 342.5,200.4 341.7,200.4 340.8,200.4 
		340.8,199.5 339.9,199.5 339.9,200.4 339,200.4 339,201.3 339.9,201.3 	"/>
	<rect x="342.5" y="201.3" class="st4" width="0.9" height="0.9"/>
	<path class="st4" d="M347.8,202.1v0.9h0.9v0.9v0.9v0.9h0.9v-0.9h0.9v0.9h-0.9v0.9h0.9h0.9h0.9v-0.9h-0.9v-0.9h0.9h0.9v-0.9V203
		v-0.9h-0.9v-0.9h-0.9v0.9h-0.9v-0.9h0.9v-0.9h-0.9h-0.9h-0.9h-0.9v0.9h-0.9v0.9H347.8z M352.2,203v0.9h-0.9V203H352.2z
		 M350.4,203.9h-0.9V203h0.9V203.9z"/>
	<rect x="293.5" y="202.1" class="st4" width="0.9" height="0.9"/>
	<rect x="315.4" y="202.1" class="st4" width="0.9" height="0.9"/>
	<polygon class="st4" points="321.5,202.1 320.6,202.1 320.6,203 319.8,203 319.8,202.1 318.9,202.1 318,202.1 318,203 317.1,203 
		317.1,203.9 317.1,204.8 316.3,204.8 316.3,205.6 317.1,205.6 318,205.6 318,204.8 318.9,204.8 318.9,203.9 319.8,203.9 
		320.6,203.9 321.5,203.9 321.5,203 	"/>
	<polygon class="st4" points="326.8,202.1 327.6,202.1 327.6,201.3 326.8,201.3 325.9,201.3 325,201.3 325,202.1 325.9,202.1 
		325.9,203 325.9,203.9 326.8,203.9 327.6,203.9 327.6,203 326.8,203 	"/>
	<rect x="327.6" y="202.1" class="st4" width="0.9" height="0.9"/>
	<polygon class="st4" points="331.1,202.1 330.3,202.1 329.4,202.1 329.4,203 330.3,203 330.3,203.9 330.3,204.8 330.3,205.6 
		329.4,205.6 328.5,205.6 328.5,206.5 329.4,206.5 330.3,206.5 331.1,206.5 331.1,205.6 332,205.6 332,204.8 331.1,204.8 
		331.1,203.9 332,203.9 332,203 332.9,203 332.9,202.1 332,202.1 	"/>
	<rect x="334.7" y="202.1" class="st4" width="0.9" height="0.9"/>
	<rect x="339" y="202.1" class="st4" width="0.9" height="0.9"/>
	<polygon class="st4" points="342.5,203 342.5,202.1 341.7,202.1 340.8,202.1 340.8,203 341.7,203 	"/>
	<rect x="288.3" y="203" class="st4" width="0.9" height="0.9"/>
	<rect x="324.1" y="203" class="st4" width="0.9" height="0.9"/>
	<rect x="328.5" y="203" class="st4" width="0.9" height="0.9"/>
	<rect x="332.9" y="203" class="st4" width="0.9" height="0.9"/>
	<rect x="335.5" y="203" class="st4" width="0.9" height="0.9"/>
	<polygon class="st4" points="344.3,203 343.4,203 342.5,203 342.5,203.9 343.4,203.9 343.4,204.8 344.3,204.8 345.2,204.8 
		345.2,203.9 344.3,203.9 	"/>
	<path class="st4" d="M291.8,203.9V203h0.9v-0.9v-0.9h-0.9v-0.9v-0.9v-0.9h0.9v0.9v0.9v0.9h0.9h0.9v-0.9h-0.9v-0.9h0.9v0.9h0.9v-0.9
		h0.9h0.9v-0.9h-0.9v-0.9v-0.9V196v-0.9h0.9v0.9h0.9v-0.9v-0.9v-0.9v-0.9h-0.9h-0.9v-0.9v-0.9h0.9v-0.9h-0.9v-0.9h0.9v0.9h0.9h0.9
		v-0.9h-0.9v-0.9h-0.9h-0.9h-0.9h-0.9h-0.9v-0.9h0.9v-0.9h-0.9v-0.9h0.9v0.9h0.9v-0.9v-0.9v-0.9h-0.9v0.9h-0.9h-0.9v0.9h-0.9h-0.9
		v-0.9h0.9h0.9v-0.9h-0.9h-0.9v-0.9H290v0.9v0.9v0.9h-0.9v0.9h0.9h0.9h0.9v0.9h0.9v0.9h-0.9v0.9h-0.9v-0.9v-0.9H290h-0.9v0.9h0.9
		v0.9v0.9h0.9v0.9h0.9v0.9v0.9v0.9h-0.9v0.9v0.9h0.9h0.9v-0.9v-0.9h0.9v-0.9h0.9h0.9v0.9h-0.9h-0.9v0.9h0.9h0.9v0.9h-0.9h-0.9h-0.9
		v0.9h-0.9h-0.9v0.9h0.9h0.9h0.9V196h0.9h0.9v0.9h-0.9h-0.9v0.9h0.9v0.9h-0.9v-0.9h-0.9h-0.9h-0.9v-0.9H290V196h-0.9v0.9h-0.9v0.9
		h0.9v0.9h-0.9v0.9v0.9h0.9v-0.9h0.9h0.9v0.9H290v0.9v0.9v0.9v0.9h0.9v0.9h0.9V203.9z M294.4,191.6h-0.9h-0.9v-0.9v-0.9V189h0.9h0.9
		h0.9v0.9v0.9v0.9H294.4z M296.1,193.4h0.9v0.9h-0.9V193.4z"/>
	<rect x="293.5" y="203.9" class="st4" width="0.9" height="0.9"/>
	<rect x="311.9" y="203.9" class="st4" width="0.9" height="0.9"/>
	<polygon class="st4" points="315.4,203.9 314.5,203.9 314.5,203 313.6,203 313.6,203.9 313.6,204.8 314.5,204.8 315.4,204.8 
		316.3,204.8 316.3,203.9 	"/>
	<rect x="332" y="203.9" class="st4" width="0.9" height="0.9"/>
	<rect x="357.4" y="203.9" class="st4" width="0.9" height="0.9"/>
	<polygon class="st4" points="293.5,205.6 293.5,204.8 292.6,204.8 291.8,204.8 291.8,205.6 290.9,205.6 290.9,204.8 290,204.8 
		290,205.6 290,206.5 290,207.4 290.9,207.4 290.9,206.5 291.8,206.5 292.6,206.5 292.6,205.6 	"/>
	<polygon class="st4" points="296.1,204.8 296.1,203.9 295.3,203.9 295.3,204.8 294.4,204.8 294.4,205.6 293.5,205.6 293.5,206.5 
		294.4,206.5 295.3,206.5 296.1,206.5 296.1,205.6 	"/>
	<rect x="311" y="204.8" class="st4" width="0.9" height="0.9"/>
	<rect x="335.5" y="204.8" class="st4" width="0.9" height="0.9"/>
	<path class="st4" d="M339,205.6v-0.9h0.9h0.9h0.9h0.9v-0.9h-0.9h-0.9V203h-0.9v0.9H339h-0.9V203v-0.9h0.9v-0.9h-0.9h-0.9v-0.9v-0.9
		h0.9h0.9h0.9v-0.9H339v-0.9h-0.9v-0.9h0.9V196h0.9v-0.9H339v-0.9h-0.9v-0.9v-0.9h0.9v0.9v0.9h0.9v0.9h0.9v0.9h0.9v-0.9v-0.9v-0.9
		h-0.9h-0.9v-0.9v-0.9H339v-0.9h0.9v-0.9H339v-0.9h-0.9V188h0.9v-0.9h0.9v0.9H339v0.9h0.9v0.9h0.9v-0.9h0.9h0.9V188h-0.9v-0.9h-0.9
		v-0.9h-0.9H339h-0.9v-0.9h-0.9v0.9v0.9h-0.9v-0.9h-0.9v0.9h-0.9h-0.9v0.9h-0.9v0.9h0.9v0.9h-0.9v0.9v0.9h0.9v0.9h0.9v0.9v0.9v0.9
		v0.9h0.9v-0.9h0.9v-0.9h-0.9v-0.9v-0.9h0.9h0.9v0.9v0.9v0.9h0.9v0.9h-0.9h-0.9h-0.9v0.9v0.9h0.9v0.9h-0.9h-0.9v0.9h-0.9v-0.9h-0.9
		v0.9v0.9h0.9h0.9v0.9h0.9v0.9h0.9h0.9v0.9v0.9v0.9v0.9h0.9H339z M336.4,191.6h-0.9h-0.9v-0.9v-0.9V189h0.9h0.9h0.9v0.9v0.9v0.9
		H336.4z"/>
	<rect x="356.5" y="204.8" class="st4" width="0.9" height="0.9"/>
	<polygon class="st4" points="360,205.6 360.9,205.6 361.8,205.6 361.8,204.8 362.7,204.8 362.7,203.9 361.8,203.9 360.9,203.9 
		360,203.9 360,204.8 	"/>
	<rect x="288.3" y="205.6" class="st4" width="0.9" height="0.9"/>
	<polygon class="st4" points="302.3,206.5 302.3,205.6 302.3,204.8 301.4,204.8 301.4,205.6 300.5,205.6 300.5,206.5 301.4,206.5 	
		"/>
	<polygon class="st4" points="304,205.6 303.1,205.6 303.1,206.5 303.1,207.4 304,207.4 304,206.5 	"/>
	<rect x="310.1" y="205.6" class="st4" width="0.9" height="0.9"/>
	<polygon class="st4" points="324.1,206.5 323.3,206.5 322.4,206.5 322.4,207.4 322.4,208.3 323.3,208.3 323.3,207.4 324.1,207.4 
		324.1,208.3 324.1,209.1 325,209.1 325,208.3 325,207.4 325.9,207.4 325.9,206.5 325.9,205.6 326.8,205.6 326.8,204.8 325.9,204.8 
		325,204.8 324.1,204.8 324.1,205.6 	"/>
	<polygon class="st4" points="346,206.5 346.9,206.5 347.8,206.5 347.8,205.6 347.8,204.8 346.9,204.8 346,204.8 345.2,204.8 
		345.2,205.6 344.3,205.6 344.3,206.5 344.3,207.4 345.2,207.4 345.2,206.5 	"/>
	<rect x="355.7" y="205.6" class="st4" width="0.9" height="0.9"/>
	<rect x="361.8" y="205.6" class="st4" width="0.9" height="0.9"/>
	<rect x="292.6" y="206.5" class="st4" width="0.9" height="0.9"/>
	<rect x="299.6" y="206.5" class="st4" width="0.9" height="0.9"/>
	<rect x="327.6" y="206.5" class="st4" width="0.9" height="0.9"/>
	<rect x="348.7" y="206.5" class="st4" width="0.9" height="0.9"/>
	<polygon class="st4" points="353.9,206.5 353,206.5 352.2,206.5 352.2,207.4 353,207.4 353.9,207.4 354.8,207.4 354.8,206.5 	"/>
	<rect x="360.9" y="206.5" class="st4" width="0.9" height="0.9"/>
	<rect x="288.3" y="207.4" class="st4" width="0.9" height="0.9"/>
	<rect x="304" y="207.4" class="st4" width="0.9" height="0.9"/>
	<polygon class="st4" points="332,207.4 331.1,207.4 330.3,207.4 330.3,208.3 331.1,208.3 332,208.3 332.9,208.3 333.8,208.3 
		333.8,207.4 332.9,207.4 	"/>
	<polygon class="st4" points="344.3,207.4 343.4,207.4 343.4,206.5 343.4,205.6 343.4,204.8 342.5,204.8 342.5,205.6 342.5,206.5 
		342.5,207.4 341.7,207.4 341.7,208.3 342.5,208.3 343.4,208.3 343.4,209.1 344.3,209.1 344.3,208.3 	"/>
	<polygon class="st4" points="350.4,207.4 350.4,208.3 351.3,208.3 351.3,209.1 351.3,210 352.2,210 352.2,209.1 352.2,208.3 
		352.2,207.4 351.3,207.4 	"/>
	<path class="st4" d="M308.4,208.3v-0.9v-0.9v-0.9h0.9h0.9v-0.9v-0.9h-0.9h-0.9h-0.9V203h0.9v-0.9h0.9v0.9h0.9h0.9h0.9v-0.9H311
		v-0.9h-0.9h-0.9v-0.9h0.9h0.9v-0.9v-0.9h-0.9v-0.9h-0.9v-0.9h0.9v-0.9v-0.9h-0.9v0.9h-0.9v0.9h-0.9v0.9h0.9v0.9v0.9h-0.9v0.9h-0.9
		v0.9v0.9h-0.9v-0.9v-0.9v-0.9h-0.9v0.9H304h-0.9h-0.9v-0.9h-0.9v0.9v0.9v0.9v0.9h-0.9v-0.9h-0.9h-0.9h-0.9v0.9v0.9H297v0.9v0.9h0.9
		v-0.9h0.9v0.9v0.9h0.9v-0.9v-0.9h0.9v-0.9h0.9h0.9V203h0.9v0.9h0.9h0.9v0.9H304v0.9h0.9v0.9v0.9h0.9v-0.9v-0.9h0.9v-0.9h-0.9v-0.9
		h0.9v0.9h0.9v0.9v0.9h-0.9v0.9h-0.9v0.9h0.9h0.9v0.9h-0.9v0.9h0.9h0.9v-0.9V208.3z M304.9,201.3v0.9H304v-0.9H304.9z M302.3,202.1
		v-0.9h0.9v0.9H302.3z"/>
	<rect x="321.5" y="208.3" class="st4" width="0.9" height="0.9"/>
	<path class="st4" d="M360.9,208.3v0.9H360v-0.9v-0.9h-0.9v0.9h-0.9v0.9h-0.9v-0.9v-0.9h0.9v-0.9h0.9v-0.9h-0.9h-0.9v0.9h-0.9v0.9
		v0.9h-0.9v-0.9h-0.9v0.9h-0.9H353v0.9h0.9v0.9h0.9v0.9h-0.9V210H353v0.9h-0.9h-0.9h-0.9v0.9v0.9h0.9v-0.9h0.9h0.9h0.9v0.9v0.9H353
		v-0.9h-0.9v0.9h-0.9v0.9h-0.9v0.9h-0.9v-0.9h-0.9v0.9h-0.9h-0.9v-0.9h0.9v-0.9v-0.9v-0.9h-0.9h-0.9h-0.9h-0.9v0.9h0.9h0.9h0.9v0.9
		h-0.9v0.9h-0.9v-0.9h-0.9v0.9h-0.9v-0.9h-0.9h-0.9h-0.9h-0.9v-0.9h0.9h0.9v-0.9h0.9h0.9h0.9v-0.9h0.9h0.9h0.9h0.9V210v-0.9v-0.9
		h-0.9v0.9h-0.9v-0.9v-0.9h-0.9v0.9v0.9h-0.9v0.9h-0.9v-0.9h-0.9v0.9v0.9h-0.9h-0.9h-0.9v0.9h-0.9H338v-0.9h0.9V210h0.9v-0.9h-0.9
		v-0.9h0.9h0.9v-0.9h0.9v-0.9h-0.9v-0.9h-0.9v0.9h-0.9v0.9H338v0.9h-0.9h-0.9v0.9h-0.9v-0.9v-0.9h0.9h0.9h0.9v-0.9h-0.9v-0.9h-0.9
		v0.9h-0.9v-0.9h-0.9v-0.9h0.9v-0.9h-0.9h-0.9v0.9h-0.9v0.9h0.9v0.9v0.9h0.9v0.9v0.9h-0.9h-0.9h-0.9v0.9H331h-0.9v0.9h0.9h0.9h0.9
		V210h0.9v0.9h-0.9v0.9h0.9v0.9v0.9v0.9h0.9v-0.9h0.9h0.9v0.9h0.9v-0.9h0.9v-0.9h0.9v0.9v0.9h0.9v0.9h-0.9v-0.9H338h-0.9v0.9h0.9
		v0.9h0.9h0.9h0.9v-0.9h0.9h0.9h0.9h0.9v0.9v0.9h0.9v-0.9h0.9h0.9v0.9h-0.9h-0.9v0.9h0.9v0.9h-0.9h-0.9V218v-0.9h-0.9v0.9h-0.9v-0.9
		v-0.9h-0.9v0.9h-0.9h-0.9v0.9h-0.9v0.9H338v0.9v0.9h0.9h0.9h0.9h0.9v0.9h0.9v-0.9h0.9v-0.9h-0.9h-0.9h-0.9v-0.9h0.9h0.9h0.9v0.9
		h0.9h0.9v0.9h0.9v-0.9h0.9h0.9v0.9h0.9h0.9v-0.9h0.9v-0.9h0.9v0.9h0.9v-0.9h0.9V218h-0.9h-0.9v-0.9h0.9v-0.9v-0.9h0.9h0.9h0.9h0.9
		v-0.9h-0.9v-0.9h0.9h0.9h0.9v0.9v0.9v0.9h-0.9v0.9h0.9v0.9v0.9h0.9h0.9v0.9h0.9v-0.9h0.9v0.9H360v0.9h0.9h0.9v0.9v0.9h0.9v-0.9
		v-0.9v-0.9h-0.9v-0.9V218h0.9v-0.9v-0.9v-0.9h-0.9v-0.9v-0.9h-0.9v0.9v0.9H360h-0.9v0.9h0.9v0.9h0.9v0.9H360h-0.9h-0.9v-0.9v-0.9
		v-0.9v-0.9h0.9v-0.9h0.9v-0.9h-0.9v-0.9h0.9v0.9h0.9v-0.9h0.9v0.9v0.9h0.9v-0.9v-0.9v-0.9h-0.9V210h0.9v-0.9v-0.9v-0.9h-0.9v0.9
		H360.9z M336.4,212.6h-0.9h-0.9v-0.9v-0.9V210h0.9h0.9h0.9v0.9v0.9v0.9H336.4z M348.7,218.8h-0.9h-0.9v-0.9h0.9V217h0.9v-0.9h0.9
		v0.9v0.9v0.9H348.7z M358.3,212.6h-0.9h-0.9h-0.9v-0.9v-0.9V210h0.9h0.9h0.9v0.9v0.9V212.6z M360.9,210.9H360V210h0.9V210.9z"/>
	<polygon class="st4" points="329.4,209.1 328.5,209.1 328.5,210 328.5,210.9 329.4,210.9 329.4,210 330.3,210 330.3,209.1 	"/>
	<polygon class="st4" points="340.8,210 341.7,210 341.7,209.1 341.7,208.3 340.8,208.3 340.8,209.1 	"/>
	<polygon class="st4" points="350.4,209.1 350.4,208.3 349.5,208.3 348.7,208.3 348.7,209.1 348.7,210 349.5,210 349.5,210.9 
		350.4,210.9 350.4,210 	"/>
	<polygon class="st4" points="290,210.9 290,210 290,209.1 290.9,209.1 290.9,208.3 290,208.3 289.1,208.3 289.1,209.1 289.1,210 
		289.1,210.9 289.1,211.8 288.3,211.8 288.3,212.6 289.1,212.6 290,212.6 290,211.8 290.9,211.8 290.9,210.9 	"/>
	<rect x="293.5" y="210.9" class="st4" width="0.9" height="0.9"/>
	<polygon class="st4" points="310.1,210.9 310.1,210 309.3,210 308.4,210 308.4,210.9 308.4,211.8 309.3,211.8 309.3,212.6 
		310.1,212.6 310.1,211.8 311,211.8 311.9,211.8 311.9,210.9 311,210.9 	"/>
	<rect x="314.5" y="210.9" class="st4" width="0.9" height="0.9"/>
	<rect x="327.6" y="210.9" class="st4" width="0.9" height="0.9"/>
	<rect x="335.5" y="210.9" class="st4" width="0.9" height="0.9"/>
	<polygon class="st4" points="348.7,211.8 348.7,212.6 348.7,213.5 349.5,213.5 349.5,212.6 349.5,211.8 349.5,210.9 348.7,210.9 	
		"/>
	<rect x="356.5" y="210.9" class="st4" width="0.9" height="0.9"/>
	<polygon class="st4" points="332,212.6 332,213.5 332.9,213.5 332.9,212.6 332.9,211.8 332,211.8 	"/>
	<polygon class="st4" points="303.1,213.5 303.1,214.4 303.1,215.3 304,215.3 304,214.4 304,213.5 304.9,213.5 304.9,212.6 
		305.8,212.6 305.8,211.8 306.6,211.8 306.6,210.9 306.6,210 305.8,210 305.8,209.1 304.9,209.1 304,209.1 304,210 304.9,210 
		304.9,210.9 304,210.9 304,211.8 304,212.6 303.1,212.6 302.3,212.6 302.3,213.5 	"/>
	<polygon class="st4" points="308.4,212.6 307.5,212.6 306.6,212.6 306.6,213.5 305.8,213.5 305.8,214.4 306.6,214.4 306.6,215.3 
		305.8,215.3 305.8,214.4 304.9,214.4 304.9,215.3 304.9,216.1 305.8,216.1 305.8,217 306.6,217 306.6,216.1 307.5,216.1 
		308.4,216.1 308.4,215.3 307.5,215.3 307.5,214.4 307.5,213.5 308.4,213.5 309.3,213.5 309.3,212.6 	"/>
	<rect x="343.4" y="212.6" class="st4" width="0.9" height="0.9"/>
	<rect x="349.5" y="213.5" class="st4" width="0.9" height="0.9"/>
	<path class="st4" d="M332,214.4v-0.9h-0.9v0.9h-0.9h-0.9v-0.9v-0.9h0.9h0.9v-0.9h-0.9h-0.9h-0.9v0.9h-0.9v0.9h0.9v0.9h-0.9h-0.9
		v-0.9v-0.9v-0.9h-0.9H325h-0.9v-0.9h0.9h0.9h0.9h0.9V210v-0.9h0.9v-0.9h-0.9h-0.9v-0.9h-0.9v0.9v0.9h0.9v0.9h-0.9v-0.9H325v0.9
		h-0.9v-0.9h-0.9h-0.9v0.9h-0.9h-0.9v-0.9v-0.9v-0.9h0.9v-0.9v-0.9h0.9v-0.9h0.9h0.9v-0.9h-0.9V203h0.9v-0.9h-0.9v-0.9h0.9v-0.9h0.9
		h0.9v-0.9H325h-0.9h-0.9v-0.9h-0.9v0.9v0.9v0.9v0.9v0.9v0.9h-0.9v0.9h-0.9v0.9h-0.9h-0.9h-0.9v0.9v0.9h0.9v-0.9h0.9v0.9v0.9h-0.9
		v0.9h-0.9h-0.9h-0.9h-0.9v-0.9h0.9h0.9h0.9v-0.9h-0.9v-0.9h-0.9h-0.9h-0.9h-0.9h-0.9v0.9h-0.9v0.9h-0.9H310v-0.9v-0.9h-0.9v0.9v0.9
		v0.9h0.9h0.9h0.9v0.9v0.9h0.9v0.9v0.9v0.9h-0.9h-0.9v-0.9H310v0.9h-0.9v0.9v0.9v0.9h0.9h0.9v-0.9H310v-0.9h0.9h0.9v0.9h0.9v-0.9
		h0.9v-0.9h0.9h0.9v0.9h-0.9h-0.9v0.9v0.9h0.9h0.9h0.9v-0.9v-0.9h0.9v-0.9v-0.9v-0.9h0.9v-0.9h-0.9V210h0.9h0.9v0.9h0.9v0.9h-0.9
		v0.9h0.9v0.9h-0.9v0.9h-0.9v0.9h0.9h0.9v-0.9h0.9v0.9h0.9v0.9h0.9h0.9v-0.9v-0.9h-0.9v-0.9h-0.9h-0.9v-0.9v-0.9h0.9v0.9h0.9v-0.9
		h0.9v0.9h-0.9v0.9h0.9h0.9h0.9v-0.9h0.9v0.9H325v0.9h0.9v0.9H325v0.9h0.9h0.9v-0.9h0.9h0.9v0.9v0.9h0.9h0.9v-0.9h0.9v-0.9h0.9v0.9
		h0.9v-0.9h0.9v-0.9h-0.9H332z M314.5,207.4v0.9v0.9h-0.9v-0.9v-0.9H314.5z M316.3,210.9v0.9v0.9h-0.9h-0.9h-0.9v-0.9v-0.9V210h0.9
		h0.9h0.9V210.9z"/>
	<path class="st4" d="M294.4,216.1h0.9v-0.9h0.9v-0.9h-0.9v-0.9h0.9v0.9h0.9v0.9v0.9v0.9h-0.9h-0.9v0.9h0.9v0.9h-0.9v0.9h0.9v0.9
		h0.9v-0.9v-0.9h0.9h0.9v-0.9h-0.9V217h0.9v-0.9v-0.9h-0.9v-0.9v-0.9h0.9h0.9v-0.9h0.9v0.9h0.9v-0.9h0.9v-0.9h-0.9v-0.9V210v-0.9
		h0.9h0.9v-0.9h-0.9v-0.9h-0.9v0.9h-0.9h-0.9v-0.9h-0.9h-0.9H297v-0.9h-0.9v0.9h-0.9h-0.9h-0.9v0.9h0.9h0.9h0.9h0.9h0.9h0.9v0.9v0.9
		h0.9v0.9h-0.9V210h-0.9H297v0.9h0.9v0.9H297v0.9h-0.9v-0.9h0.9v-0.9h-0.9V210v-0.9h-0.9h-0.9h-0.9h-0.9h-0.9h-0.9v0.9h0.9v0.9v0.9
		h-0.9v0.9h0.9v0.9v0.9h0.9v-0.9h0.9h0.9v0.9h-0.9v0.9h0.9V216.1z M293.5,212.6h-0.9v-0.9v-0.9V210h0.9h0.9h0.9v0.9v0.9v0.9h-0.9
		H293.5z"/>
	<rect x="317.1" y="215.3" class="st4" width="0.9" height="0.9"/>
	<polygon class="st4" points="334.7,216.1 333.8,216.1 332.9,216.1 332.9,217 333.8,217 334.7,217 335.5,217 335.5,217.9 
		335.5,218.8 335.5,219.6 334.7,219.6 334.7,218.8 334.7,217.9 333.8,217.9 332.9,217.9 332.9,218.8 333.8,218.8 333.8,219.6 
		333.8,220.5 334.7,220.5 335.5,220.5 335.5,221.4 335.5,222.3 335.5,223.1 336.4,223.1 336.4,224 336.4,224.9 337.3,224.9 
		338.2,224.9 338.2,224 337.3,224 337.3,223.1 337.3,222.3 338.2,222.3 338.2,223.1 338.2,224 339,224 339,223.1 339,222.3 
		339,221.4 338.2,221.4 338.2,220.5 337.3,220.5 336.4,220.5 336.4,219.6 337.3,219.6 337.3,218.8 336.4,218.8 336.4,217.9 
		337.3,217.9 337.3,218.8 338.2,218.8 338.2,217.9 339,217.9 339,217 338.2,217 337.3,217 336.4,217 336.4,216.1 337.3,216.1 
		337.3,215.3 336.4,215.3 335.5,215.3 335.5,214.4 334.7,214.4 334.7,215.3 	"/>
	<polygon class="st4" points="294.4,217 294.4,216.1 293.5,216.1 293.5,215.3 292.6,215.3 291.8,215.3 290.9,215.3 290.9,214.4 
		290.9,213.5 290,213.5 289.1,213.5 289.1,214.4 289.1,215.3 288.3,215.3 288.3,216.1 289.1,216.1 289.1,217 290,217 290.9,217 
		290.9,216.1 291.8,216.1 292.6,216.1 292.6,217 293.5,217 	"/>
	<polygon class="st4" points="311.9,217 312.8,217 312.8,217.9 313.6,217.9 313.6,217 313.6,216.1 312.8,216.1 311.9,216.1 
		311,216.1 311,217 	"/>
	<polygon class="st4" points="319.8,217 320.6,217 320.6,216.1 320.6,215.3 319.8,215.3 319.8,216.1 	"/>
	<rect x="353" y="216.1" class="st4" width="0.9" height="0.9"/>
	<polygon class="st4" points="288.3,217.9 288.3,218.8 288.3,219.6 289.1,219.6 289.1,218.8 289.1,217.9 289.1,217 288.3,217 	"/>
	<rect x="291.8" y="217" class="st4" width="0.9" height="0.9"/>
	<polygon class="st4" points="304,217 304,216.1 303.1,216.1 303.1,217 302.3,217 302.3,217.9 302.3,218.8 303.1,218.8 304,218.8 
		304,217.9 304.9,217.9 305.8,217.9 305.8,217 304.9,217 	"/>
	<polygon class="st4" points="315.4,217 314.5,217 314.5,217.9 315.4,217.9 315.4,218.8 315.4,219.6 316.3,219.6 316.3,218.8 
		317.1,218.8 318,218.8 318,217.9 318.9,217.9 318.9,217 318,217 317.1,217 317.1,216.1 316.3,216.1 316.3,217 	"/>
	<rect x="320.6" y="217" class="st4" width="0.9" height="0.9"/>
	<polygon class="st4" points="354.8,217 354.8,217.9 354.8,218.8 355.7,218.8 355.7,217.9 356.5,217.9 356.5,217 355.7,217 	"/>
	<rect x="311.9" y="217.9" class="st4" width="0.9" height="0.9"/>
	<rect x="313.6" y="217.9" class="st4" width="0.9" height="0.9"/>
	<polygon class="st4" points="318.9,217.9 318.9,218.8 318,218.8 318,219.6 318.9,219.6 318.9,220.5 319.8,220.5 320.6,220.5 
		320.6,219.6 321.5,219.6 321.5,218.8 320.6,218.8 320.6,217.9 319.8,217.9 	"/>
	<polygon class="st4" points="332,217.9 332,217 331.1,217 330.3,217 330.3,217.9 329.4,217.9 328.5,217.9 328.5,217 327.6,217 
		326.8,217 326.8,217.9 326.8,218.8 327.6,218.8 328.5,218.8 329.4,218.8 329.4,219.6 330.3,219.6 331.1,219.6 332,219.6 332,218.8 
			"/>
	<rect x="310.1" y="218.8" class="st4" width="0.9" height="0.9"/>
	<rect x="312.8" y="218.8" class="st4" width="0.9" height="0.9"/>
	<rect x="290" y="219.6" class="st4" width="0.9" height="0.9"/>
	<polygon class="st4" points="294.4,220.5 294.4,219.6 293.5,219.6 293.5,218.8 294.4,218.8 295.3,218.8 295.3,217.9 294.4,217.9 
		293.5,217.9 292.6,217.9 292.6,218.8 291.8,218.8 291.8,217.9 290.9,217.9 290.9,218.8 290.9,219.6 291.8,219.6 292.6,219.6 
		292.6,220.5 291.8,220.5 290.9,220.5 290.9,221.4 291.8,221.4 292.6,221.4 293.5,221.4 293.5,220.5 	"/>
	<polygon class="st4" points="299.6,220.5 299.6,221.4 300.5,221.4 300.5,220.5 300.5,219.6 300.5,218.8 300.5,217.9 301.4,217.9 
		301.4,217 300.5,217 300.5,216.1 301.4,216.1 301.4,217 302.3,217 302.3,216.1 302.3,215.3 301.4,215.3 300.5,215.3 300.5,214.4 
		300.5,213.5 299.6,213.5 299.6,214.4 299.6,215.3 299.6,216.1 299.6,217 299.6,217.9 299.6,218.8 298.8,218.8 298.8,219.6 
		299.6,219.6 	"/>
	<rect x="304.9" y="219.6" class="st4" width="0.9" height="0.9"/>
	<polygon class="st4" points="307.5,219.6 308.4,219.6 308.4,218.8 308.4,217.9 309.3,217.9 309.3,218.8 310.1,218.8 310.1,217.9 
		311,217.9 311,217 310.1,217 309.3,217 308.4,217 307.5,217 307.5,217.9 306.6,217.9 306.6,218.8 306.6,219.6 306.6,220.5 
		307.5,220.5 	"/>
	<polygon class="st4" points="308.4,219.6 308.4,220.5 309.3,220.5 310.1,220.5 310.1,219.6 309.3,219.6 	"/>
	<polygon class="st4" points="313.6,219.6 313.6,220.5 314.5,220.5 315.4,220.5 315.4,219.6 314.5,219.6 	"/>
	<rect x="328.5" y="219.6" class="st4" width="0.9" height="0.9"/>
	<rect x="332" y="219.6" class="st4" width="0.9" height="0.9"/>
	<polygon class="st4" points="290,220.5 289.1,220.5 288.3,220.5 288.3,221.4 288.3,222.3 288.3,223.1 289.1,223.1 289.1,224 
		290,224 290,224.9 290.9,224.9 291.8,224.9 291.8,224 292.6,224 292.6,223.1 291.8,223.1 291.8,222.3 290.9,222.3 290.9,221.4 
		290,221.4 	"/>
	<polygon class="st4" points="303.1,221.4 303.1,220.5 304,220.5 304,219.6 303.1,219.6 302.3,219.6 301.4,219.6 301.4,220.5 
		301.4,221.4 302.3,221.4 	"/>
	<rect x="304" y="220.5" class="st4" width="0.9" height="0.9"/>
	<rect x="311" y="220.5" class="st4" width="0.9" height="0.9"/>
	<rect x="318" y="220.5" class="st4" width="0.9" height="0.9"/>
	<polygon class="st4" points="321.5,221.4 322.4,221.4 323.3,221.4 323.3,220.5 322.4,220.5 321.5,220.5 320.6,220.5 320.6,221.4 	
		"/>
	<polygon class="st4" points="326.8,221.4 326.8,220.5 325.9,220.5 325.9,219.6 325.9,218.8 325.9,217.9 325,217.9 325,217 
		324.1,217 324.1,217.9 323.3,217.9 323.3,217 322.4,217 322.4,217.9 322.4,218.8 323.3,218.8 324.1,218.8 325,218.8 325,219.6 
		325,220.5 325,221.4 325.9,221.4 	"/>
	<polygon class="st4" points="327.6,221.4 326.8,221.4 326.8,222.3 326.8,223.1 327.6,223.1 327.6,222.3 328.5,222.3 328.5,223.1 
		327.6,223.1 327.6,224 327.6,224.9 326.8,224.9 326.8,225.8 326.8,226.6 326.8,227.5 325.9,227.5 325.9,228.4 325,228.4 325,229.3 
		325.9,229.3 326.8,229.3 326.8,228.4 327.6,228.4 327.6,227.5 328.5,227.5 328.5,226.6 328.5,225.8 328.5,224.9 329.4,224.9 
		329.4,224 329.4,223.1 329.4,222.3 329.4,221.4 328.5,221.4 328.5,220.5 327.6,220.5 	"/>
	<rect x="332.9" y="220.5" class="st4" width="0.9" height="0.9"/>
	<polygon class="st4" points="346.9,221.4 347.8,221.4 347.8,220.5 346.9,220.5 346,220.5 346,221.4 	"/>
	<polygon class="st4" points="350.4,221.4 350.4,222.3 351.3,222.3 351.3,221.4 351.3,220.5 350.4,220.5 349.5,220.5 349.5,221.4 	
		"/>
	<rect x="300.5" y="221.4" class="st4" width="0.9" height="0.9"/>
	<rect x="314.5" y="221.4" class="st4" width="0.9" height="0.9"/>
	<polygon class="st4" points="317.1,221.4 317.1,220.5 317.1,219.6 316.3,219.6 316.3,220.5 316.3,221.4 316.3,222.3 317.1,222.3 	
		"/>
	<polygon class="st4" points="324.1,222.3 324.1,223.1 325,223.1 325,222.3 325,221.4 324.1,221.4 323.3,221.4 323.3,222.3 	"/>
	<polygon class="st4" points="339.9,221.4 339.9,222.3 340.8,222.3 341.7,222.3 341.7,221.4 340.8,221.4 	"/>
	<polygon class="st4" points="343.4,222.3 344.3,222.3 344.3,221.4 345.2,221.4 345.2,220.5 344.3,220.5 343.4,220.5 343.4,221.4 	
		"/>
	<polygon class="st4" points="360.9,221.4 360,221.4 360,220.5 359.2,220.5 358.3,220.5 357.4,220.5 357.4,219.6 357.4,218.8 
		356.5,218.8 356.5,219.6 355.7,219.6 354.8,219.6 354.8,220.5 353.9,220.5 353.9,219.6 354.8,219.6 354.8,218.8 353.9,218.8 
		353,218.8 353,219.6 353,220.5 353,221.4 352.2,221.4 352.2,222.3 353,222.3 353.9,222.3 353.9,221.4 354.8,221.4 354.8,222.3 
		355.7,222.3 356.5,222.3 356.5,221.4 355.7,221.4 355.7,220.5 356.5,220.5 356.5,221.4 357.4,221.4 357.4,222.3 356.5,222.3 
		356.5,223.1 356.5,224 357.4,224 357.4,223.1 358.3,223.1 358.3,222.3 359.2,222.3 360,222.3 360,223.1 360.9,223.1 360.9,224 
		361.8,224 361.8,224.9 362.7,224.9 362.7,224 362.7,223.1 361.8,223.1 361.8,222.3 360.9,222.3 	"/>
	<rect x="317.1" y="222.3" class="st4" width="0.9" height="0.9"/>
	<rect x="332.9" y="222.3" class="st4" width="0.9" height="0.9"/>
	<rect x="342.5" y="222.3" class="st4" width="0.9" height="0.9"/>
	<polygon class="st4" points="351.3,223.1 351.3,224 352.2,224 352.2,223.1 352.2,222.3 351.3,222.3 	"/>
	<polygon class="st4" points="332.9,223.1 332,223.1 332,222.3 331.1,222.3 330.3,222.3 330.3,223.1 330.3,224 330.3,224.9 
		331.1,224.9 332,224.9 332.9,224.9 332.9,224 	"/>
	<rect x="343.4" y="223.1" class="st4" width="0.9" height="0.9"/>
	<polygon class="st4" points="346,223.1 346.9,223.1 347.8,223.1 347.8,224 348.7,224 348.7,223.1 349.5,223.1 349.5,222.3 
		348.7,222.3 347.8,222.3 346.9,222.3 346,222.3 346,221.4 345.2,221.4 345.2,222.3 344.3,222.3 344.3,223.1 345.2,223.1 345.2,224 
		346,224 	"/>
	<rect x="349.5" y="223.1" class="st4" width="0.9" height="0.9"/>
	<rect x="297.9" y="224" class="st4" width="0.9" height="0.9"/>
	<rect x="325.9" y="224" class="st4" width="0.9" height="0.9"/>
	<polygon class="st4" points="342.5,224 342.5,223.1 341.7,223.1 340.8,223.1 339.9,223.1 339.9,224 339,224 339,224.9 339,225.8 
		338.2,225.8 337.3,225.8 336.4,225.8 336.4,226.6 335.5,226.6 335.5,225.8 334.7,225.8 334.7,226.6 334.7,227.5 335.5,227.5 
		336.4,227.5 336.4,228.4 337.3,228.4 337.3,227.5 337.3,226.6 338.2,226.6 338.2,227.5 338.2,228.4 339,228.4 339,227.5 
		339.9,227.5 339.9,226.6 340.8,226.6 340.8,227.5 341.7,227.5 341.7,226.6 341.7,225.8 340.8,225.8 340.8,224.9 340.8,224 
		341.7,224 341.7,224.9 342.5,224.9 343.4,224.9 343.4,224 	"/>
	<rect x="346.9" y="224" class="st4" width="0.9" height="0.9"/>
	<polygon class="st4" points="354.8,224 353.9,224 353,224 353,224.9 352.2,224.9 352.2,225.8 353,225.8 353.9,225.8 353.9,224.9 
		354.8,224.9 354.8,225.8 355.7,225.8 355.7,224.9 356.5,224.9 356.5,224 355.7,224 	"/>
	<polygon class="st4" points="358.3,224.9 359.2,224.9 359.2,225.8 360,225.8 360,224.9 360,224 360,223.1 359.2,223.1 358.3,223.1 
		358.3,224 357.4,224 357.4,224.9 	"/>
	<polygon class="st4" points="298.8,225.8 298.8,226.6 299.6,226.6 300.5,226.6 300.5,225.8 299.6,225.8 299.6,224.9 298.8,224.9 	
		"/>
	<rect x="302.3" y="224.9" class="st4" width="0.9" height="0.9"/>
	<polygon class="st4" points="318,225.8 318,224.9 318.9,224.9 318.9,224 319.8,224 319.8,224.9 318.9,224.9 318.9,225.8 
		319.8,225.8 319.8,226.6 320.6,226.6 320.6,227.5 321.5,227.5 322.4,227.5 323.3,227.5 323.3,226.6 322.4,226.6 322.4,225.8 
		321.5,225.8 321.5,224.9 320.6,224.9 320.6,224 321.5,224 321.5,224.9 322.4,224.9 322.4,224 323.3,224 323.3,223.1 322.4,223.1 
		321.5,223.1 320.6,223.1 319.8,223.1 319.8,222.3 318.9,222.3 318.9,223.1 318,223.1 318,224 317.1,224 316.3,224 316.3,223.1 
		316.3,222.3 315.4,222.3 315.4,223.1 315.4,224 315.4,224.9 316.3,224.9 316.3,225.8 317.1,225.8 	"/>
	<polygon class="st4" points="334.7,225.8 334.7,224.9 334.7,224 333.8,224 333.8,224.9 332.9,224.9 332.9,225.8 333.8,225.8 	"/>
	<rect x="335.5" y="224.9" class="st4" width="0.9" height="0.9"/>
	<polygon class="st4" points="350.4,225.8 349.5,225.8 349.5,224.9 349.5,224 348.7,224 348.7,224.9 347.8,224.9 347.8,225.8 
		348.7,225.8 348.7,226.6 349.5,226.6 350.4,226.6 351.3,226.6 352.2,226.6 352.2,225.8 351.3,225.8 351.3,224.9 351.3,224 
		350.4,224 350.4,224.9 	"/>
	<polygon class="st4" points="360.9,225.8 360.9,226.6 361.8,226.6 361.8,227.5 362.7,227.5 362.7,226.6 362.7,225.8 361.8,225.8 
		361.8,224.9 360.9,224.9 	"/>
	<polygon class="st4" points="291.8,226.6 291.8,225.8 290.9,225.8 290,225.8 290,226.6 290.9,226.6 	"/>
	<rect x="301.4" y="225.8" class="st4" width="0.9" height="0.9"/>
	<polygon class="st4" points="332.9,226.6 332.9,225.8 332,225.8 331.1,225.8 331.1,226.6 330.3,226.6 330.3,225.8 329.4,225.8 
		329.4,226.6 329.4,227.5 330.3,227.5 331.1,227.5 332,227.5 332,226.6 	"/>
	<rect x="353.9" y="225.8" class="st4" width="0.9" height="0.9"/>
	<rect x="293.5" y="226.6" class="st4" width="0.9" height="0.9"/>
	<rect x="318.9" y="226.6" class="st4" width="0.9" height="0.9"/>
	<polygon class="st4" points="325,226.6 325,225.8 325,224.9 324.1,224.9 324.1,225.8 323.3,225.8 323.3,226.6 324.1,226.6 
		324.1,227.5 325,227.5 325.9,227.5 325.9,226.6 	"/>
	<rect x="353" y="226.6" class="st4" width="0.9" height="0.9"/>
	<polygon class="st4" points="354.8,226.6 354.8,227.5 354.8,228.4 354.8,229.3 355.7,229.3 356.5,229.3 356.5,228.4 355.7,228.4 
		355.7,227.5 356.5,227.5 356.5,226.6 356.5,225.8 355.7,225.8 355.7,226.6 	"/>
	<polygon class="st4" points="358.3,226.6 358.3,225.8 357.4,225.8 357.4,226.6 357.4,227.5 358.3,227.5 	"/>
	<rect x="360" y="226.6" class="st4" width="0.9" height="0.9"/>
	<rect x="290.9" y="227.5" class="st4" width="0.9" height="0.9"/>
	<rect x="292.6" y="227.5" class="st4" width="0.9" height="0.9"/>
	<polygon class="st4" points="302.3,227.5 301.4,227.5 301.4,228.4 301.4,229.3 302.3,229.3 302.3,230.1 303.1,230.1 303.1,229.3 
		303.1,228.4 302.3,228.4 	"/>
	<rect x="323.3" y="227.5" class="st4" width="0.9" height="0.9"/>
	<rect x="332" y="227.5" class="st4" width="0.9" height="0.9"/>
	<rect x="333.8" y="227.5" class="st4" width="0.9" height="0.9"/>
	<rect x="341.7" y="227.5" class="st4" width="0.9" height="0.9"/>
	<rect x="356.5" y="227.5" class="st4" width="0.9" height="0.9"/>
	<polygon class="st4" points="358.3,227.5 358.3,228.4 359.2,228.4 360,228.4 360,227.5 359.2,227.5 	"/>
	<polygon class="st4" points="290,228.4 290,227.5 290,226.6 289.1,226.6 288.3,226.6 288.3,227.5 288.3,228.4 288.3,229.3 
		289.1,229.3 289.1,230.1 290,230.1 290,229.3 290.9,229.3 290.9,228.4 	"/>
	<rect x="291.8" y="228.4" class="st4" width="0.9" height="0.9"/>
	<rect x="293.5" y="228.4" class="st4" width="0.9" height="0.9"/>
	<polygon class="st4" points="321.5,228.4 320.6,228.4 320.6,227.5 319.8,227.5 319.8,228.4 319.8,229.3 319.8,230.1 320.6,230.1 
		321.5,230.1 321.5,229.3 	"/>
	<rect x="327.6" y="228.4" class="st4" width="0.9" height="0.9"/>
	<rect x="361.8" y="228.4" class="st4" width="0.9" height="0.9"/>
	<rect x="290.9" y="229.3" class="st4" width="0.9" height="0.9"/>
	<rect x="292.6" y="229.3" class="st4" width="0.9" height="0.9"/>
	<rect x="294.4" y="229.3" class="st4" width="0.9" height="0.9"/>
	<path class="st4" d="M297.9,229.3h0.9v0.9h0.9v-0.9h0.9v-0.9h-0.9v-0.9h-0.9v0.9h-0.9v-0.9v-0.9v-0.9v-0.9H297h-0.9V224v-0.9h-0.9
		v-0.9h0.9h0.9v0.9h0.9v-0.9h0.9v-0.9v-0.9v-0.9h-0.9v0.9H297v0.9h-0.9v-0.9h-0.9h-0.9v0.9h-0.9v0.9h0.9v0.9h-0.9v0.9h0.9h0.9v0.9
		h-0.9h-0.9h-0.9v0.9v0.9h0.9v-0.9h0.9v0.9h0.9v0.9h-0.9v0.9h0.9h0.9v0.9h0.9v0.9h0.9V229.3z M296.1,225.8h0.9v0.9h-0.9V225.8z"/>
	<rect x="300.5" y="229.3" class="st4" width="0.9" height="0.9"/>
	<rect x="326.8" y="229.3" class="st4" width="0.9" height="0.9"/>
	<rect x="328.5" y="229.3" class="st4" width="0.9" height="0.9"/>
	<polygon class="st4" points="360,230.1 360.9,230.1 360.9,231 361.8,231 361.8,231.9 362.7,231.9 362.7,231 362.7,230.1 
		361.8,230.1 361.8,229.3 360.9,229.3 360.9,228.4 360,228.4 360,229.3 	"/>
	<rect x="288.3" y="230.1" class="st4" width="0.9" height="0.9"/>
	<rect x="293.5" y="230.1" class="st4" width="0.9" height="0.9"/>
	<rect x="297.9" y="230.1" class="st4" width="0.9" height="0.9"/>
	<path class="st4" d="M358.3,230.1v-0.9v-0.9h-0.9v0.9h-0.9v0.9h-0.9h-0.9v0.9h-0.9v0.9H353V231v-0.9h-0.9h-0.9v-0.9h0.9h0.9v0.9
		h0.9h0.9v-0.9h-0.9v-0.9H353v-0.9h-0.9v0.9h-0.9h-0.9h-0.9v0.9h-0.9v-0.9h0.9v-0.9h-0.9h-0.9v-0.9h-0.9v0.9H346v-0.9v-0.9h-0.9
		v-0.9V224h-0.9v0.9h-0.9v0.9h0.9v0.9h-0.9v-0.9h-0.9v0.9v0.9h0.9v0.9v0.9h0.9v0.9h-0.9v0.9v0.9v0.9h0.9v-0.9V231h0.9v-0.9h0.9h0.9
		v-0.9v-0.9h0.9v0.9v0.9h-0.9v0.9H346v0.9h-0.9v0.9h-0.9v0.9v0.9h0.9v-0.9h0.9v-0.9h0.9v-0.9h0.9V231h0.9v0.9h0.9v0.9h0.9h0.9v-0.9
		h-0.9V231h-0.9v-0.9h0.9v0.9h0.9h0.9v0.9v0.9h0.9v0.9v0.9h0.9v-0.9h0.9v0.9h-0.9v0.9v0.9h0.9h0.9v0.9h-0.9v0.9h0.9h0.9v-0.9v-0.9
		v-0.9h-0.9v-0.9h0.9v0.9h0.9v-0.9h0.9v0.9h0.9v-0.9v-0.9v-0.9h0.9v-0.9V231v-0.9h-0.9H358.3z M346,229.3h-0.9v-0.9h-0.9v-0.9h0.9
		v0.9h0.9V229.3z M358.3,233.6h-0.9h-0.9h-0.9v-0.9v-0.9V231h0.9h0.9h0.9v0.9v0.9V233.6z"/>
	<polygon class="st4" points="325.9,231 325.9,230.1 325,230.1 325,229.3 324.1,229.3 324.1,230.1 323.3,230.1 323.3,231 324.1,231 
		325,231 325,231.9 325,232.8 325.9,232.8 325.9,231.9 326.8,231.9 326.8,231 	"/>
	<path class="st4" d="M292.6,231.9h-0.9h-0.9H290h-0.9h-0.9v0.9v0.9v0.9v0.9v0.9v0.9v0.9h0.9h0.9h0.9h0.9h0.9h0.9h0.9v-0.9v-0.9
		v-0.9v-0.9v-0.9v-0.9v-0.9h-0.9H292.6z M293.5,233.6v0.9v0.9v0.9v0.9h-0.9h-0.9h-0.9H290h-0.9v-0.9v-0.9v-0.9v-0.9v-0.9h0.9h0.9
		h0.9h0.9h0.9V233.6z"/>
	<rect x="297.9" y="231.9" class="st4" width="0.9" height="0.9"/>
	<polygon class="st4" points="301.4,232.8 301.4,231.9 300.5,231.9 300.5,231 299.6,231 298.8,231 298.8,231.9 299.6,231.9 
		299.6,232.8 299.6,233.6 300.5,233.6 300.5,232.8 	"/>
	<rect x="314.5" y="231.9" class="st4" width="0.9" height="0.9"/>
	<polygon class="st4" points="323.3,231.9 323.3,231 322.4,231 322.4,230.1 321.5,230.1 321.5,231 320.6,231 319.8,231 319.8,230.1 
		318.9,230.1 318.9,231 318,231 318,231.9 318.9,231.9 319.8,231.9 320.6,231.9 321.5,231.9 322.4,231.9 322.4,232.8 321.5,232.8 
		320.6,232.8 320.6,233.6 321.5,233.6 322.4,233.6 323.3,233.6 323.3,232.8 324.1,232.8 324.1,231.9 	"/>
	<polygon class="st4" points="328.5,232.8 328.5,231.9 327.6,231.9 326.8,231.9 326.8,232.8 326.8,233.6 327.6,233.6 327.6,232.8 	
		"/>
	<rect x="332" y="231.9" class="st4" width="0.9" height="0.9"/>
	<rect x="335.5" y="231.9" class="st4" width="0.9" height="0.9"/>
	<rect x="356.5" y="231.9" class="st4" width="0.9" height="0.9"/>
	<polygon class="st4" points="303.1,232.8 304,232.8 304,231.9 304.9,231.9 304.9,231 304.9,230.1 304.9,229.3 304.9,228.4 
		304.9,227.5 304,227.5 304,226.6 304.9,226.6 304.9,225.8 305.8,225.8 305.8,224.9 304.9,224.9 304.9,224 305.8,224 305.8,223.1 
		305.8,222.3 306.6,222.3 306.6,221.4 306.6,220.5 305.8,220.5 305.8,221.4 304.9,221.4 304.9,222.3 304,222.3 304,223.1 
		303.1,223.1 303.1,222.3 302.3,222.3 302.3,223.1 301.4,223.1 300.5,223.1 299.6,223.1 299.6,222.3 298.8,222.3 298.8,223.1 
		298.8,224 299.6,224 299.6,224.9 300.5,224.9 300.5,224 301.4,224 301.4,224.9 302.3,224.9 302.3,224 303.1,224 304,224 304,224.9 
		304,225.8 303.1,225.8 303.1,226.6 303.1,227.5 303.1,228.4 304,228.4 304,229.3 304,230.1 304,231 303.1,231 302.3,231 
		302.3,230.1 301.4,230.1 301.4,231 301.4,231.9 302.3,231.9 302.3,232.8 301.4,232.8 301.4,233.6 302.3,233.6 302.3,234.5 
		303.1,234.5 303.1,233.6 	"/>
	<rect x="304" y="232.8" class="st4" width="0.9" height="0.9"/>
	<polygon class="st4" points="319.8,232.8 318.9,232.8 318.9,233.6 318.9,234.5 318.9,235.4 319.8,235.4 319.8,234.5 320.6,234.5 
		320.6,233.6 319.8,233.6 	"/>
	<polygon class="st4" points="324.1,233.6 324.1,234.5 325,234.5 325,233.6 325,232.8 324.1,232.8 	"/>
	<polygon class="st4" points="360.9,233.6 360.9,234.5 360.9,235.4 360,235.4 359.2,235.4 359.2,236.3 359.2,237.2 360,237.2 
		360.9,237.2 360.9,236.3 361.8,236.3 361.8,235.4 362.7,235.4 362.7,234.5 362.7,233.6 361.8,233.6 361.8,232.8 360.9,232.8 
		360,232.8 360,233.6 	"/>
	<polygon class="st4" points="290.9,233.6 290,233.6 290,234.5 290,235.4 290,236.3 290.9,236.3 291.8,236.3 292.6,236.3 
		292.6,235.4 292.6,234.5 292.6,233.6 291.8,233.6 	"/>
	<polygon class="st4" points="297.9,233.6 297.9,232.8 297,232.8 296.1,232.8 296.1,231.9 297,231.9 297.9,231.9 297.9,231 297,231 
		297,230.1 296.1,230.1 296.1,231 295.3,231 295.3,231.9 295.3,232.8 295.3,233.6 295.3,234.5 296.1,234.5 297,234.5 297.9,234.5 
		298.8,234.5 298.8,235.4 299.6,235.4 299.6,234.5 299.6,233.6 298.8,233.6 	"/>
	<rect x="300.5" y="233.6" class="st4" width="0.9" height="0.9"/>
	<path class="st4" d="M342.5,233.6h-0.9h-0.9v-0.9h0.9h0.9v-0.9h-0.9V231v-0.9v-0.9v-0.9h-0.9v-0.9h-0.9v0.9H339v0.9h0.9h0.9v0.9
		h-0.9H339v-0.9h-0.9h-0.9v0.9h-0.9v-0.9h-0.9v0.9h-0.9h-0.9v-0.9v-0.9h-0.9v0.9H332v-0.9h-0.9v0.9v0.9v0.9h0.9v-0.9h0.9v0.9h0.9
		v0.9v0.9h-0.9v0.9v0.9H332v0.9h0.9h0.9v-0.9h0.9v0.9h-0.9v0.9h-0.9v0.9H332h-0.9v0.9h0.9h0.9h0.9h0.9h0.9h0.9v-0.9h-0.9v-0.9v-0.9
		v-0.9h0.9h0.9v0.9h0.9v-0.9v-0.9h0.9v-0.9h0.9v0.9H339v0.9h0.9v0.9v0.9v0.9h0.9v-0.9h0.9v-0.9h-0.9v-0.9h0.9v0.9h0.9v-0.9V233.6z
		 M336.4,233.6h-0.9h-0.9v-0.9v-0.9V231h0.9h0.9h0.9v0.9v0.9v0.9H336.4z"/>
	<polygon class="st4" points="346.9,234.5 347.8,234.5 347.8,233.6 348.7,233.6 348.7,234.5 348.7,235.4 349.5,235.4 349.5,234.5 
		350.4,234.5 350.4,233.6 349.5,233.6 349.5,232.8 348.7,232.8 348.7,231.9 347.8,231.9 347.8,232.8 346.9,232.8 346.9,233.6 
		346,233.6 346,234.5 	"/>
	<polygon class="st4" points="304,234.5 303.1,234.5 303.1,235.4 303.1,236.3 304,236.3 304.9,236.3 304.9,235.4 304,235.4 	"/>
	<polygon class="st4" points="305.8,234.5 304.9,234.5 304.9,235.4 305.8,235.4 306.6,235.4 306.6,234.5 	"/>
	<polygon class="st4" points="310.1,235.4 309.3,235.4 309.3,236.3 309.3,237.2 310.1,237.2 310.1,236.3 311,236.3 311,235.4 
		311,234.5 310.1,234.5 	"/>
	<path class="st4" d="M314.5,235.4v-0.9h0.9h0.9h0.9v-0.9h0.9v-0.9v-0.9h-0.9V231v-0.9h0.9v-0.9v-0.9h-0.9v-0.9h0.9v-0.9h-0.9h-0.9
		v-0.9h-0.9h-0.9v-0.9V224v-0.9v-0.9h-0.9v-0.9h-0.9h-0.9v0.9h0.9v0.9v0.9h-0.9H311v0.9h0.9v0.9h0.9v-0.9h0.9v0.9h-0.9v0.9h-0.9v0.9
		v0.9h0.9h0.9h0.9v-0.9h-0.9v-0.9h0.9h0.9v0.9v0.9h-0.9v0.9v0.9h-0.9v-0.9h-0.9h-0.9v-0.9H311v-0.9h-0.9h-0.9h-0.9v-0.9h0.9v-0.9
		v-0.9h0.9V224h0.9v-0.9h0.9v-0.9H311v-0.9h-0.9h-0.9h-0.9h-0.9v0.9h-0.9v0.9h0.9h0.9v-0.9h0.9h0.9v0.9h-0.9v0.9h-0.9h-0.9h-0.9v0.9
		h0.9v0.9v0.9v0.9h-0.9h-0.9v0.9v0.9v0.9v0.9v0.9h-0.9v0.9h0.9v0.9h0.9v0.9h0.9v0.9h-0.9v0.9h-0.9v0.9h-0.9H304v0.9h0.9h0.9h0.9
		v-0.9h0.9h0.9v-0.9v-0.9h0.9v-0.9v-0.9h-0.9v-0.9h-0.9h-0.9v-0.9h0.9V231v-0.9h-0.9v-0.9v-0.9h0.9h0.9h0.9h0.9v0.9h-0.9h-0.9v0.9
		v0.9v0.9v0.9h0.9h0.9v0.9h0.9v0.9h0.9v-0.9h0.9v0.9v0.9h-0.9v0.9h0.9h0.9v-0.9H314.5z M311,232.8v-0.9h-0.9h-0.9V231v-0.9h0.9h0.9
		v0.9v0.9h0.9v0.9H311z M313.6,232.8v-0.9V231h0.9h0.9h0.9v0.9v0.9v0.9h-0.9h-0.9h-0.9V232.8z"/>
	<rect x="317.1" y="234.5" class="st4" width="0.9" height="0.9"/>
	<rect x="320.6" y="234.5" class="st4" width="0.9" height="0.9"/>
	<rect x="325" y="234.5" class="st4" width="0.9" height="0.9"/>
	<polygon class="st4" points="328.5,235.4 329.4,235.4 330.3,235.4 330.3,234.5 331.1,234.5 332,234.5 332,233.6 331.1,233.6 
		331.1,232.8 331.1,231.9 330.3,231.9 330.3,231 329.4,231 329.4,231.9 329.4,232.8 328.5,232.8 328.5,233.6 329.4,233.6 
		329.4,234.5 328.5,234.5 328.5,233.6 327.6,233.6 327.6,234.5 326.8,234.5 326.8,235.4 326.8,236.3 327.6,236.3 327.6,235.4 	"/>
	<polygon class="st4" points="296.1,235.4 296.1,236.3 296.1,237.2 297,237.2 297,236.3 297.9,236.3 297.9,235.4 297,235.4 	"/>
	<rect x="300.5" y="235.4" class="st4" width="0.9" height="0.9"/>
	<polygon class="st4" points="315.4,235.4 315.4,236.3 315.4,237.2 316.3,237.2 316.3,238 317.1,238 317.1,237.2 317.1,236.3 
		317.1,235.4 316.3,235.4 	"/>
	<polygon class="st4" points="319.8,236.3 319.8,237.2 318.9,237.2 318.9,236.3 318.9,235.4 318,235.4 318,236.3 318,237.2 318,238 
		318.9,238 319.8,238 320.6,238 320.6,237.2 321.5,237.2 321.5,238 322.4,238 323.3,238 323.3,237.2 322.4,237.2 322.4,236.3 
		321.5,236.3 320.6,236.3 320.6,235.4 319.8,235.4 	"/>
	<polygon class="st4" points="331.1,235.4 330.3,235.4 330.3,236.3 329.4,236.3 328.5,236.3 327.6,236.3 327.6,237.2 327.6,238 
		328.5,238 328.5,237.2 329.4,237.2 330.3,237.2 331.1,237.2 331.1,236.3 	"/>
	<rect x="347.8" y="235.4" class="st4" width="0.9" height="0.9"/>
	<polygon class="st4" points="301.4,236.3 301.4,237.2 301.4,238 302.3,238 302.3,237.2 303.1,237.2 303.1,236.3 302.3,236.3 	"/>
	<polygon class="st4" points="314.5,236.3 313.6,236.3 313.6,237.2 312.8,237.2 311.9,237.2 311.9,238 312.8,238 313.6,238 
		314.5,238 315.4,238 315.4,237.2 314.5,237.2 	"/>
	<polygon class="st4" points="323.3,237.2 324.1,237.2 324.1,236.3 324.1,235.4 323.3,235.4 323.3,234.5 322.4,234.5 322.4,235.4 
		322.4,236.3 323.3,236.3 	"/>
	<polygon class="st4" points="325.9,237.2 325,237.2 325,238 325.9,238 326.8,238 326.8,237.2 326.8,236.3 325.9,236.3 	"/>
	<rect x="336.4" y="236.3" class="st4" width="0.9" height="0.9"/>
	<polygon class="st4" points="338.2,237.2 339,237.2 339,236.3 339,235.4 338.2,235.4 338.2,236.3 	"/>
	<polygon class="st4" points="349.5,236.3 348.7,236.3 348.7,237.2 347.8,237.2 347.8,236.3 346.9,236.3 346,236.3 346,235.4 
		345.2,235.4 344.3,235.4 344.3,234.5 343.4,234.5 343.4,235.4 342.5,235.4 342.5,236.3 343.4,236.3 344.3,236.3 345.2,236.3 
		345.2,237.2 346,237.2 346.9,237.2 346.9,238 347.8,238 348.7,238 349.5,238 350.4,238 350.4,237.2 349.5,237.2 	"/>
	<polygon class="st4" points="352.2,236.3 352.2,235.4 353,235.4 353,234.5 352.2,234.5 351.3,234.5 350.4,234.5 350.4,235.4 
		350.4,236.3 350.4,237.2 351.3,237.2 351.3,238 352.2,238 353,238 353,237.2 352.2,237.2 	"/>
	<rect x="353" y="236.3" class="st4" width="0.9" height="0.9"/>
	<rect x="297" y="237.2" class="st4" width="0.9" height="0.9"/>
	<polygon class="st4" points="298.8,237.2 298.8,238 299.6,238 300.5,238 300.5,237.2 299.6,237.2 	"/>
	<rect x="308.4" y="237.2" class="st4" width="0.9" height="0.9"/>
	<rect x="337.3" y="237.2" class="st4" width="0.9" height="0.9"/>
	<polygon class="st4" points="341.7,238 342.5,238 342.5,237.2 341.7,237.2 340.8,237.2 340.8,238 	"/>
	<rect x="344.3" y="237.2" class="st4" width="0.9" height="0.9"/>
	<polygon class="st4" points="357.4,237.2 357.4,238 358.3,238 359.2,238 359.2,237.2 358.3,237.2 	"/>
	<polygon class="st4" points="360.9,237.2 360.9,238 361.8,238 362.7,238 362.7,237.2 362.7,236.3 361.8,236.3 361.8,237.2 	"/>
</g>
</svg>
