<?xml version="1.0" encoding="utf-8"?>
<!-- Generator: Adobe Illustrator 24.2.1, SVG Export Plug-In . SVG Version: 6.00 Build 0)  -->
<svg version="1.1" id="katman_1" xmlns="http://www.w3.org/2000/svg" xmlns:xlink="http://www.w3.org/1999/xlink" x="0px" y="0px"
	 viewBox="0 0 56.69 56.69" style="enable-background:new 0 0 56.69 56.69;" xml:space="preserve">
<style type="text/css">
	.st0{fill:#D7B46A;}
</style>
<path class="st0" d="M30.74,2.83c1.12,0.3,2.27,0.52,3.35,0.93c7.03,2.64,11.32,10.28,9.98,17.67c-0.76,4.19-2.54,7.97-4.58,11.65
	c-2.83,5.1-6.21,9.82-9.91,14.32c-0.17,0.2-0.35,0.39-0.55,0.61c-0.1-0.08-0.2-0.12-0.26-0.2c-5.15-6.25-9.75-12.86-12.96-20.35
	c-1.05-2.45-1.81-4.98-2.02-7.66C13.14,11.74,18.78,4.4,26.72,3c0.18-0.03,0.34-0.11,0.51-0.16C28.4,2.83,29.57,2.83,30.74,2.83z
	 M29.01,45.29c1.12-1.5,2.15-2.82,3.13-4.17c3.57-4.97,6.87-10.1,9.03-15.87c1.28-3.43,1.8-6.91,0.74-10.52
	c-1.59-5.43-6.29-9.53-11.52-9.98c-6.42-0.56-12.14,3.33-14.13,9.56c-1.16,3.64-0.73,7.18,0.55,10.68
	c2.15,5.86,5.47,11.07,9.08,16.12C26.86,42.47,27.9,43.81,29.01,45.29z"/>
<path class="st0" d="M8.42,53.06c0.69-2.53,1.39-5.06,2.06-7.6c0.77-2.87,1.52-5.74,2.26-8.62c0.13-0.51,0.32-0.75,0.9-0.72
	c1.24,0.05,2.49,0.02,3.78,0.02c0,0.62,0,1.16,0,1.8c-0.75,0-1.46-0.03-2.16,0.02c-0.22,0.02-0.54,0.24-0.6,0.43
	c-1.14,4.2-2.26,8.4-3.37,12.61c-0.03,0.1-0.01,0.2-0.02,0.37c11.92,0,23.8,0,35.81,0c-0.08-0.36-0.14-0.68-0.23-1
	c-1.03-3.87-2.07-7.74-3.08-11.62c-0.16-0.61-0.39-0.89-1.07-0.83c-0.87,0.07-1.75,0.02-2.69,0.02c0-0.59,0-1.13,0-1.74
	c1.74,0,3.51,0,5.35,0c0.54,2.05,1.09,4.12,1.63,6.19c0.86,3.28,1.72,6.57,2.59,9.85c0.07,0.28,0.19,0.55,0.29,0.82
	c0,0.05,0,0.11,0,0.16c-13.82,0-27.64,0-41.46,0C8.42,53.17,8.42,53.11,8.42,53.06z"/>
<path class="st0" d="M35.56,18.31c0,3.67-2.92,6.62-6.55,6.61c-3.61-0.01-6.56-3-6.54-6.64c0.02-3.65,2.98-6.63,6.57-6.62
	C32.66,11.67,35.56,14.63,35.56,18.31z M29.04,13.51c-2.64-0.01-4.73,2.09-4.75,4.76c-0.03,2.62,2.11,4.8,4.72,4.81
	c2.62,0.01,4.75-2.13,4.75-4.78C33.77,15.65,31.67,13.52,29.04,13.51z"/>
</svg>
