<?xml version="1.0" encoding="utf-8"?>
<!-- Generator: Adobe Illustrator 24.2.1, SVG Export Plug-In . SVG Version: 6.00 Build 0)  -->
<svg version="1.1" id="katman_1" xmlns="http://www.w3.org/2000/svg" xmlns:xlink="http://www.w3.org/1999/xlink" x="0px" y="0px"
	 viewBox="0 0 56.69 56.69" style="enable-background:new 0 0 56.69 56.69;" xml:space="preserve">
<style type="text/css">
	.st0{fill:#D7B46A;}
</style>
<path class="st0" d="M2.08,35.8c1.2,0,2.4-0.01,3.59,0.01c0.11,0,0.25,0.19,0.31,0.33c0.37,0.8,0.7,1.61,1.08,2.41
	c0.06,0.13,0.27,0.27,0.41,0.27c2.38,0.02,4.75,0.01,7.13,0.01c0.06,0,0.12-0.02,0.19-0.03c-0.24-0.99-0.48-1.96-0.73-2.97
	c1.28,0,2.51,0,3.74,0c0.26,0.9,0.52,1.79,0.8,2.67c0.04,0.13,0.23,0.31,0.35,0.31c2.33,0.02,4.66,0.01,6.99,0.01
	c0.03,0,0.06-0.02,0.14-0.05c0-0.96,0-1.95,0-2.95c1.24,0,2.43,0,3.65,0c0,0.99,0,1.97,0,3.01c0.19,0,0.34,0,0.49,0
	c2.39,0,4.79-0.01,7.18,0.01c0.33,0,0.51-0.08,0.6-0.42c0.22-0.77,0.46-1.53,0.72-2.29c0.04-0.13,0.19-0.31,0.3-0.32
	c1.15-0.02,2.3-0.01,3.52-0.01c-0.28,1.02-0.54,2-0.82,3.01c0.16,0.01,0.29,0.02,0.43,0.02c2.31,0,4.63-0.01,6.94,0.01
	c0.34,0,0.51-0.11,0.63-0.41c0.31-0.76,0.66-1.49,0.96-2.25c0.11-0.27,0.22-0.39,0.54-0.39c1.13,0.02,2.26,0.01,3.4,0.01
	c-2.37,9.04-11.9,19.17-26.12,19.26C14.45,55.14,4.61,45.25,2.08,35.8z M47.11,42.5c-2.21,0-4.28,0.01-6.36-0.01
	c-0.4,0-0.61,0.11-0.79,0.47c-1.47,2.89-3.41,5.42-5.89,7.53c-0.07,0.06-0.12,0.14-0.27,0.31C39.2,49.49,43.57,46.79,47.11,42.5z
	 M9.6,42.5c3.18,3.87,7.06,6.45,11.77,7.8c-0.23-0.33-0.54-0.57-0.81-0.85c-1.8-1.93-3.15-4.15-4.22-6.55
	c-0.13-0.3-0.3-0.42-0.63-0.41c-0.77,0.03-1.54,0.01-2.31,0.01C12.17,42.5,10.95,42.5,9.6,42.5z M29.78,49.11
	c2.62-1.72,4.61-3.93,6.21-6.59c-2.12,0-4.16,0-6.21,0C29.78,44.72,29.78,46.88,29.78,49.11z M26.06,49.26c0-2.27,0-4.49,0-6.73
	c-1.93,0-3.84,0-5.76,0C21.29,44.81,23.76,47.94,26.06,49.26z"/>
<path class="st0" d="M14.13,20.4c0.27-1.05,0.53-2.05,0.8-3.1c-0.74,0-1.44,0-2.15,0c-1.62,0-3.24,0.01-4.86-0.01
	c-0.33,0-0.51,0.1-0.64,0.4c-0.36,0.8-0.73,1.6-1.11,2.39c-0.06,0.13-0.21,0.31-0.32,0.31c-1.21,0.02-2.41,0.01-3.63,0.01
	C5.05,10.92,14.59,1.95,27.68,1.64c13.19-0.32,23.6,8.34,26.84,18.77c-0.61,0-1.19,0-1.78,0c-0.58,0-1.17-0.01-1.75,0.01
	c-0.25,0.01-0.35-0.09-0.44-0.31c-0.37-0.85-0.76-1.69-1.18-2.52c-0.07-0.13-0.27-0.28-0.41-0.28c-2.47-0.02-4.94-0.01-7.45-0.01
	c0.29,1.03,0.58,2.04,0.88,3.08c-1.3,0-2.53,0-3.76,0c-0.33-0.93-0.64-1.85-0.99-2.76c-0.05-0.14-0.28-0.31-0.42-0.31
	c-2.42-0.02-4.85-0.01-7.27-0.01c-0.04,0-0.09,0.02-0.18,0.04c0,1,0,2,0,3.03c-1.23,0-2.42,0-3.67,0c0-0.99,0-2.01,0-3.04
	c-0.19-0.01-0.33-0.03-0.47-0.03c-2.11,0-4.22,0.01-6.33-0.01c-0.32,0-0.48,0.09-0.57,0.4c-0.26,0.9-0.55,1.8-0.83,2.7
	C16.67,20.4,15.44,20.4,14.13,20.4z M46.54,13.65c-3.34-3.97-7.53-6.47-12.61-7.72c0.11,0.13,0.15,0.18,0.2,0.22
	c2.31,2.05,4.15,4.46,5.59,7.18c0.14,0.27,0.33,0.33,0.6,0.32c1.57-0.01,3.15,0,4.72,0C45.54,13.65,46.04,13.65,46.54,13.65z
	 M21.7,6.21c-4.63,1.37-8.48,3.77-11.66,7.45c0.28,0,0.42,0,0.56,0c1.78,0,3.56-0.01,5.33,0.01c0.35,0,0.53-0.1,0.68-0.42
	c0.9-1.87,2.02-3.59,3.37-5.16C20.5,7.47,21.07,6.88,21.7,6.21z M35.62,13.63c-1.58-2.49-3.43-4.57-5.83-6.22c0,2.12,0,4.16,0,6.22
	C31.72,13.63,33.61,13.63,35.62,13.63z M20.6,13.63c1.88,0,3.65,0,5.45,0c0-2.06,0-4.09,0-6.2C23.75,9.08,22.03,11.17,20.6,13.63z"
	/>
<path class="st0" d="M47.07,26.33c-0.54,1.54-1.04,2.94-1.54,4.34c-0.13,0.37-0.28,0.73-0.43,1.1c-0.3,0.73-0.9,0.96-1.63,0.97
	c-0.76,0-1.35-0.27-1.62-1.04c-0.57-1.62-1.13-3.23-1.7-4.85c-0.18-0.5-0.36-1.01-0.52-1.52c-0.24-0.78,0.07-1.24,0.89-1.36
	c0.9-0.13,1.35,0.1,1.62,0.97c0.46,1.47,0.87,2.95,1.31,4.43c0.04,0.14,0.08,0.27,0.15,0.51c0.1-0.24,0.17-0.4,0.22-0.57
	c0.47-1.37,0.93-2.74,1.43-4.1c0.42-1.13,1.47-1.61,2.59-1.13c0.35,0.15,0.72,0.5,0.86,0.85c0.58,1.46,1.08,2.95,1.61,4.43
	c0.05,0.15,0.11,0.29,0.2,0.53c0.37-1.29,0.72-2.5,1.07-3.7c0.14-0.47,0.26-0.94,0.42-1.4c0.33-0.9,1.7-1.18,2.34-0.47
	c0.15,0.17,0.23,0.5,0.18,0.72c-0.14,0.61-0.36,1.2-0.57,1.8c-0.54,1.56-1.07,3.12-1.63,4.67c-0.4,1.11-1.44,1.56-2.51,1.06
	c-0.31-0.15-0.64-0.46-0.76-0.77c-0.64-1.64-1.22-3.3-1.81-4.96C47.21,26.72,47.16,26.59,47.07,26.33z"/>
<path class="st0" d="M9.5,26.34c-0.55,1.54-1.05,2.98-1.57,4.41c-0.12,0.33-0.25,0.65-0.38,0.96c-0.31,0.72-0.82,1.03-1.63,1.03
	c-0.79,0-1.38-0.29-1.66-1.07c-0.74-2.11-1.48-4.21-2.19-6.32c-0.27-0.8,0.06-1.26,0.9-1.38c0.88-0.12,1.32,0.1,1.59,0.95
	c0.46,1.44,0.86,2.89,1.28,4.34c0.05,0.16,0.1,0.32,0.19,0.59c0.09-0.23,0.15-0.36,0.2-0.5c0.47-1.35,0.95-2.7,1.4-4.05
	c0.46-1.39,1.52-1.47,2.52-1.27c0.46,0.09,0.82,0.39,0.99,0.86c0.53,1.48,1.06,2.96,1.59,4.44c0.05,0.15,0.1,0.29,0.2,0.56
	c0.09-0.28,0.15-0.45,0.2-0.62c0.41-1.42,0.81-2.84,1.24-4.25c0.28-0.93,0.93-1.26,1.87-1.01c0.65,0.18,0.92,0.59,0.7,1.24
	c-0.48,1.46-0.99,2.92-1.5,4.37c-0.25,0.73-0.51,1.45-0.78,2.17c-0.27,0.73-0.87,0.95-1.58,0.94c-0.7,0-1.32-0.19-1.59-0.93
	c-0.59-1.61-1.17-3.22-1.75-4.83C9.67,26.81,9.61,26.63,9.5,26.34z"/>
<path class="st0" d="M24.83,29.9c0.25-0.73,0.46-1.33,0.67-1.93c0.32-0.92,0.62-1.85,0.96-2.76c0.43-1.12,1.47-1.57,2.61-1.15
	c0.42,0.16,0.72,0.44,0.87,0.87c0.53,1.48,1.06,2.96,1.58,4.44c0.05,0.14,0.1,0.28,0.19,0.53c0.34-1.17,0.65-2.24,0.96-3.3
	c0.16-0.56,0.31-1.12,0.49-1.67c0.32-0.95,1.44-1.3,2.27-0.71c0.36,0.26,0.43,0.6,0.29,1c-0.42,1.23-0.84,2.47-1.26,3.7
	c-0.31,0.91-0.62,1.81-0.96,2.71c-0.3,0.8-0.74,1.09-1.61,1.12c-0.88,0.02-1.39-0.26-1.69-1.06c-0.61-1.62-1.18-3.25-1.76-4.87
	c-0.04-0.12-0.08-0.24-0.16-0.44c-0.09,0.24-0.16,0.4-0.22,0.56c-0.58,1.59-1.14,3.2-1.74,4.78c-0.28,0.74-0.81,1.04-1.62,1.03
	c-0.89-0.01-1.37-0.29-1.65-1.07c-0.75-2.1-1.48-4.21-2.19-6.32c-0.27-0.81,0.05-1.26,0.9-1.38c0.88-0.12,1.32,0.1,1.59,0.95
	C23.86,26.53,24.32,28.14,24.83,29.9z"/>
</svg>
