<?xml version="1.0" encoding="utf-8"?>
<!-- Generator: Adobe Illustrator 24.2.1, SVG Export Plug-In . SVG Version: 6.00 Build 0)  -->
<svg version="1.1" id="katman_1" xmlns="http://www.w3.org/2000/svg" xmlns:xlink="http://www.w3.org/1999/xlink" x="0px" y="0px"
	 viewBox="0 0 283.5 283.5" style="enable-background:new 0 0 283.5 283.5;" xml:space="preserve">
<style type="text/css">
	.st0{fill:#FFFFFF;stroke:#D7B46A;stroke-width:2;stroke-miterlimit:10;}
	.st1{fill:#FFFFFF;}
</style>
<circle class="st0" cx="141.7" cy="141.7" r="127.6"/>
<g>
	<path d="M186,93.9c-29.8,0-59.6,0-90.6,0c2-1.6,3.1-2.6,4.3-3.4c12.4-8.4,25-16.8,37.3-25.4c3.1-2.1,5.2-2.4,8.4-0.2
		c13.6,9.5,27.4,18.6,41.2,27.8C186.4,93.2,186.2,93.6,186,93.9z"/>
	<path d="M142.4,110.6c10-0.8,10-0.8,12.4,8.4c1.2,4.4,2.4,8.8,4.6,13.3c0-7.1,0-14.3,0-21.7c3.9,0,7,0,10.4,0c0,19.4,0,38.7,0,57.8
		c-10,2.4-10.5,2.1-12.9-7.6c-1.1-4.3-2.2-8.5-3.4-12.8c-0.1-0.3-0.6-0.4-1.3-1c0,7.5,0,14.6,0,22c-3.4,0-6.4,0-9.8,0
		C142.4,149.6,142.4,130.3,142.4,110.6z"/>
	<path d="M100.5,137.3c6,5.1,8.4,22.9,3.7,28.4c-1.6,1.9-4.8,3.1-7.3,3.3c-6.2,0.5-12.4,0.1-19.2,0.1c0-19.5,0-38.8,0-58.5
		c5.9,0,11.9-0.3,17.8,0.1c5.6,0.4,8.9,4.2,9.4,9.4C105.4,126,107.8,132.8,100.5,137.3z M90,159.3c5.4-4.4,5-13.8,0-16.3
		C90,148.2,90,153.2,90,159.3z M89.9,132.8c0.8,0.2,1.6,0.3,2.5,0.5c0.4-2.9,1.2-5.8,1.1-8.8c0-1.3-1.5-2.7-2.3-4
		c-0.4,0.2-0.9,0.4-1.3,0.6C89.9,125.1,89.9,128.9,89.9,132.8z"/>
	<path d="M206,168.8c-13,1.2-13,1.1-15.3-10.2c-0.6-3-1.4-6-3.3-8.8c0,6.3,0,12.6,0,19.1c-4.2,0-7.9,0-11.9,0c0-19.5,0-38.7,0-58.3
		c3.7,0,7.4,0,11.9,0c0,5.6,0,11.4,0,17.2c0.5,0,0.9,0.1,1.4,0.1c1.5-5.8,3-11.7,4.6-17.5c4,0,7.6,0,13,0
		C194.5,130.1,200.1,149.3,206,168.8z"/>
	<path d="M139.8,168.9c-4.4,0-8.3,0-12.6,0c-0.2-2.7-0.3-5.3-0.8-7.8c-0.2-1-1.6-1.7-2.5-2.6c-0.7,0.8-1.8,1.5-2,2.4
		c-0.6,2.5-0.8,5.1-1.1,7.9c-4.1,0-8,0-12.7,0c2.1-19.7,4.2-39.1,6.3-58.4c6.4,0,12.2,0,18.3,0C135.1,130.1,137.4,149.3,139.8,168.9
		z M121.8,147.6c1.2,0.1,2.3,0.2,3.5,0.3c1-6.2-1.2-12.6-1.8-18.8C122.9,135.3,122.3,141.4,121.8,147.6z"/>
	<path d="M239.5,205.2c-1.4,1.2-2.7,2.9-4.4,3.5c-1.8,0.6-4,0.1-6,0.1c-59.7,0-119.3,0-179,0c-3.1,0-7.6,1.2-5.6-5.2
		c64.6,0,129.2,0,193.8,0C238.7,204.1,239.1,204.7,239.5,205.2z"/>
	<path d="M62.5,185.4c52.6,0,105.1,0,157.7,0c2.1,6.2-2.2,5.2-5.4,5.2c-47.4,0-94.8,0-142.1,0c-2.2,0-4.4-0.1-6.6,0
		C62,190.9,61.1,189.1,62.5,185.4z"/>
	<path d="M52.9,199.3c-1.7-4.3,0.3-5,3.8-5c15.7,0.1,31.3,0,47,0c39.8,0,79.5,0,119.3,0c1.6,0,3.3-0.3,4.8,0.2
		c1,0.3,2.3,1.7,2.3,2.6c0,0.8-1.5,1.8-2.5,2.3c-0.6,0.3-1.6,0.1-2.4,0.1c-56.2,0-112.4,0-168.7,0C55.3,199.5,54.1,199.4,52.9,199.3
		z"/>
	<path d="M78.6,93c13.9-9.4,27.8-18.8,41.6-28.2c6-4,11.9-8.3,18-12c1.4-0.9,4.3-1,5.7-0.2c20.1,13.3,40,26.7,59.9,40.2
		c-0.2,0.6-0.4,1.3-0.5,1.9c-3.6-1-7.8-1.2-10.8-3.1c-15.7-10.1-31.1-20.5-46.4-31.2c-3.8-2.7-6.2-2.4-9.9,0.2
		c-14.6,10.2-29.4,20.2-44.4,30c-3.6,2.3-8.1,3.3-12.2,4.9C79.3,94.6,78.9,93.8,78.6,93z"/>
	<path d="M212.2,98.4c1.6,5.7-2.3,4.7-5.1,4.7c-27.7,0-55.5,0-83.2,0c-16.3,0-32.6,0-48.8,0c-3,0-6,0.3-4.5-4.7
		C117.6,98.4,164.7,98.4,212.2,98.4z"/>
	<path d="M212.1,181.3c-47.3,0-94.2,0-141.2,0c-0.7-4.8-0.7-4.9,4.1-4.9c27.5,0,55.1,0,82.6,0c16.7,0,33.4,0,50.1,0
		C210.7,176.3,213.8,176.1,212.1,181.3z"/>
	<path class="st1" d="M90,159.3c0-6,0-11.1,0-16.3C95,145.4,95.4,154.9,90,159.3z"/>
	<path class="st1" d="M89.9,132.8c0-3.9,0-7.8,0-11.7c0.4-0.2,0.9-0.4,1.3-0.6c0.8,1.3,2.3,2.7,2.3,4c0,2.9-0.7,5.8-1.1,8.7
		C91.6,133.1,90.8,133,89.9,132.8z"/>
	<path class="st1" d="M121.8,147.6c0.6-6.2,1.1-12.4,1.7-18.6c0.6,6.3,2.8,12.7,1.8,18.8C124.1,147.8,123,147.7,121.8,147.6z"/>
</g>
</svg>
