<?xml version="1.0" encoding="utf-8"?>
<!-- Generator: Adobe Illustrator 24.2.1, SVG Export Plug-In . SVG Version: 6.00 Build 0)  -->
<svg version="1.1" id="katman_1" xmlns="http://www.w3.org/2000/svg" xmlns:xlink="http://www.w3.org/1999/xlink" x="0px" y="0px"
	 viewBox="0 0 79 79" style="enable-background:new 0 0 79 79;" xml:space="preserve">
<style type="text/css">
	.st0{fill:#516AB0;}
	.st1{fill:#FEFEFF;}
	.st2{fill:#4A65AD;}
	.st3{fill:#FFFFFF;}
	.st4{fill:#F9FAFD;}
	.st5{fill:#5C74B7;}
	.st6{fill:#516AB1;}
	.st7{fill:#6D81C0;}
</style>
<g>
	<path class="st0" d="M39.7,0c21.2-0.4,38.2,17.3,39.3,37.1C80.2,60.5,61.5,78,41.8,79C17.5,80.1,1.1,60.6,0.1,41.9
		C-1.3,17.6,18.9-0.8,39.7,0z"/>
	<path class="st1" d="M39.5,0.9C60.8,0.9,78,18.1,78,39.5C78,60.8,60.7,78,39.5,78C18.2,78,1,60.7,1,39.4C1,18.1,18.2,0.9,39.5,0.9z
		"/>
	<path class="st2" d="M39.5,76.6c-20.4,0-37.1-16.6-37.1-37c0-20.7,16.5-37.2,37.1-37.2c20.6,0,37.1,16.6,37.1,37.2
		C76.6,60,60,76.6,39.5,76.6z"/>
	<path class="st3" d="M51.7,42c-3.3-0.8-6.6-1.3-10-0.7c-1.4,0.2-1.5-0.3-1.4-1.5c0.9-6.7,1.8-13.5,2.7-20.2
		c0.1-0.9,0.3-1.7,1.4-1.8c3.9-0.3,7.8-0.5,11.5,1.2c2.1,0.9,3,2.3,2.6,4.7c-0.5,3-0.6,6.2-0.8,9.2c0.2,2.6,0.1,5.1,0,7.7
		c-0.2,3-1.1,3.9-4.5,2.5C52.5,42.9,52.1,42.4,51.7,42z"/>
	<path class="st3" d="M27.7,18.6c0.4-2.1,0.9-4.2,1.3-6.3c0.2-1.2,0.6-1.7,1.9-1.6c4.1,0.4,7.5,2.1,10,5.4c0.4,0.6,0.8,1.1,0.7,1.9
		c-0.7,7.5-1.4,15-2.1,23.1c-3.6-4.7-8.3-6.6-13.3-8.1c-1.1-0.3-1.2-0.9-1-1.9c0.6-3,1.2-6.1,1.7-9.1C27.2,20.9,26.1,19.4,27.7,18.6
		z"/>
	<path class="st3" d="M26.5,21c-0.9,3.6-1.8,7.2-2.8,10.7c-0.5,1.7-0.2,2.4,1.6,2.7c4.8,0.8,8.7,3.4,12.6,7.2
		c-5.6-1.1-10.6-1-15.6-0.1c-1.2,1.3-2.8,0.9-4.3,0.8c0.2-4.2,1.6-8.1,2.4-12.2c0.7-3.6,1.5-7.2,2.4-10.9c0.4-1.7,2.7-2.8,4.2-2.1
		c0.7,0.3,0.3,1,0.4,1.4C27.2,19.5,27.2,20.4,26.5,21z"/>
	<path class="st1" d="M58.1,34.4c0.4-3.5,0.7-7.1,1.1-10.6c0.1-0.5-0.3-1.7,0.9-1.4c0.9,0.2,0.8,1,0.7,1.7
		C59.9,31.4,59,38.7,58.3,46c-0.1,1.4-0.7,1.6-1.9,1.5c-5.1-0.8-10.2-1.5-15.3-2.2c-1.2-0.2-1.5-0.6-1.5-1.8c0-1.4,0.9-1.2,1.7-1.2
		c3.5-0.1,6.9-0.2,10.4,0.1c0.9-0.1,1.8,0.3,2.6,0.6c2.2,0.9,2.3,0.7,2.7-1.6C57.4,39.1,57.1,36.7,58.1,34.4z"/>
	<path class="st4" d="M22.8,41.9c4.3,0,8.6-0.3,12.9,0.4c0.5,0.1,1.1,0.1,1.6,0.2c0.8,0.2,1,1,1,1.7c0,1-0.8,0.7-1.3,0.8
		c-5.6,0-11.2,0-16.8,0c-1.4,0-2.4-0.5-1.5-2.3C19.8,41.8,21.3,42,22.8,41.9z"/>
	<path class="st5" d="M58.1,34.4c-0.3,3.3-0.6,6.7-0.9,10.1c-2-0.7-3.7-1.4-5.5-2.1c0-0.2,0-0.3,0-0.5c1.6-0.1,3.4,1.9,4.6,0.8
		c0.9-0.8,0.4-3,0.7-4.6c0.3-1.7,0-3.5,0.7-5.2C57.8,33.4,57.9,33.9,58.1,34.4z"/>
	<path class="st6" d="M22.8,41.9c-1.4,0.3-2.8,0.5-4.3,0.8c-0.2-0.1-0.4-0.3-0.6-0.4c1.4-0.4,2.8-0.7,4.3-0.8
		C22.4,41.7,22.6,41.8,22.8,41.9z"/>
	<path class="st7" d="M26.5,21c0.2-0.8,0.1-1.7,0.8-2.4c0.1,0,0.3,0,0.4,0c-0.2,1.1-0.2,2.3-0.8,3.4C26.8,21.7,26.6,21.3,26.5,21z"
		/>
	<g>
		<path class="st3" d="M21.4,57.3h-2.2v1.4h2.4v1.1h-3.8v-6h3.6v1.1h-2.3v1.2h2.2V57.3z"/>
		<path class="st3" d="M24.6,57v0.9h-2.3V57H24.6z"/>
		<path class="st3" d="M29.9,59.6c-0.2,0.1-0.8,0.3-1.5,0.3c-2,0-3.1-1.3-3.1-3c0-2,1.4-3.2,3.2-3.2c0.7,0,1.2,0.1,1.5,0.3l-0.3,1.1
			c-0.3-0.1-0.6-0.2-1.1-0.2c-1.1,0-1.9,0.6-1.9,2c0,1.2,0.7,2,1.9,2c0.4,0,0.9-0.1,1.1-0.2L29.9,59.6z"/>
		<path class="st3" d="M32.2,58.3l-0.4,1.5h-1.4l1.8-6H34l1.8,6h-1.4l-0.5-1.5H32.2z M33.7,57.3L33.4,56c-0.1-0.4-0.2-0.8-0.3-1.2h0
			c-0.1,0.4-0.2,0.8-0.3,1.2l-0.4,1.3H33.7z"/>
		<path class="st3" d="M37,55h-1.6v-1.1H40V55h-1.6v4.8H37V55z"/>
		<path class="st3" d="M41.4,58.3L41,59.8h-1.4l1.8-6h1.8l1.8,6h-1.4l-0.5-1.5H41.4z M42.9,57.3L42.6,56c-0.1-0.4-0.2-0.8-0.3-1.2h0
			c-0.1,0.4-0.2,0.8-0.3,1.2l-0.4,1.3H42.9z"/>
		<path class="st3" d="M45.8,53.8h1.3v4.8h2.4v1.1h-3.7V53.8z"/>
		<path class="st3" d="M55.4,56.8c0,2-1.2,3.1-2.9,3.1c-1.8,0-2.8-1.3-2.8-3c0-1.8,1.1-3.1,2.9-3.1C54.4,53.7,55.4,55.1,55.4,56.8z
			 M51.1,56.8c0,1.2,0.5,2,1.4,2c0.9,0,1.4-0.9,1.4-2c0-1.1-0.5-2-1.4-2C51.6,54.8,51.1,55.7,51.1,56.8z"/>
		<path class="st3" d="M61.2,59.5c-0.4,0.1-1.2,0.3-2,0.3c-1.1,0-1.9-0.3-2.4-0.8c-0.5-0.5-0.8-1.3-0.8-2.2c0-2,1.4-3.1,3.4-3.1
			c0.8,0,1.4,0.2,1.6,0.3l-0.3,1.1c-0.3-0.1-0.7-0.3-1.4-0.3c-1.1,0-2,0.6-2,1.9c0,1.2,0.8,2,1.9,2c0.3,0,0.6,0,0.7-0.1v-1.3H59
			v-1.1h2.2V59.5z"/>
	</g>
</g>
</svg>
