<?xml version="1.0" encoding="utf-8"?>
<!-- Generator: Adobe Illustrator 24.2.1, SVG Export Plug-In . SVG Version: 6.00 Build 0)  -->
<svg version="1.1" id="katman_1" xmlns="http://www.w3.org/2000/svg" xmlns:xlink="http://www.w3.org/1999/xlink" x="0px" y="0px"
	 viewBox="0 0 80 80" style="enable-background:new 0 0 80 80;" xml:space="preserve">
<style type="text/css">
	.st0{fill:#FFFFFF;}
	.st1{fill-rule:evenodd;clip-rule:evenodd;fill:#E42528;}
</style>
<g>
	<circle class="st0" cx="40" cy="40" r="39.5"/>
</g>
<g id="surface1">
	<g>
		<path class="st1" d="M24.89,32.65h5.27c-0.15,1.52-0.62,2.63-1.4,3.31c-0.67,0.59-1.63,1-2.88,1.23
			c-1.25,0.23-3.12,0.35-5.61,0.35c-2.04,0-3.61-0.1-4.71-0.29c-1.1-0.19-1.98-0.54-2.64-1.05c-0.66-0.5-1.13-1.19-1.38-2.06
			c-0.26-0.86-0.39-2.19-0.39-3.97c0-1.37,0.04-2.4,0.14-3.06c0.09-0.67,0.28-1.27,0.56-1.8c0.55-1.12,1.57-1.85,3.06-2.2
			c1.25-0.29,3.22-0.44,5.9-0.44c1.18,0,2.18,0.02,3,0.06c0.83,0.04,1.48,0.1,1.97,0.19c1.69,0.29,2.86,0.93,3.52,1.92
			c0.65,0.99,0.98,2.65,0.98,4.98l-0.03,1.43H16.43c0,0.71,0.05,1.22,0.13,1.53c0.09,0.31,0.27,0.57,0.56,0.79
			c0.53,0.39,1.72,0.58,3.56,0.58c1.16,0,2.04-0.04,2.63-0.13c0.59-0.09,1-0.24,1.23-0.47C24.7,33.38,24.82,33.07,24.89,32.65z
			 M24.96,28.36c0-0.54-0.04-0.92-0.12-1.14c-0.04-0.2-0.14-0.39-0.3-0.57c-0.46-0.47-1.68-0.7-3.67-0.7
			c-1.79,0-2.96,0.15-3.53,0.47c-0.29,0.15-0.52,0.39-0.68,0.71c-0.16,0.32-0.24,0.73-0.24,1.23H24.96z M34.08,19.77h5.29v3.26h8.36
			v3.78h-8.36v4.11c0,1.11,0.08,1.8,0.23,2.09c0.26,0.48,0.89,0.73,1.88,0.73c1.02,0,1.66-0.23,1.91-0.7
			c0.08-0.17,0.14-0.35,0.17-0.54v-1.38h4.83c0,1.33-0.08,2.3-0.25,2.93c-0.07,0.31-0.16,0.6-0.29,0.87
			c-0.12,0.27-0.3,0.54-0.52,0.81c-0.52,0.66-1.25,1.13-2.18,1.4c-0.94,0.27-2.32,0.41-4.15,0.41c-1.72,0-2.98-0.09-3.8-0.27
			c-0.82-0.18-1.48-0.53-2-1.05c-0.37-0.36-0.64-0.76-0.82-1.21c-0.1-0.26-0.17-0.53-0.23-0.81c-0.05-0.28-0.08-0.61-0.08-1v-6.39
			h-2.79v-3.78h2.79V19.77z M49.35,32.68h5.39c0,0.57,0.33,0.99,1.01,1.24c0.62,0.22,1.76,0.33,3.41,0.33
			c1.71,0,2.87-0.09,3.49-0.27c0.62-0.18,0.93-0.53,0.93-1.05c0-0.47-0.3-0.8-0.89-0.98c-0.39-0.1-1.89-0.16-4.51-0.16
			c-2.53,0-4.1-0.05-4.71-0.13c-1.63-0.21-2.75-0.76-3.35-1.62c-0.44-0.64-0.66-1.5-0.66-2.6c0-2.07,0.77-3.43,2.31-4.07
			c1.18-0.48,3.66-0.72,7.46-0.72c2.41,0,4.16,0.09,5.25,0.27c1.09,0.18,1.93,0.52,2.53,1.03c0.37,0.31,0.63,0.69,0.8,1.13
			c0.16,0.44,0.27,1.08,0.34,1.94h-5.38c-0.09-0.35-0.21-0.57-0.36-0.67c-0.22-0.14-0.61-0.24-1.15-0.31
			c-0.54-0.06-1.27-0.1-2.18-0.1c-1.67,0-2.81,0.09-3.41,0.25c-0.6,0.16-0.91,0.47-0.91,0.9c0,0.56,0.42,0.87,1.27,0.95
			c0.99,0.03,2.17,0.05,3.53,0.08c1.36,0.02,2.59,0.03,3.68,0.03c1.97,0,3.41,0.33,4.3,0.99c0.89,0.66,1.34,1.8,1.34,3.42
			c0,1.05-0.17,1.91-0.52,2.59c-0.35,0.68-0.9,1.18-1.65,1.51c-0.61,0.28-1.57,0.5-2.89,0.64c-1.32,0.14-2.99,0.22-5.01,0.22
			c-2.56,0-4.41-0.1-5.55-0.3c-0.56-0.1-1.06-0.24-1.49-0.42c-0.42-0.18-0.81-0.43-1.15-0.75c-0.41-0.37-0.72-0.83-0.93-1.38
			C49.45,34.12,49.35,33.46,49.35,32.68z M16.44,40.98h2.41v3.79h10.69v2.06H18.85v6.63c0,0.66,0.01,1.22,0.03,1.69
			c0.02,0.46,0.05,0.82,0.09,1.08c0.04,0.26,0.2,0.55,0.47,0.88c0.27,0.34,0.71,0.59,1.34,0.77c0.63,0.15,1.51,0.23,2.64,0.23
			c0.57,0,1.04-0.02,1.41-0.05c0.38-0.03,0.69-0.09,0.95-0.18c0.48-0.15,0.87-0.42,1.16-0.82c0.17-0.27,0.29-0.6,0.35-0.99
			c0.07-0.4,0.1-1.05,0.1-1.97v-0.97h2.4v0.97c0,1.2-0.05,2.09-0.16,2.68c-0.11,0.58-0.32,1.11-0.64,1.58
			c-0.44,0.65-1.11,1.13-2.01,1.42c-0.9,0.3-2.15,0.44-3.76,0.44c-1.65,0-2.94-0.13-3.86-0.4c-0.92-0.26-1.62-0.7-2.08-1.32
			c-0.32-0.45-0.54-0.97-0.68-1.57c-0.05-0.26-0.09-0.63-0.13-1.08c-0.03-0.46-0.05-0.99-0.05-1.6v-7.43h-3.75v-2.06h3.75V40.98z
			 M31.43,44.76h2.41v7.74c0,0.74,0.02,1.35,0.05,1.84c0.03,0.49,0.09,0.9,0.18,1.23c0.15,0.62,0.44,1.12,0.87,1.48
			c0.43,0.36,1.04,0.63,1.85,0.8c0.8,0.16,1.9,0.25,3.29,0.25c0.93,0,1.75-0.03,2.44-0.1c0.7-0.06,1.31-0.17,1.82-0.32
			c1.01-0.27,1.77-0.73,2.3-1.38c0.31-0.36,0.53-0.84,0.66-1.43c0.13-0.59,0.19-1.44,0.19-2.55v-7.55h2.41v15.27H47.5v-2.29h-0.14
			c-0.62,0.97-1.43,1.63-2.45,1.98c-0.51,0.16-1.18,0.29-2.03,0.37c-0.85,0.08-1.87,0.13-3.07,0.13c-1.87,0-3.33-0.12-4.39-0.34
			c-1.06-0.23-1.89-0.6-2.5-1.13c-0.55-0.47-0.93-1.12-1.16-1.94c-0.11-0.41-0.19-0.91-0.24-1.49c-0.06-0.58-0.08-1.29-0.08-2.12
			V44.76z M52.55,44.76h2.41v2.06h0.16c0.37-0.66,0.94-1.21,1.72-1.63c0.45-0.23,1.06-0.38,1.82-0.48c0.76-0.09,1.9-0.14,3.4-0.14
			c1.52,0,2.64,0.08,3.37,0.25c0.74,0.17,1.36,0.47,1.88,0.91c1.03,0.89,1.54,2.33,1.54,4.33v1.58h-2.48v-1.09
			c0-0.86-0.06-1.49-0.18-1.91c-0.1-0.43-0.3-0.79-0.6-1.08c-0.62-0.57-1.9-0.85-3.81-0.85c-2.91,0-4.78,0.38-5.6,1.14
			c-0.41,0.37-0.71,0.99-0.92,1.84c-0.2,0.85-0.31,1.95-0.31,3.31v7.05h-2.41V44.76"/>
	</g>
</g>
</svg>
