<?xml version="1.0" encoding="utf-8"?>
<!-- Generator: Adobe Illustrator 24.2.1, SVG Export Plug-In . SVG Version: 6.00 Build 0)  -->
<svg version="1.1" id="katman_1" xmlns="http://www.w3.org/2000/svg" xmlns:xlink="http://www.w3.org/1999/xlink" x="0px" y="0px"
	 viewBox="0 0 80 80" style="enable-background:new 0 0 80 80;" xml:space="preserve">
<style type="text/css">
	.st0{fill:#245A9C;}
	.st1{fill-rule:evenodd;clip-rule:evenodd;fill:#FFFFFF;}
</style>
<g>
	<g>
		<path class="st0" d="M40,79.5C18.22,79.5,0.5,61.78,0.5,40C0.5,18.22,18.22,0.5,40,0.5c21.78,0,39.5,17.72,39.5,39.5
			C79.5,61.78,61.78,79.5,40,79.5z"/>
	</g>
	<g>
		<path class="st1" d="M33.81,40.19v22.89c0,0.33,0.27,0.6,0.6,0.6h8.5c0.33,0,0.6-0.27,0.6-0.6V39.81h6.16
			c0.31,0,0.57-0.24,0.59-0.55l0.59-7.01c0.03-0.35-0.25-0.65-0.59-0.65H43.5v-4.97c0-1.17,0.94-2.11,2.11-2.11h4.75
			c0.33,0,0.6-0.27,0.6-0.6v-7.01c0-0.33-0.27-0.6-0.6-0.6h-8.03c-4.71,0-8.53,3.82-8.53,8.53v6.76h-4.25c-0.33,0-0.6,0.27-0.6,0.6
			v7.01c0,0.33,0.27,0.6,0.6,0.6h4.25V40.19z"/>
	</g>
</g>
</svg>
