<?xml version="1.0" encoding="utf-8"?>
<!-- Generator: Adobe Illustrator 24.2.1, SVG Export Plug-In . SVG Version: 6.00 Build 0)  -->
<svg version="1.1" id="katman_1" xmlns="http://www.w3.org/2000/svg" xmlns:xlink="http://www.w3.org/1999/xlink" x="0px" y="0px"
	 viewBox="0 0 80 80" style="enable-background:new 0 0 80 80;" xml:space="preserve">
<style type="text/css">
	.st0{fill:#E53E51;}
	.st1{fill:#5D3EBC;}
	.st2{fill:#FFD10D;}
</style>
<g>
	<circle class="st0" cx="40" cy="40" r="39.5"/>
</g>
<g>
	<path class="st1" d="M36.99,0.62c7.36-0.57,14.88,0.96,21.41,4.42c5.55,2.92,10.38,7.18,13.97,12.31
		c3.24,4.61,5.47,9.92,6.48,15.46c1.53,8.29,0.36,17.08-3.4,24.63c-2.74,5.59-6.84,10.5-11.83,14.22
		c-5.36,4.01-11.75,6.62-18.39,7.49c-5.54,0.73-11.23,0.3-16.59-1.31c-5.7-1.7-11-4.73-15.38-8.76C8.5,64.71,4.83,59.15,2.7,53.05
		c-3.22-9.18-2.9-19.55,0.93-28.5c2.29-5.4,5.82-10.27,10.21-14.15c4.28-3.79,9.39-6.64,14.88-8.26
		C31.41,1.33,34.19,0.83,36.99,0.62 M53.72,27.3c-0.3,0.07-0.57,0.23-0.81,0.42c-0.87,0.7-1.09,2.12-0.37,3
		c0.72,0.95,2.31,0.91,3.04,0c0.72-0.76,0.79-2.08,0.07-2.86C55.16,27.36,54.4,27.09,53.72,27.3 M42.54,28.21
		c-0.75,0.66-0.93,1.74-0.89,2.69c-0.04,1.46-0.01,2.93-0.02,4.39c0.02,1.63-0.03,3.26-0.02,4.89c-0.01,1.2,0.11,2.43,0.55,3.56
		c0.36,0.93,0.96,1.8,1.8,2.37c0.99,0.7,2.23,0.94,3.43,0.89c0.89-0.05,1.84-0.37,2.39-1.11c0.49-0.63,0.49-1.5,0.3-2.25
		c-0.91,0.19-1.89,0.37-2.79,0.05c-0.91-0.36-1.61-1.21-1.74-2.18c-0.23-1.12-0.15-2.26-0.16-3.4c0.04-0.93,0.01-1.86,0.02-2.79
		c0.47,0,0.93,0.01,1.4,0c0.71-0.03,1.45-0.28,1.94-0.82c0.58-0.59,0.78-1.44,0.79-2.24c-1.38,0-2.75,0-4.13,0
		c0-1.64-0.1-3.29,0.1-4.92C44.46,27.35,43.34,27.49,42.54,28.21 M16.45,32.49c-1.43,0.35-2.73,1.25-3.53,2.49
		c-0.91,1.4-1.22,3.14-1.08,4.79c0.13,1.42,0.62,2.82,1.53,3.93c0.88,1.08,2.19,1.8,3.58,1.95c1.45,0.17,3-0.11,4.17-1.01
		c-0.05,1.2,0.17,2.47-0.35,3.59c-0.27,0.64-0.86,1.12-1.54,1.27c-1.22,0.29-2.48-0.07-3.55-0.66c-0.53-0.31-1.16-0.56-1.77-0.34
		c-0.76,0.26-1.18,1.03-1.39,1.76c0.51,0.66,1.21,1.15,1.95,1.53c1.44,0.74,3.09,1.1,4.71,0.95c1.38-0.11,2.79-0.57,3.79-1.56
		c1.07-1.02,1.6-2.47,1.8-3.91c0.16-1.03,0.11-2.07,0.12-3.1c0-1.61,0-3.21,0-4.82c-0.05-1.57-0.33-3.18-1.18-4.53
		c-0.69-1.1-1.79-1.93-3.04-2.28C19.3,32.16,17.83,32.15,16.45,32.49 M29.23,33.9c-1.09,0.97-1.8,2.31-2.12,3.73
		c-0.31,1.39-0.34,2.85-0.05,4.24c0.3,1.42,1.03,2.78,2.17,3.7c1.28,1.06,3,1.49,4.65,1.41c1.42-0.08,2.81-0.54,4.05-1.24
		c0.48-0.29,0.96-0.61,1.3-1.06c-0.23-0.71-0.63-1.52-1.42-1.72c-1-0.18-1.85,0.51-2.79,0.72c-1.15,0.28-2.49,0.21-3.46-0.54
		c-0.7-0.54-0.98-1.44-0.99-2.29c1.11,0.22,2.24,0.27,3.37,0.26c1.01-0.02,2.02-0.12,2.98-0.44c0.8-0.27,1.55-0.75,2.03-1.46
		c0.54-0.84,0.66-1.89,0.52-2.86c-0.15-1.12-0.76-2.18-1.67-2.86c-1.23-0.95-2.83-1.28-4.36-1.25
		C31.91,32.29,30.38,32.86,29.23,33.9 M53.07,33.43c-0.7,0.63-0.89,1.62-0.9,2.52c0.01,2.05-0.03,4.09-0.02,6.14
		c0.02,0.72-0.06,1.45,0.11,2.16c0.19,0.86,0.68,1.67,1.42,2.16c0.87,0.58,2,0.7,3.01,0.44c0.62-0.16,1.21-0.55,1.45-1.16
		c0.22-0.57,0.13-1.2,0.04-1.8c-0.5,0.14-1.08,0.24-1.56-0.01c-0.46-0.25-0.67-0.8-0.67-1.3c0-2.46,0-4.92,0-7.38
		c-0.01-0.89,0.01-1.78,0.12-2.66C55.02,32.56,53.89,32.71,53.07,33.43 M62.15,33.71c-1.24,0.88-1.99,2.34-2.21,3.82
		c-0.17,0.96-0.11,1.93-0.12,2.9c0,1.14-0.01,2.27,0,3.41c0.05,0.83,0.18,1.78,0.87,2.34c0.85,0.68,2.01,0.67,3.04,0.66
		c-0.06-0.64-0.1-1.28-0.12-1.93c-0.01-2.07,0-4.15,0-6.22c-0.01-0.73,0.05-1.51,0.48-2.12c0.41-0.57,1.11-0.84,1.79-0.89
		c0.69-0.06,1.45-0.21,1.93-0.76c0.54-0.65,0.41-1.58,0.17-2.32c-0.68,0-1.35-0.01-2.03,0C64.63,32.67,63.24,32.91,62.15,33.71
		 M17.73,35.52c0.71-0.17,1.5-0.11,2.13,0.26c0.57,0.33,0.94,0.93,1.11,1.55c0.21,0.69,0.21,1.43,0.17,2.15
		c-0.06,0.78-0.28,1.59-0.82,2.17c-0.58,0.61-1.48,0.81-2.29,0.7c-0.65-0.07-1.3-0.36-1.72-0.87c-0.56-0.65-0.73-1.53-0.75-2.37
		c0.01-0.86,0.16-1.76,0.65-2.5C16.56,36.08,17.11,35.67,17.73,35.52 M31.56,36.3c0.58-0.59,1.41-0.88,2.23-0.87
		c0.59-0.01,1.21,0.12,1.7,0.47c0.41,0.29,0.7,0.78,0.66,1.29c-0.01,0.46-0.32,0.86-0.71,1.08c-0.43,0.24-0.93,0.34-1.42,0.35
		c-1.11,0.01-2.24-0.02-3.33-0.3C30.72,37.58,31.02,36.83,31.56,36.3"/>
	<path class="st2" d="M53.72,27.3c0.69-0.21,1.44,0.06,1.93,0.55c0.72,0.78,0.65,2.1-0.07,2.86c-0.73,0.91-2.32,0.95-3.04,0
		c-0.72-0.89-0.5-2.3,0.37-3C53.15,27.53,53.42,27.38,53.72,27.3 M42.54,28.21c0.8-0.72,1.93-0.86,2.96-0.88
		c-0.2,1.63-0.1,3.28-0.1,4.92c1.38,0,2.75,0,4.13,0c-0.01,0.8-0.21,1.65-0.79,2.24c-0.49,0.54-1.23,0.79-1.94,0.82
		c-0.47,0.01-0.94,0-1.4,0c-0.01,0.93,0.02,1.86-0.02,2.79c0.01,1.13-0.06,2.28,0.17,3.4c0.14,0.97,0.84,1.83,1.74,2.18
		c0.9,0.32,1.88,0.14,2.79-0.05c0.19,0.74,0.19,1.61-0.3,2.25c-0.55,0.74-1.5,1.06-2.39,1.11c-1.19,0.05-2.44-0.19-3.43-0.89
		c-0.84-0.57-1.44-1.43-1.8-2.37c-0.44-1.13-0.57-2.35-0.55-3.56c-0.01-1.63,0.04-3.26,0.02-4.89c0.01-1.46-0.02-2.93,0.02-4.39
		C41.61,29.95,41.79,28.87,42.54,28.21 M16.45,32.49c1.38-0.34,2.86-0.34,4.22,0.05c1.25,0.35,2.35,1.18,3.04,2.28
		c0.84,1.35,1.13,2.96,1.18,4.53c0,1.61,0,3.21,0,4.82c-0.01,1.03,0.04,2.08-0.12,3.1c-0.2,1.43-0.73,2.89-1.8,3.91
		c-1,0.99-2.41,1.45-3.79,1.56c-1.62,0.15-3.27-0.21-4.71-0.95c-0.73-0.38-1.44-0.87-1.95-1.53c0.21-0.73,0.62-1.5,1.39-1.76
		c0.61-0.22,1.24,0.03,1.77,0.34c1.07,0.59,2.34,0.96,3.55,0.66c0.67-0.15,1.26-0.63,1.54-1.27c0.52-1.12,0.31-2.39,0.35-3.59
		c-1.17,0.9-2.73,1.18-4.17,1.01c-1.39-0.15-2.7-0.87-3.58-1.95c-0.91-1.1-1.4-2.51-1.53-3.93c-0.14-1.65,0.17-3.38,1.08-4.79
		C13.72,33.74,15.02,32.85,16.45,32.49 M17.73,35.52c-0.62,0.16-1.17,0.56-1.52,1.1c-0.49,0.73-0.64,1.63-0.65,2.5
		c0.01,0.83,0.18,1.72,0.75,2.37c0.43,0.51,1.07,0.8,1.72,0.87c0.81,0.11,1.71-0.1,2.29-0.7c0.54-0.58,0.76-1.39,0.82-2.17
		c0.03-0.72,0.03-1.45-0.17-2.15c-0.17-0.62-0.54-1.22-1.11-1.55C19.23,35.41,18.44,35.34,17.73,35.52 M29.23,33.9
		c1.15-1.04,2.68-1.6,4.22-1.65c1.53-0.03,3.13,0.3,4.36,1.25c0.91,0.68,1.52,1.74,1.67,2.86c0.14,0.97,0.03,2.02-0.52,2.86
		c-0.47,0.71-1.23,1.19-2.03,1.46c-0.96,0.33-1.97,0.42-2.98,0.44c-1.13,0.01-2.26-0.04-3.37-0.26c0.01,0.85,0.29,1.75,0.99,2.29
		c0.97,0.75,2.3,0.83,3.46,0.54c0.94-0.21,1.78-0.9,2.79-0.72c0.79,0.2,1.19,1.01,1.42,1.72c-0.34,0.45-0.82,0.77-1.3,1.06
		c-1.24,0.7-2.63,1.16-4.05,1.24c-1.64,0.08-3.36-0.35-4.65-1.41c-1.14-0.92-1.86-2.28-2.17-3.7c-0.29-1.39-0.26-2.85,0.05-4.24
		C27.43,36.21,28.14,34.86,29.23,33.9 M31.56,36.3c-0.54,0.53-0.84,1.28-0.86,2.03c1.08,0.28,2.21,0.31,3.33,0.3
		c0.49-0.01,0.99-0.11,1.42-0.35c0.39-0.22,0.69-0.63,0.71-1.08c0.04-0.51-0.25-1-0.66-1.29c-0.49-0.35-1.11-0.48-1.7-0.47
		C32.97,35.42,32.14,35.71,31.56,36.3 M53.07,33.43c0.81-0.72,1.95-0.87,3-0.88c-0.11,0.88-0.13,1.77-0.12,2.66
		c0,2.46,0,4.92,0,7.38c0,0.5,0.21,1.05,0.67,1.3c0.49,0.25,1.06,0.15,1.56,0.01c0.08,0.59,0.18,1.22-0.04,1.8
		c-0.24,0.61-0.83,1.01-1.45,1.16c-1.01,0.25-2.13,0.14-3.01-0.44c-0.74-0.49-1.23-1.3-1.42-2.16c-0.17-0.71-0.1-1.44-0.11-2.16
		c-0.01-2.05,0.03-4.09,0.02-6.14C52.18,35.05,52.37,34.06,53.07,33.43 M62.15,33.71c1.1-0.8,2.48-1.04,3.81-1.11
		c0.68-0.01,1.35,0,2.03,0c0.24,0.75,0.38,1.67-0.17,2.32c-0.48,0.54-1.24,0.7-1.93,0.76c-0.68,0.05-1.38,0.32-1.79,0.89
		c-0.43,0.61-0.49,1.4-0.48,2.12c0,2.07,0,4.15,0,6.22c0.02,0.64,0.05,1.29,0.12,1.93c-1.03,0.01-2.19,0.02-3.04-0.66
		c-0.69-0.56-0.81-1.51-0.87-2.34c-0.01-1.14,0-2.27,0-3.41c0.01-0.97-0.05-1.94,0.12-2.9C60.16,36.05,60.91,34.59,62.15,33.71"/>
</g>
</svg>
