<?xml version="1.0" encoding="utf-8"?>
<!-- Generator: Adobe Illustrator 24.2.1, SVG Export Plug-In . SVG Version: 6.00 Build 0)  -->
<svg version="1.1" id="katman_1" xmlns="http://www.w3.org/2000/svg" xmlns:xlink="http://www.w3.org/1999/xlink" x="0px" y="0px"
	 viewBox="0 0 80 80" style="enable-background:new 0 0 80 80;" xml:space="preserve">
<style type="text/css">
	.st0{fill:#007BBC;}
	.st1{fill:#FFFFFF;}
</style>
<g>
	<g>
		<g>
			<path class="st0" d="M40,79.5C18.22,79.5,0.5,61.78,0.5,40C0.5,18.22,18.22,0.5,40,0.5c21.78,0,39.5,17.72,39.5,39.5
				C79.5,61.78,61.78,79.5,40,79.5z"/>
		</g>
		<g>
			<g>
				<path class="st1" d="M62.33,43.01v14.75c0,0.36-0.3,0.66-0.66,0.66h-7.61c-0.36,0-0.66-0.3-0.66-0.66V44.04
					c0-3.61-1.29-6.07-4.52-6.07c-2.47,0-3.93,1.66-4.58,3.27c-0.24,0.57-0.3,1.37-0.3,2.18v14.35c0,0.36-0.3,0.66-0.66,0.66h-7.61
					c-0.37,0-0.66-0.29-0.66-0.66c0.02-3.65,0.09-21.38,0.02-25.54c-0.01-0.37,0.29-0.67,0.66-0.67h7.6c0.36,0,0.66,0.3,0.66,0.66
					v3.15c-0.02,0.03-0.04,0.06-0.06,0.09H44v-0.09c1.19-1.83,3.3-4.44,8.05-4.44C57.92,30.92,62.33,34.76,62.33,43.01L62.33,43.01z
					 M21.85,58.42h7.61c0.36,0,0.66-0.3,0.66-0.66V32.21c0-0.36-0.3-0.66-0.66-0.66h-7.61c-0.36,0-0.66,0.3-0.66,0.66v25.55
					C21.19,58.12,21.49,58.42,21.85,58.42z"/>
			</g>
		</g>
	</g>
	<g>
		<circle class="st1" cx="25.39" cy="23.35" r="4.78"/>
	</g>
</g>
</svg>
