<?xml version="1.0" encoding="utf-8"?>
<!-- Generator: Adobe Illustrator 24.2.1, SVG Export Plug-In . SVG Version: 6.00 Build 0)  -->
<svg version="1.1" id="katman_1" xmlns="http://www.w3.org/2000/svg" xmlns:xlink="http://www.w3.org/1999/xlink" x="0px" y="0px"
	 viewBox="0 0 80 80" style="enable-background:new 0 0 80 80;" xml:space="preserve">
<style type="text/css">
	.st0{fill:#E52F32;}
	.st1{fill:#FFFFFF;}
</style>
<g>
	<g>
		<path class="st0" d="M40,79.5C18.22,79.5,0.5,61.78,0.5,40C0.5,18.22,18.22,0.5,40,0.5c21.78,0,39.5,17.72,39.5,39.5
			C79.5,61.78,61.78,79.5,40,79.5z"/>
	</g>
	<g>
		<g>
			<path class="st1" d="M43.02,52.67c-2.83-0.22-4.01-1.62-6.23-2.96c-0.99,5.18-2.15,10.19-4.91,13.6
				c-0.8,0.99-2.42,0.49-2.48-0.78c-0.42-8.25,2.43-14.81,3.83-21.72c-2.66-4.48,0.32-13.49,5.93-11.27
				c6.9,2.73-5.98,16.65,2.67,18.39c9.03,1.81,12.71-15.67,7.11-21.35c-8.09-8.21-23.55-0.19-21.65,11.56
				c0.36,2.23,2.23,3.26,2,5.47c-0.15,1.37-1.56,2.16-2.81,1.58c-3.58-1.67-4.69-5.34-4.52-10.01c0.32-8.91,8.01-15.15,15.72-16.01
				c9.75-1.09,18.9,3.58,20.17,12.75C59.27,42.27,53.44,53.48,43.02,52.67L43.02,52.67z"/>
		</g>
	</g>
</g>
</svg>
