<?xml version="1.0" encoding="utf-8"?>
<!-- Generator: Adobe Illustrator 24.2.1, SVG Export Plug-In . SVG Version: 6.00 Build 0)  -->
<svg version="1.1" id="katman_1" xmlns="http://www.w3.org/2000/svg" xmlns:xlink="http://www.w3.org/1999/xlink" x="0px" y="0px"
	 viewBox="0 0 80 80" style="enable-background:new 0 0 80 80;" xml:space="preserve">
<style type="text/css">
	.st0{clip-path:url(#SVGID_2_);fill:#FF671B;}
	.st1{clip-path:url(#SVGID_2_);}
	.st2{fill:#231F20;}
	.st3{fill:#FFFFFF;}
	.st4{fill:#FF671B;}
	.st5{font-family:'MyriadPro-Regular';}
	.st6{font-size:12px;}
</style>
<g>
	<defs>
		<circle id="SVGID_1_" cx="40" cy="40" r="39.5"/>
	</defs>
	<clipPath id="SVGID_2_">
		<use xlink:href="#SVGID_1_"  style="overflow:visible;"/>
	</clipPath>
	<circle class="st0" cx="40" cy="40" r="39.5"/>
	<g class="st1">
		<rect x="-4.98" y="27.95" class="st2" width="88.8" height="22.5"/>
		<path class="st3" d="M30.3,39.97h-7.71c0.35,1.45,1.53,2.54,3.05,2.54c0.86,0,1.7-0.37,2.27-1l1.86,0.04
			c-0.82,1.56-2.39,2.56-4.2,2.56c-2.65,0-4.73-2.3-4.73-4.9c0-2.68,2.05-4.89,4.77-4.89c2.64,0,4.74,2.17,4.74,4.79
			C30.35,39.38,30.33,39.69,30.3,39.97L30.3,39.97z M25.59,35.9c-1.51,0-2.91,1.19-3.01,2.72h6.01C28.5,37.1,27.11,35.9,25.59,35.9z
			 M38.03,43.87v-5.06c0-1.58-0.47-2.91-2.32-2.91c-1.71,0-2.45,1.33-2.45,2.89v5.07h-1.74v-9.31h1.63v0.99h0.03
			c0.68-0.89,1.65-1.25,2.72-1.25c1.33,0,2.57,0.52,3.3,1.66c0.45,0.71,0.59,1.56,0.59,2.39v5.51H38.03L38.03,43.87z M49.06,43.87
			v-1.33h-0.03c-0.77,1.08-2,1.56-3.3,1.56c-2.79,0-4.84-2.08-4.84-4.85c0-2.79,2.02-4.94,4.84-4.94c1.17,0,2.42,0.45,3.16,1.39
			h0.03v-4.26h1.74v12.43H49.06z M45.83,35.9c-1.85,0-3.19,1.51-3.19,3.33c0,1.74,1.4,3.28,3.17,3.28c1.82,0,3.24-1.48,3.24-3.28
			C49.06,37.36,47.74,35.9,45.83,35.9z M55.73,46.98h-1.81l1.36-3.3l-3.71-9.12h1.88l2.74,7.23l2.81-7.23h1.88L55.73,46.98
			L55.73,46.98z M65.85,44.1c-2.74,0-5.02-2.2-5.02-4.96c0-2.74,2.34-4.84,5.02-4.84c2.72,0,5.02,2.11,5.02,4.87
			C70.87,41.83,68.67,44.1,65.85,44.1L65.85,44.1z M65.85,35.9c-1.82,0-3.28,1.48-3.28,3.3s1.46,3.31,3.28,3.31
			c1.83,0,3.28-1.51,3.28-3.33C69.12,37.36,67.65,35.9,65.85,35.9z M72.29,43.87V31.43h1.75v12.43H72.29z M7.68,42.03
			c0.07,0.3,0.17,0.54,0.28,0.72c0.11,0.18,0.26,0.35,0.43,0.5c0.55,0.48,1.25,0.73,2.08,0.73c0.82,0,1.59-0.2,2.29-0.59v-1.67
			c-0.72,0.43-1.41,0.64-2.07,0.64c-0.88,0-1.34-0.54-1.34-1.61v-4.56h2.93v-1.62H9.36V31.6H7.64v2.98H5.96v1.62h1.61v4.13
			C7.56,41.17,7.6,41.74,7.68,42.03z M18.25,36.12c0.54,0,1.13,0.3,1.77,0.89l0.95-1.58c-0.77-0.71-1.7-1.03-2.25-1.03H18.6
			c-0.63,0-1.67,0-2.52,1.38l-0.03,0.06l0.01-1.25h-1.81v9.23h1.81V39c0-0.77,0.22-1.45,0.65-2.02
			C17.14,36.41,17.66,36.12,18.25,36.12z"/>
		<path class="st3" d="M55.97,32.45c-0.08,0.02-0.16-0.05-0.18-0.13l-0.47-2.93c-0.15-0.96-0.01-1.75,0.5-2.4
			c0.49-0.64,1.22-1.03,2.15-1.18l12.15-1.93c0.08-0.02,0.16,0.05,0.18,0.13l0.92,5.87c0.02,0.08-0.05,0.16-0.13,0.18L55.97,32.45z"
			/>
		<path class="st4" d="M60.03,29.35c-0.1,0.38-0.39,0.63-0.77,0.69c-0.49,0.08-1.05-0.21-1.17-0.92c-0.1-0.63,0.23-1.14,0.82-1.24
			c0.39-0.06,0.7,0.08,0.95,0.42l0.59-0.1c-0.27-0.57-0.96-0.91-1.62-0.8c-0.87,0.14-1.41,0.92-1.27,1.8
			c0.14,0.89,0.91,1.45,1.77,1.31c0.66-0.1,1.16-0.6,1.28-1.27L60.03,29.35L60.03,29.35z M62.3,26.84c-0.88,0.14-1.49,0.95-1.34,1.8
			c0.14,0.87,0.97,1.45,1.86,1.31c0.88-0.14,1.48-0.96,1.34-1.82C64.01,27.28,63.18,26.7,62.3,26.84z M62.73,29.47
			c-0.59,0.1-1.15-0.31-1.25-0.91c-0.1-0.59,0.31-1.16,0.89-1.25c0.59-0.1,1.15,0.31,1.25,0.89C63.72,28.81,63.32,29.37,62.73,29.47
			z M69.34,28.8l-0.29-1.78c-0.13-0.78-0.65-1.18-1.41-1.05c-0.46,0.07-0.73,0.27-0.89,0.65l-0.02,0.03l-0.02-0.02
			c-0.22-0.31-0.67-0.39-1-0.35c-0.38,0.06-0.57,0.2-0.78,0.54l-0.01,0.01l-0.03,0.01l-0.06-0.32l-0.48,0.08l0.48,2.96l0.53-0.09
			l-0.27-1.66c-0.1-0.61,0.1-0.95,0.61-1.03c0.26-0.04,0.47,0.02,0.62,0.19c0.16,0.18,0.19,0.38,0.23,0.6l0.27,1.65l0.53-0.09
			l-0.27-1.65c-0.07-0.43-0.06-0.92,0.58-1.03c0.47-0.08,0.78,0.2,0.88,0.8l0.27,1.65L69.34,28.8L69.34,28.8z M57.48,30.55
			c0,0.23-0.19,0.43-0.43,0.43c-0.23,0-0.43-0.19-0.43-0.43s0.19-0.43,0.43-0.43C57.29,30.11,57.48,30.31,57.48,30.55z"/>
	</g>
</g>
<text transform="matrix(1 0 0 1 23.3441 55.8397)" class="st3 st5 st6">yemek</text>
</svg>
