<?xml version="1.0" encoding="utf-8"?>
<!-- Generator: Adobe Illustrator 24.2.1, SVG Export Plug-In . SVG Version: 6.00 Build 0)  -->
<svg version="1.1" id="katman_1" xmlns="http://www.w3.org/2000/svg" xmlns:xlink="http://www.w3.org/1999/xlink" x="0px" y="0px"
	 viewBox="0 0 80 80" style="enable-background:new 0 0 80 80;" xml:space="preserve">
<style type="text/css">
	.st0{fill:#E52F32;}
	.st1{fill:#FFFFFF;}
</style>
<g>
	<g>
		<path class="st0" d="M40,79.5C18.22,79.5,0.5,61.78,0.5,40C0.5,18.22,18.22,0.5,40,0.5c21.78,0,39.5,17.72,39.5,39.5
			C79.5,61.78,61.78,79.5,40,79.5z"/>
	</g>
	<g>
		<g>
			<path class="st1" d="M63.65,34.01c0-5.6-4.54-10.14-10.14-10.14H27.2c-5.6,0-10.14,4.54-10.14,10.14v12.33
				c0,5.6,4.54,10.14,10.14,10.14h26.31c5.6,0,10.14-4.54,10.14-10.14V34.01z M47.05,40.8l-10.49,5.75
				c-0.46,0.25-0.87-0.08-0.87-0.6V34.14c0-0.53,0.42-0.85,0.88-0.59l10.56,6.06C47.6,39.87,47.52,40.54,47.05,40.8z"/>
		</g>
	</g>
</g>
</svg>
