<?xml version="1.0" encoding="utf-8"?>
<!-- Generator: Adobe Illustrator 24.2.1, SVG Export Plug-In . SVG Version: 6.00 Build 0)  -->
<svg version="1.1" id="katman_1" xmlns="http://www.w3.org/2000/svg" xmlns:xlink="http://www.w3.org/1999/xlink" x="0px" y="0px"
	 viewBox="0 0 283.46 283.46" style="enable-background:new 0 0 283.46 283.46;" xml:space="preserve">
<style type="text/css">
	.st0{fill:#D7B46A;}
</style>
<path class="st0" d="M13.77,141.73c0-36.31,12.34-66.62,37.01-90.95c25.03-24.32,55.34-36.66,90.95-36.66s65.92,12.34,90.59,36.66
	c25.03,24.32,37.37,54.64,37.37,90.95c0,36.31-12.34,66.98-37.37,91.3c-24.68,24.32-54.99,36.31-90.59,36.31
	s-65.92-11.99-90.95-36.31C26.11,208.71,13.77,178.04,13.77,141.73z M40.91,141.73c0,29.26,9.52,53.93,28.55,73.32
	c19.39,19.39,43.36,28.91,72.26,28.91s52.88-9.52,71.91-28.91c19.04-19.39,28.55-44.06,28.55-73.32s-9.52-53.58-28.55-72.97
	c-19.04-19.39-43.01-29.26-71.91-29.26s-52.88,9.87-72.26,29.26C50.43,88.15,40.91,112.47,40.91,141.73z"/>
<g>
	<path class="st0" d="M194.75,138.31c-0.01,25.84-7.56,46.1-22.43,64.43c-2.98,3.68-6.73,4.5-10.49,2.38
		c-3.65-2.06-4.05-5.33-0.99-9.12c14.87-18.43,21.46-38.83,19.74-61.02c-1.34-17.29-8.18-33.1-19.64-47.51
		c-1.28-1.6-2.28-4.23-1.61-5.85c0.73-1.77,3.3-3.49,5.52-4.18c2.83-0.88,5.58,0.57,7.04,2.78c4.76,7.22,9.9,14.32,13.8,21.87
		C192.21,114.72,194.95,128.11,194.75,138.31z"/>
	<path class="st0" d="M168.39,138.37c-0.37,21.9-6.75,38.66-19.62,53.62c-1.88,2.19-4.26,3.27-7.5,2.72
		c-3.1-0.53-5.22-2.24-5.4-4.74c-0.12-1.75,0.73-3.84,1.94-5.31c7.78-9.47,13.09-19.73,15.24-31.17
		c3.71-19.69-1.47-37.56-14.72-53.93c-1.36-1.68-2.54-3.87-2.52-5.81c0.02-2.44,2.1-4.25,5.2-4.89c3.25-0.67,5.73,0.34,7.6,2.5
		c7.89,9.1,13.76,19.06,16.63,30.08C166.99,128.1,167.78,134.95,168.39,138.37z"/>
	<path class="st0" d="M141.66,140.02c-0.16,16.25-5.41,29.26-16.19,40.63c-3.01,3.17-7.13,3.76-10.47,1.5
		c-3.14-2.13-3.54-5.66-0.61-8.74c10.22-10.78,14.37-23.1,12.96-36.73c-0.97-9.38-5.08-17.84-11.83-25.35
		c-0.59-0.65-1.23-1.27-1.76-1.96c-2.23-2.9-1.6-6.25,1.52-8.18c3.13-1.94,7.14-1.53,9.74,1.15c7.99,8.23,13.17,17.62,15.43,28.09
		C141.25,134.14,141.41,137.96,141.66,140.02z"/>
	<path class="st0" d="M115.05,139.57c0,12.82-4.59,22.04-13.26,29.83c-4.47,4.02-10.92,3.05-12.74-1.81
		c-0.99-2.63,0.51-4.53,2.53-6.31c6.52-5.76,9.86-12.64,9.5-20.6c-0.34-7.37-3.85-13.66-10.01-18.9c-2.51-2.13-3.17-4.63-1.29-7.27
		c1.76-2.47,4.55-3.46,7.82-2.63c1.53,0.39,3.06,1.28,4.18,2.27C110.39,121.83,114.94,130.96,115.05,139.57z"/>
</g>
</svg>
